<svg width="65" height="45" viewBox="0 0 65 45" fill="none" xmlns="http://www.w3.org/2000/svg">
<path opacity="0.3" d="M13.2049 1.0573L13.2142 1.05656L13.2236 1.05565C16.8416 0.703061 20.5843 2.043 23.1896 4.59956L23.1963 4.60614L23.2031 4.61259C25.9304 7.19004 27.5347 10.9247 27.579 14.6985C27.5697 20.8065 26.208 26.9825 22.9684 32.0944L22.9669 32.0967C19.281 37.9486 13.2013 42.1166 6.56617 43.9809C6.39714 44.0277 6.16911 43.9682 5.99121 43.6868C5.81546 43.4088 5.84628 43.1575 5.96216 43.0077C9.57258 38.8987 12.536 34.1632 14.3668 28.9368L14.7763 27.7678L13.5473 27.614C10.381 27.2176 7.3161 26.0944 5.1249 23.9067L5.11268 23.8945L5.10005 23.8827C2.65804 21.6073 1.17804 18.326 1.01894 14.9675L1.01897 14.9675L1.01855 14.9599C0.812658 11.2182 2.33378 7.42924 4.99221 4.79296C7.20743 2.65572 10.1564 1.29666 13.2049 1.0573ZM42.8876 3.56436L42.8877 3.56438L42.894 3.55973C45.4437 1.6972 48.6737 0.781837 51.8085 1.04818L51.8125 1.0485C55.2228 1.32444 58.4931 3.07351 60.6777 5.7368L60.6776 5.73685L60.6852 5.74589C62.8302 8.29871 64.0208 11.6429 63.9997 14.9932C63.938 21.2531 62.4592 27.5848 58.9785 32.7169L58.9749 32.7223C55.2812 38.2452 49.4264 42.1423 43.0556 43.9832L43.0498 43.9849C42.9245 44.022 42.719 43.994 42.5206 43.8177C42.3236 43.6426 42.2708 43.4428 42.2943 43.3085L42.2994 43.2796L42.3028 43.2505C42.3216 43.0873 42.44 42.8922 42.7985 42.4881L42.7986 42.4881L42.8037 42.4823C46.2619 38.5222 49.026 33.9275 50.7814 28.935L51.1971 27.7528L49.952 27.6099C46.5024 27.214 43.1586 25.8126 40.8942 23.2617L40.8892 23.256L40.884 23.2504C38.2728 20.3973 36.9797 16.3521 37.5495 12.5218L37.5496 12.5218L37.5515 12.5079C38.0286 8.95895 39.9995 5.63939 42.8876 3.56436Z" fill="white" stroke="#0080FF" stroke-width="2"/>
</svg>
