<svg width="1880" height="377" viewBox="0 0 1880 377" fill="none" xmlns="http://www.w3.org/2000/svg">
<rect opacity="0.5" x="-1" y="-1" width="74" height="74" rx="9" transform="matrix(0 -1 -1 0 225 74)" fill="#EBF4FB" stroke="#A7C6DB" stroke-width="2"/>
<rect opacity="0.5" x="1" y="1" width="172" height="74" rx="9" transform="matrix(0 1 1 0 1605 93)" fill="#EBF4FB" stroke="#A7C6DB" stroke-width="2"/>
<rect opacity="0.5" x="1" y="-1" width="172" height="74" rx="9" transform="matrix(1 0 0 -1 754 279)" fill="#EBF4FB" stroke="#A7C6DB" stroke-width="2"/>
<rect opacity="0.5" x="-1" y="-1" width="74" height="74" rx="9" transform="matrix(0 -1 -1 0 926 375)" fill="#EBF4FB" stroke="#A7C6DB" stroke-width="2"/>
<rect opacity="0.5" x="-1" y="-1" width="74" height="74" rx="9" transform="matrix(0 -1 -1 0 1878 375)" fill="#EBF4FB" stroke="#A7C6DB" stroke-width="2"/>
<path opacity="0.5" d="M1703.88 300.875V301.875H1702.88H1614.67C1609.88 301.875 1606 305.755 1606 310.542V367.333C1606 372.12 1609.88 376 1614.67 376H1712.54H1769.33C1774.12 376 1778 372.12 1778 367.333V310.542V212.667C1778 207.88 1774.12 204 1769.33 204H1712.54C1707.76 204 1703.88 207.88 1703.88 212.667V300.875Z" fill="#EBF4FB" stroke="#A7C6DB" stroke-width="2"/>
<path opacity="0.5" d="M41.125 300.875V301.875H42.125H217.333C222.12 301.875 226 305.755 226 310.542V367.333C226 372.12 222.12 376 217.333 376H32.4583H-24.3333C-29.1198 376 -33 372.12 -33 367.333L-33 310.542L-33 224.667C-33 219.88 -29.1198 216 -24.3333 216H32.4583C37.2448 216 41.125 219.88 41.125 224.667L41.125 300.875Z" fill="#EBF4FB" stroke="#A7C6DB" stroke-width="2"/>
</svg>
