<svg width="1819" height="934" viewBox="0 0 1819 934" fill="none" xmlns="http://www.w3.org/2000/svg">
<g opacity="0.5">
<rect x="-1" y="-1" width="172" height="74" rx="9" transform="matrix(0 -1 -1 0 1681 285)" fill="white" stroke="#CFD7DE" stroke-width="2"/>
<path d="M1743.88 732.125V731.125H1742.88H1654.67C1649.88 731.125 1646 727.245 1646 722.458V665.667C1646 660.88 1649.88 657 1654.67 657H1752.54H1809.33C1814.12 657 1818 660.88 1818 665.667V722.458V820.333C1818 825.12 1814.12 829 1809.33 829H1752.54C1747.76 829 1743.88 825.12 1743.88 820.333V732.125Z" fill="white" stroke="#CFD7DE" stroke-width="2"/>
<rect x="-1" y="-1" width="172" height="74" rx="9" transform="matrix(0 -1 -1 0 150 932)" fill="white" stroke="#CFD7DE" stroke-width="2"/>
<rect x="1" y="1" width="74" height="74" rx="9" transform="matrix(0 1 1 0 0 333)" fill="white" stroke="#CFD7DE" stroke-width="2"/>
<path d="M204.125 76.125V75.125H205.125H293.333C298.12 75.125 302 71.2448 302 66.4583V9.66667C302 4.8802 298.12 1 293.333 1L195.458 1H138.667C133.88 1 130 4.88019 130 9.66667L130 66.4583V164.333C130 169.12 133.88 173 138.667 173H195.458C200.245 173 204.125 169.12 204.125 164.333V76.125Z" fill="white" stroke="#CFD7DE" stroke-width="2"/>
</g>
</svg>
