<svg width="200" height="160" viewBox="0 0 200 160" fill="none" xmlns="http://www.w3.org/2000/svg">
<g clip-path="url(#clip0_501_52724)">
<rect x="42.5" y="0.5" width="114.973" height="159" rx="7.5" fill="white" stroke="#A7C6DB"/>
<path d="M137.486 58.6101H61.0853C60.3004 58.6101 59.6816 57.9913 59.6816 57.2064C59.6816 56.4215 60.3004 55.8027 61.0853 55.8027H137.486C138.271 55.8027 138.89 56.4215 138.89 57.2064C138.89 57.9913 138.271 58.6101 137.486 58.6101ZM137.486 69.564H61.0853C60.3004 69.564 59.6816 68.9453 59.6816 68.1604C59.6816 67.3754 60.3004 66.7567 61.0853 66.7567H137.486C138.271 66.7567 138.89 67.3754 138.89 68.1604C138.89 68.9453 138.271 69.564 137.486 69.564ZM137.486 80.518H61.0853C60.3004 80.518 59.6816 79.8993 59.6816 79.1143C59.6816 78.3294 60.3004 77.7107 61.0853 77.7107H137.486C138.271 77.7107 138.89 78.3294 138.89 79.1143C138.89 79.8734 138.266 80.518 137.486 80.518ZM137.486 91.4407H61.0853C60.3004 91.4407 59.6816 90.822 59.6816 90.0371C59.6816 89.2521 60.3004 88.6334 61.0853 88.6334H137.486C138.271 88.6334 138.89 89.2521 138.89 90.0371C138.89 90.822 138.271 91.4407 137.486 91.4407ZM137.486 102.395H61.0853C60.3004 102.395 59.6816 101.776 59.6816 100.991C59.6816 100.206 60.3004 99.5874 61.0853 99.5874H137.486C138.271 99.5874 138.89 100.206 138.89 100.991C138.89 101.776 138.271 102.395 137.486 102.395ZM121.379 113.349H61.0853C60.3004 113.349 59.6816 112.73 59.6816 111.945C59.6816 111.16 60.3004 110.541 61.0853 110.541H121.379C122.164 110.541 122.782 111.16 122.782 111.945C122.782 112.73 122.164 113.349 121.379 113.349Z" fill="#A7C6DB" fill-opacity="0.5" stroke="white"/>
<mask id="mask0_501_52724" style="mask-type:alpha" maskUnits="userSpaceOnUse" x="59" y="14" width="31" height="32">
<circle cx="74.4856" cy="29.8001" r="15.302" fill="#A7C6DB"/>
</mask>
<g mask="url(#mask0_501_52724)">
<circle cx="74.4856" cy="29.8001" r="15.302" fill="#D3E3ED" fill-opacity="0.5"/>
<path d="M82.8788 39.5146L78.5935 38.4431L78.2289 36.9844C79.3754 35.8491 80.1607 34.2898 80.3933 32.6902C81.0286 32.5113 81.5208 31.9665 81.6058 31.2831L81.8854 29.0459C81.9447 28.5739 81.7993 28.0963 81.4861 27.7383C81.3026 27.528 81.0711 27.3692 80.815 27.2719L80.9179 25.1656L81.3363 24.7461C81.966 24.0761 82.4884 22.9273 81.3967 21.2607C80.5577 19.98 79.1327 19.3301 77.1596 19.3301C76.381 19.3301 74.5891 19.3301 72.9202 20.4509C68.1551 20.5505 67.5063 22.7641 67.5063 24.9229C67.5063 25.4252 67.6282 26.5561 67.7088 27.2384C67.4213 27.329 67.1607 27.4968 66.9571 27.7283C66.6383 28.0896 66.4906 28.5695 66.5499 29.0471L66.8296 31.2843C66.9213 32.0135 67.475 32.5874 68.1752 32.7238C68.4067 34.2619 69.1517 35.7708 70.2322 36.8872L69.843 38.4453L65.5578 39.5169C62.7524 40.216 60.7949 42.7238 60.7949 45.6164C60.7949 45.9251 61.0455 46.1757 61.3542 46.1757H87.0813C87.39 46.1757 87.6406 45.9229 87.6406 45.6142C87.6405 42.7238 85.683 40.216 82.8788 39.5146Z" fill="#A7C6DB"/>
</g>
<path d="M69.6533 122.418C75.4355 122.418 80.123 127.105 80.123 132.888C80.123 138.67 75.4355 143.357 69.6533 143.357C63.871 143.357 59.1836 138.67 59.1836 132.888C59.1836 127.105 63.871 122.418 69.6533 122.418ZM69.6533 139.17C73.1226 139.17 75.9351 136.357 75.9351 132.888C75.9351 129.418 73.1226 126.606 69.6533 126.606C66.1839 126.606 63.3715 129.418 63.3715 132.888C63.3715 136.357 66.1839 139.17 69.6533 139.17Z" fill="#A7C6DB" fill-opacity="0.5"/>
<path d="M69.6533 123.285C69.6533 122.806 70.042 122.414 70.519 122.454C71.5973 122.543 72.657 122.8 73.6599 123.215C74.9301 123.741 76.0843 124.512 77.0565 125.485C78.0287 126.457 78.7999 127.611 79.326 128.881C79.8522 130.151 80.123 131.513 80.123 132.888C80.123 134.263 79.8522 135.624 79.326 136.894C78.7999 138.165 78.0287 139.319 77.0565 140.291C76.0843 141.263 74.9301 142.034 73.6599 142.56C72.657 142.976 71.5973 143.232 70.519 143.322C70.042 143.361 69.6533 142.969 69.6533 142.491L69.6533 140.036C69.6533 139.558 70.0431 139.176 70.5172 139.11C71.0451 139.037 71.5627 138.896 72.0572 138.691C72.8194 138.376 73.5119 137.913 74.0952 137.33C74.6785 136.746 75.1412 136.054 75.4569 135.292C75.7726 134.53 75.9351 133.713 75.9351 132.888C75.9351 132.063 75.7726 131.246 75.4569 130.484C75.1412 129.722 74.6785 129.029 74.0952 128.446C73.5119 127.862 72.8194 127.4 72.0572 127.084C71.5627 126.879 71.0451 126.739 70.5172 126.666C70.0431 126.6 69.6533 126.218 69.6533 125.739L69.6533 123.285Z" fill="#0080FF"/>
<path d="M136.414 26.9323H97.597C96.8121 26.9323 96.1934 26.3136 96.1934 25.5287C96.1934 24.7437 96.8121 24.125 97.597 24.125H136.414C137.199 24.125 137.818 24.7437 137.818 25.5287C137.818 26.3136 137.199 26.9323 136.414 26.9323ZM125.676 36.2754H97.597C96.8121 36.2754 96.1934 35.6566 96.1934 34.8717C96.1934 34.0868 96.8121 33.468 97.597 33.468H125.676C126.461 33.468 127.079 34.0868 127.079 34.8717C127.079 35.6566 126.461 36.2754 125.676 36.2754Z" fill="#A7C6DB" fill-opacity="0.5" stroke="white"/>
<path d="M100.079 122.416C105.861 122.416 110.549 127.103 110.549 132.886C110.549 138.668 105.861 143.355 100.079 143.355C94.2968 143.355 89.6094 138.668 89.6094 132.886C89.6094 127.103 94.2968 122.416 100.079 122.416ZM100.079 139.167C103.548 139.167 106.361 136.355 106.361 132.886C106.361 129.416 103.548 126.604 100.079 126.604C96.6097 126.604 93.7973 129.416 93.7973 132.886C93.7973 136.355 96.6097 139.167 100.079 139.167Z" fill="#A7C6DB" fill-opacity="0.5"/>
<path d="M100.079 123.283C100.079 122.804 100.468 122.412 100.945 122.452C102.627 122.591 104.256 123.136 105.689 124.046C107.366 125.11 108.706 126.63 109.552 128.428C110.398 130.226 110.715 132.227 110.466 134.198C110.217 136.169 109.413 138.028 108.146 139.559C106.88 141.09 105.204 142.229 103.314 142.843C101.425 143.457 99.3997 143.521 97.4754 143.026C95.551 142.532 93.807 141.501 92.447 140.053C91.2853 138.816 90.4447 137.318 89.9922 135.691C89.864 135.23 90.176 134.775 90.6461 134.685L93.0572 134.225C93.5274 134.135 93.9755 134.447 94.129 134.9C94.4162 135.748 94.8824 136.528 95.4998 137.186C96.3158 138.055 97.3622 138.674 98.5168 138.97C99.6714 139.267 100.887 139.228 102.02 138.86C103.154 138.492 104.159 137.808 104.919 136.89C105.679 135.971 106.162 134.856 106.311 133.673C106.461 132.49 106.271 131.29 105.763 130.211C105.255 129.132 104.452 128.22 103.445 127.582C102.683 127.098 101.83 126.787 100.943 126.664C100.469 126.598 100.079 126.216 100.079 125.737L100.079 123.283Z" fill="#0080FF"/>
<path d="M130.507 122.416C136.289 122.416 140.976 127.103 140.976 132.886C140.976 138.668 136.289 143.355 130.507 143.355C124.725 143.355 120.037 138.668 120.037 132.886C120.037 127.103 124.725 122.416 130.507 122.416ZM130.507 139.167C133.976 139.167 136.789 136.355 136.789 132.886C136.789 129.416 133.976 126.604 130.507 126.604C127.037 126.604 124.225 129.416 124.225 132.886C124.225 136.355 127.037 139.167 130.507 139.167Z" fill="#A7C6DB" fill-opacity="0.5"/>
<path d="M130.507 123.283C130.507 122.804 130.896 122.412 131.373 122.452C133.553 122.633 135.631 123.494 137.306 124.924C139.202 126.543 140.458 128.786 140.848 131.248C141.238 133.71 140.736 136.231 139.434 138.356C138.131 140.482 136.113 142.073 133.742 142.843C131.371 143.613 128.803 143.512 126.5 142.558C124.197 141.604 122.31 139.86 121.178 137.639C120.046 135.418 119.744 132.866 120.326 130.442C120.841 128.299 122.015 126.382 123.674 124.953C124.036 124.641 124.581 124.729 124.862 125.117L126.305 127.102C126.586 127.49 126.495 128.028 126.151 128.36C125.291 129.187 124.68 130.247 124.399 131.419C124.049 132.874 124.231 134.405 124.91 135.738C125.589 137.07 126.721 138.117 128.103 138.689C129.485 139.262 131.025 139.322 132.448 138.86C133.871 138.398 135.081 137.443 135.863 136.168C136.644 134.893 136.945 133.38 136.711 131.903C136.477 130.426 135.724 129.08 134.587 128.109C133.67 127.326 132.553 126.828 131.371 126.664C130.897 126.598 130.507 126.216 130.507 125.737L130.507 123.283Z" fill="#0080FF"/>
<circle cx="158" cy="75" r="45" fill="white"/>
<path d="M157 105C140.456 105 127 91.5435 127 75C127 58.4565 140.456 45 157 45C173.543 45 187 58.4565 187 75C187 91.5435 173.543 105 157 105ZM157 49.2348C142.792 49.2348 131.235 60.7916 131.235 75C131.235 89.2084 142.792 100.765 157 100.765C171.208 100.765 182.765 89.2084 182.765 75C182.805 60.7916 171.208 49.2348 157 49.2348Z" fill="#07A072"/>
<path d="M157 49.2348C142.792 49.2348 131.235 60.7916 131.235 75C131.235 89.2084 142.792 100.765 157 100.765C171.208 100.765 182.765 89.2084 182.765 75C182.805 60.7916 171.208 49.2348 157 49.2348Z" fill="#07A072"/>
<path d="M148.745 88.5894C148.295 88.5553 147.875 88.3447 147.571 87.9813L142.154 81.2198C141.608 80.5199 141.701 79.527 142.392 78.9514C143.092 78.4075 144.085 78.5017 144.659 79.194L148.614 84.1379L148.963 84.5742L149.358 84.1791L171.641 61.8968C172.276 61.261 173.266 61.261 173.902 61.8968C174.538 62.5327 174.538 63.5222 173.902 64.1581L149.957 88.1026C149.644 88.4161 149.252 88.5894 148.846 88.5894H148.846H148.846H148.846H148.845H148.845H148.845H148.845H148.844H148.844H148.844H148.844H148.844H148.843H148.843H148.843H148.843H148.842H148.842H148.842H148.842H148.841H148.841H148.841H148.841H148.841H148.84H148.84H148.84H148.84H148.839H148.839H148.839H148.839H148.838H148.838H148.838H148.838H148.838H148.837H148.837H148.837H148.837H148.836H148.836H148.836H148.836H148.835H148.835H148.835H148.835H148.834H148.834H148.834H148.834H148.834H148.833H148.833H148.833H148.833H148.832H148.832H148.832H148.832H148.831H148.831H148.831H148.831H148.831H148.83H148.83H148.83H148.83H148.829H148.829H148.829H148.829H148.828H148.828H148.828H148.828H148.828H148.827H148.827H148.827H148.827H148.826H148.826H148.826H148.826H148.825H148.825H148.825H148.825H148.825H148.824H148.824H148.824H148.824H148.823H148.823H148.823H148.823H148.822H148.822H148.822H148.822H148.822H148.821H148.821H148.821H148.821H148.82H148.82H148.82H148.82H148.819H148.819H148.819H148.819H148.818H148.818H148.818H148.818H148.818H148.817H148.817H148.817H148.817H148.816H148.816H148.816H148.816H148.815H148.815H148.815H148.815H148.815H148.814H148.814H148.814H148.814H148.813H148.813H148.813H148.813H148.812H148.812H148.812H148.812H148.812H148.811H148.811H148.811H148.811H148.81H148.81H148.81H148.81H148.809H148.809H148.809H148.809H148.809H148.808H148.808H148.808H148.808H148.807H148.807H148.807H148.807H148.806H148.806H148.806H148.806H148.806H148.805H148.805H148.805H148.805H148.804H148.804H148.804H148.804H148.803H148.803H148.803H148.803H148.802H148.802H148.802H148.802H148.802H148.801H148.801H148.801H148.801H148.8H148.8H148.8H148.8H148.799H148.799H148.799H148.799H148.799H148.798H148.798H148.798H148.798H148.797H148.797H148.797H148.797H148.796H148.796H148.796H148.796H148.796H148.795H148.795H148.795H148.795H148.794H148.794H148.794H148.794H148.793H148.793H148.793H148.793H148.793H148.792H148.792H148.792H148.792H148.791H148.791H148.791H148.791H148.79H148.79H148.79H148.79H148.79H148.789H148.789H148.789H148.789H148.788H148.788H148.788H148.788H148.787H148.787H148.787H148.787H148.786H148.786H148.786H148.786H148.786H148.785H148.785H148.785H148.785H148.784H148.784H148.784H148.784H148.783H148.783H148.783H148.783H148.783H148.782H148.782H148.782H148.782H148.781H148.781H148.781H148.781H148.78H148.78H148.78H148.78H148.78H148.779H148.779H148.779H148.779H148.778H148.778H148.778H148.778H148.777H148.777H148.777H148.777H148.777H148.776H148.776H148.776H148.776H148.775H148.775H148.775H148.775H148.774H148.774H148.774H148.774H148.774H148.773H148.773H148.773H148.773H148.772H148.772H148.772H148.772H148.771H148.771H148.771H148.771H148.77H148.77H148.77H148.77H148.77H148.769H148.769H148.769H148.769H148.768H148.768H148.768H148.768H148.767H148.767H148.767H148.767H148.767H148.766H148.766H148.766H148.766H148.765H148.765H148.765H148.765H148.764H148.764H148.764H148.764H148.764H148.763H148.763H148.763H148.763H148.762H148.762H148.762H148.762H148.761H148.761H148.761H148.761H148.761H148.76H148.76H148.76H148.76H148.759H148.759H148.759H148.759H148.758H148.758H148.758H148.758H148.758H148.757H148.757H148.757H148.757H148.756H148.756H148.756H148.756H148.755H148.755H148.755H148.755H148.754H148.754H148.754H148.754H148.754H148.753H148.753H148.753H148.753H148.752H148.752H148.752H148.752H148.751H148.751H148.751H148.751H148.751H148.75H148.75H148.75H148.75H148.749H148.749H148.749H148.749H148.748H148.748H148.748H148.748H148.748H148.747H148.747H148.747H148.747H148.746H148.746H148.746H148.746H148.745H148.745Z" fill="white" stroke="#07A085"/>
</g>
<defs>
<clipPath id="clip0_501_52724">
<rect width="200" height="160" fill="white"/>
</clipPath>
</defs>
</svg>
