<svg width="200" height="161" viewBox="0 0 200 161" fill="none" xmlns="http://www.w3.org/2000/svg">
<g clip-path="url(#clip0_501_53469)">
<circle cx="50.4711" cy="81.0648" r="41.0453" fill="#BCE1F7"/>
<path d="M19.8548 90.9568L19.0329 92.1631L18.1682 93.412L16.4175 95.9313C15.2433 97.6072 14.0477 99.2725 12.8308 100.916C11.6245 102.571 10.4076 104.204 9.16932 105.816C7.93104 107.428 6.69277 109.019 5.42246 110.577C4.15216 112.125 2.88185 113.641 1.59019 115.103C0.298542 116.555 -1.00379 117.953 -2.29544 119.213C-3.57642 120.473 -4.88943 121.626 -5.96758 122.405C-6.50132 122.789 -6.97101 123.077 -7.15248 123.173C-7.19518 123.205 -7.20586 123.216 -7.20586 123.227C-7.18451 123.227 -7.14181 123.227 -7.05641 123.216L-6.97101 123.205C-6.94966 123.205 -6.94967 123.205 -6.91764 123.205L-6.78954 123.195C-6.61874 123.184 -6.44794 123.173 -6.27715 123.184C-5.93555 123.195 -5.62598 123.237 -5.36979 123.312C-5.11359 123.376 -4.91077 123.451 -4.75064 123.526C-4.6012 123.59 -4.49446 123.664 -4.44108 123.707C-4.32366 123.803 -4.35568 123.825 -4.45175 123.771C-4.65458 123.664 -5.09225 123.302 -5.54059 122.821C-5.99961 122.33 -6.49065 121.722 -6.99237 121.038C-7.48341 120.355 -7.98512 119.629 -8.46549 118.85C-9.44757 117.302 -10.387 115.616 -11.2943 113.865C-12.2017 112.114 -13.077 110.31 -13.9203 108.474C-15.6069 104.791 -17.1975 100.991 -18.7133 97.1375C-19.4819 95.2161 -20.2185 93.2732 -20.9337 91.3197L-21.9905 88.3948L-22.5136 86.9324L-23.0153 85.502L-23.0687 85.3632C-24.1575 82.2568 -27.5628 80.6236 -30.6691 81.7124C-33.5086 82.7158 -35.1205 85.6514 -34.5334 88.5229L-34.2025 90.1669L-33.8609 91.7681C-33.626 92.8356 -33.3912 93.8924 -33.1457 94.9599C-32.6546 97.0841 -32.1316 99.1978 -31.5872 101.311C-30.477 105.539 -29.26 109.744 -27.8296 113.972C-27.1144 116.085 -26.3565 118.199 -25.5132 120.313C-24.6699 122.437 -23.7412 124.561 -22.663 126.728C-22.1186 127.806 -21.5421 128.906 -20.8803 130.005C-20.2185 131.115 -19.4926 132.236 -18.6173 133.4C-17.7312 134.563 -16.7171 135.77 -15.2867 137.019C-14.5608 137.638 -13.7175 138.278 -12.6714 138.876C-12.1483 139.175 -11.5612 139.463 -10.91 139.73C-10.2589 139.986 -9.54364 140.221 -8.76438 140.392C-7.98512 140.563 -7.14181 140.659 -6.27715 140.68C-5.83948 140.68 -5.40181 140.669 -4.96415 140.627L-4.63323 140.595L-4.38771 140.563C-4.22758 140.541 -4.06746 140.52 -3.91801 140.488C-3.29887 140.381 -2.74379 140.253 -2.22072 140.114C-1.70832 139.965 -1.21728 139.815 -0.76894 139.645C1.03511 138.972 2.42283 138.225 3.68246 137.467C4.93142 136.709 6.0416 135.941 7.07706 135.161C8.11251 134.382 9.08392 133.603 10.0126 132.802C11.8594 131.212 13.5674 129.6 15.2006 127.977C16.8338 126.355 18.3924 124.711 19.8975 123.045C22.9185 119.725 25.758 116.331 28.5014 112.894C29.8678 111.164 31.2128 109.424 32.5365 107.674C33.1984 106.798 33.8602 105.912 34.5114 105.026L35.4828 103.681L36.4755 102.272C39.6887 97.7353 38.6105 91.4585 34.0737 88.2454C29.5369 85.0323 23.2601 86.1104 20.047 90.6472C20.0149 90.6899 19.9936 90.7326 19.9616 90.7753L19.8548 90.9568Z" fill="#E69773"/>
<path d="M11.7405 169.637C16.747 170.982 22.458 172.039 28.9697 172.775C29.3753 172.818 29.7916 172.871 30.208 172.914C41.171 174.067 54.3758 174.344 70.2492 173.554C70.1425 169.594 70.2599 165.538 70.4841 161.695C70.5054 161.406 70.5161 161.118 70.5374 160.841C71.21 150.465 72.6724 141.904 72.7044 141.637C72.7898 141.071 72.8859 140.473 73.0033 139.843C73.0567 139.576 73.0994 139.31 73.1528 139.032C73.4944 137.249 73.9427 135.285 74.4871 133.193C74.7647 132.072 75.0849 130.919 75.4158 129.734C75.7468 128.571 76.099 127.386 76.4727 126.18C76.5153 126.03 76.5687 125.881 76.6114 125.731C76.6968 125.475 76.7715 125.208 76.8569 124.952C77.0918 124.215 77.3373 123.468 77.5828 122.732C77.8284 121.984 78.0845 121.237 78.3514 120.49C78.5009 120.052 78.661 119.614 78.8104 119.166C78.8425 119.091 78.8745 119.006 78.8958 118.931C79.0133 118.59 79.1414 118.259 79.2588 117.928C79.2588 117.917 79.2695 117.907 79.2695 117.885C79.5363 117.159 79.8139 116.423 80.0914 115.708C80.1982 115.441 80.2942 115.174 80.401 114.907C80.9668 113.434 81.5645 111.982 82.1837 110.562C86.6671 100.112 87.393 88.3372 76.6007 84.7398C75.8108 84.473 75.0422 84.2274 74.2843 83.9926C72.8966 83.5549 71.5729 83.1493 70.3453 82.8077C70.0357 82.7116 69.7368 82.6262 69.4486 82.5515C67.2389 81.9217 65.4562 81.4626 64.4208 81.2065C64.1432 81.1317 63.9191 81.0784 63.7483 81.0463C63.6842 81.0357 63.6202 81.0143 63.5775 81.0036C63.4707 80.9823 63.4173 80.9609 63.4173 80.9609L40.7654 82.8397L38.609 83.0212C38.2034 83.0639 37.8084 83.1066 37.4241 83.1599C37.1466 83.192 36.869 83.224 36.6022 83.2667C34.3284 83.5549 32.3963 83.8752 30.7417 84.2381C28.8736 84.6544 27.3685 85.1134 26.1408 85.6579C25.4897 85.9461 24.9132 86.2557 24.4115 86.5972C24.1874 86.7467 23.9739 86.8961 23.7817 87.0563C21.572 88.8283 20.8461 91.2728 20.1736 94.8062C20.1202 95.0944 20.0669 95.3933 20.0135 95.6922C19.8107 96.8237 19.6078 98.0513 19.3517 99.407C19.3196 99.5351 19.309 99.6632 19.2769 99.7913C19.2663 99.834 19.2556 99.8767 19.2556 99.9194C19.1915 100.282 19.1168 100.645 19.0314 101.008C18.978 101.275 18.9247 101.531 18.8606 101.788C18.7112 102.417 18.551 103.047 18.3909 103.677C18.06 104.926 17.6971 106.164 17.3128 107.381C17.2701 107.509 17.238 107.637 17.1953 107.765C17.1526 107.894 17.1099 108.022 17.0672 108.15C16.2987 110.541 15.4767 112.825 14.7295 114.971C14.6441 115.206 14.5693 115.451 14.4839 115.686C14.4733 115.697 14.4733 115.718 14.4733 115.729C14.0783 116.86 13.7153 117.949 13.3951 118.995C13.3738 119.059 13.3524 119.123 13.331 119.187C13.267 119.38 13.2243 119.572 13.1709 119.753C12.872 120.81 12.6158 121.814 12.445 122.742C12.2102 124.013 12.1141 125.176 12.2209 126.201C12.2636 126.585 12.3276 126.948 12.4237 127.29C12.6585 128.133 12.9681 128.966 13.331 129.756C13.3524 129.798 13.3737 129.841 13.3844 129.873C13.5339 130.193 13.694 130.513 13.8541 130.823C14.3025 131.666 14.7935 132.467 15.2739 133.204C16.5335 135.082 17.8145 136.534 18.4763 137.249C18.7645 137.559 18.9353 137.73 18.9353 137.73C18.9353 137.751 18.9353 137.772 18.9353 137.804C18.914 137.997 18.8926 138.189 18.8713 138.392C18.7752 139.181 18.6364 140.11 18.4657 141.167C18.455 141.263 18.3375 141.904 18.1454 142.992C18.1027 143.249 18.0493 143.515 17.996 143.825C17.7825 144.978 17.4942 146.472 17.1206 148.234C17.0566 148.522 17.0032 148.821 16.9285 149.12C15.8396 154.478 14.089 161.983 11.7405 169.637Z" fill="#F0C86A"/>
<path d="M79.2825 117.88C79.2719 117.816 79.2825 117.741 79.3146 117.677C80.7557 114.357 77.692 111.614 74.8632 110.557C71.9062 109.458 68.6611 109.415 65.5761 109.895C59.7262 110.803 54.2287 113.407 48.5817 115.083C37.64 118.339 25.5988 119.812 14.6571 115.713C14.6037 115.692 14.5504 115.67 14.5077 115.649C14.5931 115.414 14.6678 115.179 14.7532 114.934C16.0982 115.414 17.3899 115.788 18.4574 116.065C24.2965 117.592 30.4132 117.72 36.3697 116.941C42.5184 116.14 48.507 114.4 54.3568 112.35C59.7262 110.472 65.2878 108.294 71.1056 108.892C74.5643 109.244 79.6455 111.283 80.4141 114.88L79.2825 117.88Z" fill="#F8E6BA"/>
<path d="M23.8196 87.0115C25.0151 89.296 26.8405 92.0714 29.3278 92.6906C32.1886 93.4164 34.5798 90.6837 35.7754 88.4313C36.6614 86.766 37.1631 84.962 37.4727 83.1152C37.1951 83.1473 36.9176 83.1793 36.6507 83.222C36.4052 84.6204 36.0316 85.9974 35.4551 87.2891C34.3129 89.819 31.6442 93.267 28.5592 91.5056C26.7978 90.5129 25.4528 88.506 24.4707 86.5525C24.2252 86.702 24.0224 86.8514 23.8196 87.0115Z" fill="#F8E6BA"/>
<path d="M20.0477 95.6495C22.1399 95.9164 24.3176 95.8843 26.2177 95.9697C33.9997 96.322 42.0485 95.927 49.3501 92.9808C55.392 90.5469 60.612 86.4158 64.4336 81.1638C64.156 81.089 63.9319 81.0357 63.7611 81.0036C63.697 80.993 63.633 80.9716 63.5903 80.9609C58.4877 87.8462 51.0367 92.3937 42.6356 94.1764C37.9494 95.1585 33.135 95.3826 28.3634 95.2545C26.143 95.2012 23.9226 95.0731 21.7023 94.8916C21.2006 94.8596 20.6988 94.8169 20.2078 94.7635C20.1544 95.0517 20.101 95.3506 20.0477 95.6495Z" fill="#F8E6BA"/>
<path d="M18.9058 101.751C22.0976 102.135 25.3 102.434 28.5238 102.541C37.8643 102.829 47.2154 101.238 55.1255 96.0397C60.7831 92.3249 65.4801 87.4358 70.3691 82.7816C70.0596 82.6855 69.7607 82.6001 69.4725 82.5254C67.5083 84.3935 65.5761 86.2829 63.6013 88.1403C60.4949 91.0332 57.2605 93.8194 53.6203 96.0504C49.7774 98.4095 45.5502 99.9787 41.1308 100.854C33.8399 102.295 26.4209 101.868 19.0766 100.993C19.0125 101.228 18.9592 101.484 18.9058 101.751Z" fill="#F8E6BA"/>
<path d="M17.1012 108.113C18.3181 108.604 19.5991 108.935 20.8907 109.149C25.2781 109.875 29.9003 109.682 34.3197 109.277C38.8778 108.86 43.3933 108.038 47.7913 106.8C56.2031 104.43 65.7464 100.235 74.1475 104.943C74.5958 105.199 75.0015 104.505 74.5531 104.249C70.6461 102.061 66.1093 101.687 61.7326 102.274C57.452 102.85 53.3636 104.302 49.2431 105.541C44.7703 106.875 40.2015 107.857 35.5686 108.359C31.1599 108.828 26.5804 109.053 22.1717 108.53C20.5278 108.337 18.8732 107.964 17.336 107.345C17.2933 107.473 17.2613 107.601 17.2186 107.729C17.1866 107.857 17.1439 107.985 17.1012 108.113Z" fill="#F8E6BA"/>
<path d="M17.3854 130.725C16.0511 130.5 14.7274 130.202 13.4144 129.849C13.5638 130.17 13.7239 130.49 13.8841 130.799C14.3324 130.917 14.7701 131.023 15.2184 131.12C18.0793 131.749 23.2779 133.094 25.0179 129.732C26.5337 126.786 22.4133 123.669 20.3957 122.217C18.2821 120.69 15.9123 119.601 13.4144 118.961C13.393 119.025 13.3717 119.089 13.3503 119.153C13.2863 119.345 13.2436 119.537 13.1902 119.719C15.2077 120.242 17.1506 121.075 18.9333 122.195C20.9935 123.498 27.1635 128.077 23.2459 130.479C21.5699 131.504 19.2108 131.034 17.3854 130.725Z" fill="#F8E6BA"/>
<path d="M33.3701 148.166C35.3877 151.624 37.9176 154.806 40.9172 157.464C47.0126 162.876 55.0614 166.003 63.249 165.459C63.7614 165.427 63.7614 164.626 63.249 164.658C54.186 165.267 45.4861 161.317 39.3053 154.795C36.69 152.041 34.523 148.87 32.815 145.476C31.8009 143.448 30.3598 140.587 32.1959 138.591C33.4448 137.235 35.4197 136.786 37.1277 136.338C39.1559 135.804 41.1841 135.281 43.2123 134.758C44.7495 134.353 46.4575 134.064 47.8025 133.157C50.642 131.246 48.9981 128.247 47.0553 126.379C45.5394 124.916 43.8848 123.197 45.0804 120.977C46.244 118.831 48.8807 118.287 51.101 118.031C55.3069 117.54 59.5982 118.148 63.6226 119.397C68.2661 120.838 72.5361 123.112 76.6139 125.717C76.6993 125.46 76.774 125.194 76.8594 124.937C71.2551 121.372 65.2879 118.426 58.6481 117.422C54.9226 116.857 50.1296 116.558 46.6816 118.383C45.3259 119.098 44.1837 120.358 43.8955 121.906C43.6073 123.486 44.4079 124.841 45.4647 125.952C46.9058 127.467 50.0869 129.912 47.8345 132.111C46.4254 133.499 43.8421 133.765 42.0167 134.235C39.7964 134.812 37.5333 135.313 35.3343 135.986C33.8932 136.434 32.356 137.053 31.3953 138.281C29.0895 141.249 31.8116 145.486 33.3701 148.166Z" fill="#F8E6BA"/>
<path d="M26.1836 85.6113C25.6285 90.6071 22.7783 98.4638 18.4337 103.641C18.7646 102.403 19.0528 101.143 19.2983 99.8836C19.309 99.8409 19.3197 99.7982 19.3197 99.7555C19.341 99.6274 19.3624 99.4993 19.3944 99.3712C20.7821 91.8988 20.8248 87.9918 26.1836 85.6113Z" fill="#E69773"/>
<path d="M62.7711 100.574C63.3049 110.544 71.7487 121.603 78.3564 120.472C78.5378 119.959 78.7193 119.436 78.9008 118.924C79.0182 118.582 79.1463 118.251 79.2744 117.921C80.1924 115.423 81.1745 112.946 82.1993 110.544C86.6827 100.094 87.4086 88.3193 76.6164 84.7218C75.8371 84.4656 75.0578 84.2095 74.3106 83.9746C68.3007 85.2129 62.152 89.0985 62.7711 100.574Z" fill="#E69773"/>
<path d="M35.187 111.063C28.558 111.063 27.1169 103.922 27.0955 103.847C27.0421 103.559 27.2236 103.292 27.5118 103.239C27.8001 103.185 28.0669 103.367 28.1203 103.655C28.1737 103.922 29.4333 110.028 35.187 110.028C41.2183 110.028 54.3483 100.816 54.4764 100.72C54.7113 100.549 55.0422 100.613 55.2023 100.848C55.3731 101.082 55.3091 101.413 55.0742 101.574C54.5298 101.958 41.5492 111.063 35.187 111.063Z" fill="#CA9441"/>
<path d="M51.1575 26.1271C52.3744 27.4935 55.6089 30.4611 55.6089 30.4611L60.2524 33.6422L64.2021 36.8981C64.2021 36.8981 76.1579 43.1642 78.6024 41.2214C80.1076 40.0151 79.8941 37.9762 79.4991 36.5778C79.2536 35.7131 78.9547 35.1047 78.9547 35.1047C78.9547 35.1047 79.2643 35.2328 79.734 35.3395C80.9082 35.5957 83.1072 35.6918 84.132 33.1298C85.5624 29.5324 80.8869 25.5827 80.8869 25.5827C80.8869 25.5827 84.4843 25.476 86.0321 22.4016C87.58 19.3273 81.1751 13.9899 81.1751 13.9899C81.1751 13.9899 83.278 13.5415 82.1572 9.82669C81.0363 6.11185 76.9906 7.19 76.9906 7.19C76.9906 7.19 77.4175 0.400814 72.5071 0.0165206C67.5967 -0.367773 64.1274 6.07982 64.1274 6.07982C64.1274 6.07982 60.4232 4.12633 56.5483 6.59221C52.6733 9.0581 55.2139 16.4558 55.2139 16.4558C55.2139 16.4558 51.1148 14.6197 48.3393 18.0677C46.5886 20.2453 49.0759 23.8 51.1575 26.1271Z" fill="#2B2B39"/>
<path d="M55.604 30.4648C55.604 30.4648 61.8915 31.7031 64.1973 36.9124C64.1973 36.9124 63.3967 38.0973 61.3151 38.5243C61.3151 38.5243 60.1942 35.0123 55.2838 33.1122C55.2945 33.1122 54.5152 31.4469 55.604 30.4648Z" fill="#D03F23"/>
<path d="M30.8604 58.9482C30.8604 58.9482 26.5904 57.9981 25.4376 51.9562C23.5481 42.114 30.0811 33.019 42.3145 31.3644C58.3374 29.1974 60.6111 34.1612 63.7495 40.374C66.8986 46.5867 66.098 55.8631 62.9169 60.955C59.8425 65.8761 53.523 67.9898 53.523 67.9898L30.8604 58.9482Z" fill="#2B2B39"/>
<path d="M60.334 81.9518C60.334 81.9518 57.2276 88.7517 49.7979 90.2889C40.3507 92.2317 39.027 88.1966 39.027 88.1966C39.3473 86.8836 39.5181 85.5813 39.5501 84.2042C39.5608 83.6812 39.5501 83.1474 39.5287 82.5923C39.4647 81.0872 39.2619 79.4432 38.9523 77.5431C38.8776 77.0948 38.8029 76.6358 38.7175 76.1661L38.7068 76.1127C45.2078 74.1592 50.4277 70.9034 53.833 65.8115L54.7831 65.1603L55.4236 64.7227L55.573 65.0963L55.5196 66.3346C55.2421 72.131 56.8326 76.8279 60.334 81.9518Z" fill="#E69773"/>
<path d="M49.5469 71.1523C48.3406 74.3868 45.4477 80.1512 39.5125 82.5851C39.4485 81.0799 39.2457 79.436 38.9361 77.5359C38.8614 77.0875 38.7866 76.6285 38.7013 76.1588C38.8293 76.1695 38.9681 76.1695 39.0962 76.1695C42.7043 76.1909 46.4939 74.1093 49.5469 71.1523Z" fill="#CA735F"/>
<path d="M62.8566 54.7364C63.2943 58.3018 60.8177 63.0308 56.1742 63.7353H56.1528L56.0568 63.746C56.0034 63.9595 55.95 64.173 55.8753 64.3865C55.8433 64.4826 55.8219 64.5786 55.7899 64.664C55.7899 64.6747 55.7792 64.6854 55.7792 64.6854C53.6229 71.0903 45.446 75.7231 40.8024 76.4277C39.1478 76.6732 37.9736 76.4384 37.6107 76.4063C32.5401 75.9473 30.7895 69.3823 30.9282 64.1837C30.9496 63.4258 31.0136 62.6999 31.1097 62.0273C31.1204 61.9846 31.1204 61.9313 31.131 61.8886C31.131 61.8886 28.5904 54.9499 27.8218 51.8863C26.3274 45.9404 29.0281 39.3754 42.1261 36.5359C55.2135 33.6964 59.4087 41.521 60.8711 45.7589C61.1166 46.4635 61.5116 50.8081 60.8711 51.598C62.1948 52.0998 62.7072 53.5409 62.8566 54.7364Z" fill="#E69773"/>
<path d="M43.9593 44.9705C43.9593 44.9705 43.9486 48.7494 47.3966 50.5214C47.4286 50.5321 47.3646 50.5107 47.3966 50.5214C49.3821 51.5462 50.9513 52.5283 50.3749 54.6846C49.6063 57.5134 50.4816 59.3068 52.1149 59.2748C55.0291 59.2214 54.901 52.6564 60.8789 51.6209C60.8789 51.6209 62.9925 50.9057 62.3093 47.1375C61.6262 43.38 53.8656 33.3883 44.0554 35.1924C34.2452 36.9964 26.0576 42.9209 26.5593 49.913C27.0611 56.8943 28.3847 55.3571 28.3847 55.3571C28.3847 55.3571 28.2353 54.9515 28.5128 49.2618C28.7584 44.1592 44.5891 41.6186 43.9593 44.9705Z" fill="#2B2B39"/>
<g opacity="0.5">
<g opacity="0.5">
<g opacity="0.5">
<g opacity="0.5">
<path opacity="0.5" d="M33.506 62.8377C33.5593 63.3715 32.4492 63.9266 30.9227 64.1934C30.944 63.4355 31.0081 62.7096 31.1041 62.0371C32.4598 62.0478 33.4633 62.3574 33.506 62.8377Z" fill="#AF4E4A"/>
</g>
</g>
</g>
</g>
<path d="M38.9963 69.6786C39.6047 69.5292 39.9143 69.0915 39.925 69.0702C40.0104 68.9421 39.9784 68.7713 39.8503 68.6752C39.7222 68.5898 39.5514 68.6218 39.4553 68.7392C39.434 68.7713 39.0283 69.305 38.2384 69.1022C38.0889 69.0595 37.9395 69.1556 37.8968 69.305C37.8541 69.4545 37.9502 69.6039 38.0996 69.6466C38.4519 69.7427 38.7508 69.732 38.9963 69.6786Z" fill="#AF4E4A"/>
<path d="M38.3329 67.8348C38.3436 67.8348 38.3649 67.8241 38.3756 67.8241C40.3611 67.3224 40.8949 65.6678 40.9162 65.593C40.9909 65.3582 40.8628 65.1234 40.628 65.0486C40.4038 64.9739 40.1583 65.102 40.0836 65.3369C40.0622 65.3902 39.6566 66.6072 38.1621 66.9808C38.1514 66.9808 38.1408 66.9915 38.1194 66.9915C36.6143 67.3544 35.803 66.6499 35.7923 66.6392C35.6108 66.4791 35.3333 66.4897 35.1731 66.6712C35.013 66.8527 35.0237 67.1302 35.2052 67.2903C35.2692 67.3224 36.3794 68.3045 38.3329 67.8348Z" fill="#AF4E4A"/>
<path d="M36.8261 64.1308C36.7514 64.1414 36.6767 64.1308 36.6019 64.0988L34.6591 63.2661C34.531 63.2127 34.435 63.0846 34.4136 62.9459C34.3923 62.8071 34.4563 62.6576 34.5737 62.5723C35.8974 61.5475 36.6019 60.1491 36.7834 58.1422C36.8048 57.918 36.9969 57.7579 37.2211 57.7793C37.4453 57.8006 37.6054 57.9927 37.584 58.2169C37.4026 60.1918 36.7621 61.6542 35.5772 62.7751L36.9222 63.3515C37.125 63.4369 37.2211 63.6824 37.1357 63.8853C37.0716 64.024 36.9542 64.1094 36.8261 64.1308Z" fill="#AF4E4A"/>
<path d="M41.3441 51.9647C40.7049 52.167 40.2634 51.2739 40.7906 50.8412C41.0673 50.618 41.4561 50.4575 41.9832 50.4784C44.2763 50.59 45.3965 52.5508 45.3965 52.5508C45.3965 52.5508 43.1825 51.7204 42.0162 51.8321C41.746 51.853 41.5286 51.9088 41.3441 51.9647Z" fill="#2B2B39"/>
<path d="M33.0287 54.2614C33.7179 54.2332 33.8749 53.2295 33.2198 52.9962C32.8786 52.8761 32.4487 52.8478 31.9369 53.0528C29.7123 53.9363 29.8352 55.668 29.8352 55.668C29.8352 55.668 31.1453 54.6572 32.3259 54.3675C32.6056 54.2897 32.8308 54.2685 33.0287 54.2614Z" fill="#2B2B39"/>
<g opacity="0.5">
<g opacity="0.5">
<g opacity="0.5">
<g opacity="0.5">
<path opacity="0.5" d="M41.7435 61.8884C41.8076 62.4969 43.3661 62.8278 45.2235 62.625C47.0809 62.4328 48.5327 61.7817 48.4687 61.1732C48.4046 60.5647 46.8461 60.2338 44.9887 60.4366C43.1312 60.6395 41.6795 61.2906 41.7435 61.8884Z" fill="#AF4E4A"/>
</g>
</g>
</g>
</g>
<path d="M56.1836 63.7369H56.1622L56.0662 63.7476C56.0128 63.9611 55.9594 64.1746 55.8847 64.3881C55.8527 64.4842 55.8313 64.5802 55.7993 64.6656C55.7993 64.6763 55.7886 64.687 55.7886 64.687C55.2442 64.6656 54.561 64.5482 53.8992 64.1959C53.5149 63.9824 53.1413 63.6942 52.821 63.2886C52.6502 63.0751 52.6929 62.7762 52.9064 62.6054C53.1199 62.4346 53.4188 62.4773 53.5896 62.6908C53.9526 63.1498 54.4116 63.406 54.8599 63.5554C55.1695 63.6515 55.4684 63.6942 55.7353 63.7156C55.9061 63.7369 56.0555 63.7369 56.1836 63.7369Z" fill="#AF4E4A"/>
<path d="M55.3993 61.0116C55.5915 60.9582 55.7302 60.7874 55.7409 60.5739C55.9651 57.1473 59.7867 55.1938 59.8294 55.1831C60.0642 55.0657 60.171 54.7775 60.0429 54.532C59.9254 54.2971 59.6372 54.1904 59.3917 54.3185C59.2102 54.4039 55.0364 56.5282 54.7695 60.5205C54.7481 60.7874 54.951 61.0223 55.2178 61.0329C55.2926 61.0329 55.3459 61.0223 55.3993 61.0116Z" fill="#AF4E4A"/>
<path d="M59.3529 58.6206C59.4063 58.5992 59.4703 58.5779 59.513 58.5352C59.7265 58.3644 59.7585 58.0655 59.5877 57.852C59.545 57.7986 58.4562 56.4536 56.5134 56.7738C56.2465 56.8165 56.0757 57.0621 56.1184 57.3289C56.1611 57.5958 56.4066 57.7666 56.6735 57.7239C58.0612 57.4997 58.8298 58.4391 58.8405 58.4498C58.9579 58.6206 59.1714 58.674 59.3529 58.6206Z" fill="#AF4E4A"/>
<path d="M40.5678 57.8675C40.7066 58.7749 41.2083 59.4474 41.678 59.3727C42.1477 59.298 42.4146 58.508 42.2758 57.6007C42.137 56.6933 41.6353 56.0208 41.1656 56.0955C40.6959 56.1702 40.4184 56.9708 40.5678 57.8675Z" fill="#2B2B39"/>
<path d="M43.9629 56.0128C44.0056 55.9808 44.0376 55.9488 44.059 55.8954C44.1017 55.7673 44.0376 55.6285 43.9202 55.5858C43.8135 55.5431 41.3369 54.6465 39.7891 56.4398C39.7037 56.5466 39.7143 56.696 39.8104 56.7814C39.9172 56.8668 40.0666 56.8561 40.152 56.7601C41.4757 55.2229 43.7174 56.0342 43.7387 56.0449C43.8241 56.0662 43.9095 56.0555 43.9629 56.0128Z" fill="#2B2B39"/>
<path d="M32.3003 59.1546C32.439 60.062 32.9407 60.7345 33.4104 60.6598C33.8801 60.5851 34.147 59.7951 34.0082 58.8878C33.8695 57.9804 33.3677 57.3079 32.898 57.3826C32.4177 57.4573 32.1615 58.2473 32.3003 59.1546Z" fill="#2B2B39"/>
<path d="M35.4377 57.2264C35.4804 57.1944 35.5124 57.1517 35.5231 57.109C35.5658 56.9809 35.4911 56.8422 35.363 56.7995C35.2562 56.7674 32.737 55.9882 31.2852 57.8563C31.1998 57.963 31.2211 58.1125 31.3279 58.1979C31.4346 58.2833 31.5841 58.2619 31.6695 58.1552C32.9184 56.5539 35.2029 57.2585 35.2242 57.2691C35.2989 57.2905 35.3736 57.2691 35.4377 57.2264Z" fill="#2B2B39"/>
<path d="M64.9537 117.804C65.1032 117.868 65.3167 117.964 65.5088 118.05L66.0853 118.317L67.2595 118.861L69.6186 119.961C71.1878 120.697 72.757 121.412 74.3156 122.117C77.4326 123.526 80.539 124.86 83.56 125.981C84.3179 126.259 85.0544 126.536 85.791 126.782C86.5276 127.027 87.2535 127.252 87.958 127.454C88.6625 127.657 89.3457 127.828 89.9862 127.967C90.6267 128.106 91.2352 128.212 91.7476 128.266C92.2599 128.319 92.6976 128.319 92.9325 128.298C93.0392 128.276 93.1139 128.266 93.0819 128.255C93.0819 128.255 93.0392 128.244 92.9965 128.255C92.9858 128.255 92.9325 128.255 92.9004 128.266C92.8791 128.266 92.8684 128.276 92.8471 128.276L92.6869 128.319C92.4307 128.404 92.0785 128.522 91.7155 128.725C91.3526 128.917 90.9363 129.194 90.5626 129.525C90.1784 129.856 89.8368 130.251 89.5592 130.646C89.2817 131.041 89.0788 131.415 88.9294 131.767C88.78 132.098 88.6946 132.386 88.6412 132.621C88.5878 132.835 88.5558 133.027 88.5451 133.144C88.5131 133.39 88.5131 133.464 88.5024 133.432C88.4811 133.368 88.3957 132.973 88.2462 132.504C88.0968 132.013 87.8833 131.436 87.6377 130.817C87.1254 129.579 86.4955 128.202 85.7696 126.814C85.0544 125.416 84.2752 123.985 83.4425 122.555C82.6313 121.114 81.7559 119.672 80.8806 118.221C79.1086 115.328 77.2618 112.414 75.383 109.499L72.5542 105.123L69.7574 100.799L69.672 100.671C67.1101 96.7109 68.2523 91.4269 72.2126 88.8649C75.7887 86.5592 80.4536 87.2637 83.2077 90.338L83.7094 90.8931L84.1791 91.4269L85.0971 92.4837C85.7056 93.1882 86.2927 93.9034 86.8798 94.6293C88.0541 96.0704 89.1963 97.5222 90.3171 99.006C92.5588 101.974 94.7258 105.016 96.7861 108.197C97.8215 109.777 98.8143 111.41 99.7964 113.075C100.768 114.751 101.718 116.47 102.625 118.274C103.522 120.089 104.397 121.968 105.187 124.081C105.582 125.138 105.956 126.259 106.287 127.508C106.618 128.767 106.916 130.134 107.045 131.863C107.109 132.728 107.13 133.699 107.013 134.841C106.959 135.407 106.863 136.037 106.703 136.688C106.543 137.361 106.329 138.076 106.009 138.823C105.689 139.581 105.283 140.36 104.739 141.129C104.205 141.887 103.565 142.623 102.849 143.253C102.134 143.883 101.366 144.417 100.597 144.822C99.8391 145.228 99.0812 145.538 98.3873 145.751L98.1204 145.836L97.9923 145.868L97.8963 145.89L97.512 145.986C97.2664 146.05 96.9889 146.114 96.754 146.157L96.0282 146.285C95.7826 146.328 95.5691 146.349 95.3343 146.37C94.4163 146.477 93.5943 146.488 92.8044 146.477C91.2458 146.434 89.8901 146.231 88.6412 145.986C86.1539 145.474 84.051 144.737 82.0655 143.947C80.0906 143.157 78.2652 142.26 76.5039 141.332C72.9919 139.464 69.7681 137.393 66.6831 135.183C65.1352 134.083 63.6407 132.931 62.1676 131.756C61.431 131.159 60.7052 130.561 59.9899 129.942C59.627 129.632 59.2747 129.312 58.9225 129.002L58.3887 128.522L57.8336 128.01C55.293 125.672 55.1329 121.722 57.4707 119.192C59.2854 117.228 62.0609 116.684 64.3986 117.623L64.9537 117.804Z" fill="#E69773"/>
<path d="M26.7341 87.0128L60.4609 91.9414L54.0551 135.777L20.3282 130.848L26.7341 87.0128Z" fill="#5F5F75"/>
<path d="M28.2751 87.2393L62.002 92.168L55.5961 136.003L21.8693 131.075L28.2751 87.2393Z" fill="#2B2B39"/>
<path d="M53.4863 90.9562C53.4863 90.9562 52.9846 88.2021 50.508 87.9139C50.508 87.9139 50.3906 85.3519 48.1809 84.5833C45.9712 83.8147 43.6548 83.6333 42.0536 83.8468C40.463 84.0603 39.7371 86.2059 39.7371 86.2059C39.7371 86.2059 38.0825 86.0991 37.1965 86.7396C36.3105 87.3801 36.1184 88.4156 36.1184 88.4156L53.4863 90.9562Z" fill="#5F5F75"/>
<path d="M65.2713 127.71C62.6879 129.738 58.9518 129.119 56.8381 126.611C55.7173 125.287 54.3723 123.931 53.0379 123.195C49.8248 121.412 45.5442 120.206 44.1778 118.85C42.1602 116.843 45.2239 116.726 45.6082 116.758C48.0528 116.993 51.3726 117.9 51.3726 117.9C51.3726 117.9 45.9498 114.836 43.5053 114.569C41.0607 114.303 39.8652 112.445 42.2883 111.388C44.7115 110.331 51.394 112.466 53.0806 113.566C53.0806 113.566 50.2197 110.812 46.9319 110.342C43.6334 109.872 42.5232 109.264 41.4557 108.431C40.3989 107.599 42.267 105.645 46.8465 106.424C51.426 107.204 52.9845 108.645 54.7886 110.022C54.7886 110.022 53.8492 108.442 51.7889 106.243C49.7287 104.044 45.8751 103.798 45.3413 102.069C44.7969 100.308 49.2163 100.778 51.5434 102.133C53.8705 103.489 55.6639 104.268 57.7562 107.001C59.8484 109.723 61.7486 112.402 62.6025 114.335C63.4565 116.267 67.4169 122.736 66.7337 125.714C66.5522 126.472 65.9971 127.144 65.2713 127.71Z" fill="#E69773"/>
<path d="M65.0977 119.631C65.0977 119.631 64.628 113.194 63.4004 111.39C62.1728 109.586 61.2867 106.213 60.0058 106.939C58.7248 107.665 59.9417 111.774 59.9417 111.774L65.0977 119.631Z" fill="#E69773"/>
<path d="M78.2056 115.091C78.0348 115.208 77.8 115.166 77.6719 114.995C77.6078 114.909 71.2777 106.7 68.7584 102.815C68.641 102.633 68.6944 102.388 68.8758 102.26C69.0573 102.142 69.3028 102.196 69.4309 102.377C71.9395 106.231 78.2483 114.418 78.3124 114.504C78.4512 114.674 78.4191 114.931 78.2377 115.059C78.227 115.08 78.2163 115.091 78.2056 115.091Z" fill="#AF4E4A"/>
<path d="M71.7081 106.615C71.6121 106.679 71.484 106.701 70.171 106.263L67.1607 105.27C68.1427 105.601 68.036 105.366 68.1 105.163C68.1748 104.95 68.3989 104.843 68.6018 104.907L71.6121 105.9C71.8256 105.964 71.9323 106.199 71.8683 106.402C71.8362 106.498 71.7829 106.562 71.7081 106.615Z" fill="#AF4E4A"/>
</g>
<circle cx="50.4552" cy="122.455" r="16.9552" fill="white" stroke="#EA2424"/>
<path d="M41.6556 126.383H45.126C46.3654 126.383 47.171 125.103 46.6133 124.066C46.2415 123.335 46.5513 122.42 47.233 121.994C48.7823 121.079 52.0668 121.018 53.678 121.994C54.4217 122.359 54.6696 123.335 54.2977 124.066C53.74 125.103 54.5456 126.383 55.785 126.383H59.2554C60.185 126.322 60.9286 125.59 60.9286 124.737V122.42C60.8667 120.043 56.2808 118.092 50.4555 118.092C44.6302 118.092 39.9824 119.982 39.9824 122.42V124.737C40.0444 125.651 40.788 126.383 41.6556 126.383Z" fill="#EA2424"/>
<g clip-path="url(#clip1_501_53469)">
<circle cx="148.045" cy="101.065" r="41.0453" fill="#BCE1F7"/>
<path d="M73.2167 137.313L72.9876 138.845L72.7827 140.291C72.6501 141.256 72.5416 142.208 72.4331 143.173C72.2281 145.102 72.0593 147.031 71.9508 149.008C71.8423 150.973 71.7941 152.975 71.8302 155.036C71.8664 157.098 71.987 159.22 72.2884 161.474C72.6018 163.741 73.0479 166.128 74.0848 168.877C74.6152 170.251 75.2904 171.734 76.3634 173.35C76.906 174.158 77.5449 174.977 78.3407 175.809C79.1243 176.641 80.0768 177.473 81.186 178.221C82.2951 178.98 83.5852 179.631 84.9355 180.125C86.2978 180.608 87.7205 180.909 89.0829 181.042C91.8317 181.295 94.2068 180.897 96.1358 180.367C97.1124 180.101 98.0046 179.788 98.7882 179.462L99.813 178.968L100.778 178.45C102.043 177.738 103.177 176.991 104.238 176.219C105.299 175.448 106.263 174.664 107.179 173.868C108.096 173.072 108.94 172.265 109.747 171.457C111.363 169.841 112.798 168.202 114.136 166.55C116.812 163.259 119.091 159.943 121.201 156.591C123.299 153.24 125.216 149.876 127 146.464C127.892 144.764 128.76 143.04 129.592 141.304C130.014 140.436 130.424 139.568 130.834 138.676L131.437 137.337L132.076 135.879C134.764 129.73 131.955 122.556 125.806 119.868C119.658 117.179 112.484 119.988 109.796 126.137L109.663 126.426L109.229 127.415L108.735 128.512C108.397 129.248 108.048 129.995 107.686 130.743C106.962 132.226 106.227 133.709 105.455 135.167C103.924 138.085 102.309 140.942 100.609 143.655C98.9088 146.356 97.1244 148.936 95.2798 151.19C94.3635 152.324 93.4352 153.372 92.5189 154.277C92.2537 154.542 92.0005 154.795 91.7353 155.036C91.5303 154.349 91.3374 153.626 91.1686 152.89C90.8069 151.395 90.5055 149.828 90.2523 148.224C89.9991 146.621 89.7821 144.981 89.6013 143.329C89.5169 142.498 89.4325 141.678 89.3722 140.846L89.2034 138.471L89.1673 137.916C88.8417 133.491 84.9958 130.164 80.5831 130.489C76.7613 130.779 73.7592 133.672 73.2167 137.313Z" fill="#E9A48E"/>
<path d="M117.23 117.557L115.373 165.505C115.373 165.505 111.864 172.028 106.102 177.296C105.872 177.501 105.643 177.706 105.414 177.911C103.907 179.213 102.268 180.431 100.495 181.408C97.8188 182.891 94.7806 183.807 91.4048 183.698C88.3064 183.59 85.7022 182.891 83.5079 181.842C81.0846 180.684 79.1797 179.105 77.6847 177.465C77.4798 177.236 77.2748 176.995 77.0819 176.766C74.0075 173.04 72.9948 169.207 72.9948 169.207C72.9948 169.207 71.4757 168.953 69.9687 165.734C68.4496 162.515 72.187 160.852 72.187 160.852L72.6813 164.034C76.0089 163.962 90.2233 148.253 90.2233 148.253C90.2233 148.253 90.7779 147.626 91.1517 148.18C91.5254 148.735 91.1517 150.399 91.1517 150.399L91.5134 151.472L92.4899 154.305C92.4899 154.305 94.1296 151.773 96.3238 148.204C96.5167 147.891 96.7096 147.565 96.9146 147.24C99.4826 143.008 102.641 137.619 104.775 133.194C104.968 132.808 105.137 132.435 105.306 132.061C106.162 130.204 106.801 128.565 107.078 127.335C108.67 120.366 113.528 106.309 113.528 106.309L117.23 117.557Z" fill="#3278FF"/>
<path opacity="0.2" d="M110.391 158.901C109.028 162.24 105.484 162.59 103.145 160.07C101.698 158.515 100.649 156.525 99.6123 154.681C98.4549 152.619 97.3939 150.497 96.4415 148.339C96.4174 148.279 96.3933 148.231 96.3691 148.17C96.562 147.857 96.7549 147.531 96.9599 147.206C97.2975 148.014 97.6592 148.809 98.0329 149.605C99.118 151.908 100.336 154.162 101.662 156.333C102.855 158.298 104.977 162.083 107.823 160.588C110.487 159.178 110.162 155.296 110.005 152.764C109.836 149.991 109.354 147.242 108.667 144.554C107.678 140.659 106.292 136.898 104.821 133.172C105.014 132.787 105.182 132.413 105.351 132.039C107.099 136.403 108.763 140.816 109.824 145.41C110.367 147.736 110.752 150.099 110.909 152.487C111.042 154.572 111.198 156.911 110.391 158.901Z" fill="white"/>
<path d="M192.731 162.987C192.743 163.53 192.671 164.518 192.598 165.049C191.815 170.571 191.043 172.222 190.778 176.273C190.657 178.058 190.127 180.276 189.946 182.072C189.789 183.664 189.488 185.617 189.114 187.92C188.728 190.319 188.258 193.092 187.764 196.239C187.607 197.275 187.438 198.348 187.281 199.47C187.233 199.783 187.197 200.097 187.149 200.41C187.064 201.001 186.98 201.616 186.896 202.231L186.872 205.859C186.028 212.093 185.594 218.121 185.015 222.871C184.979 223.184 184.942 223.486 184.906 223.787C184.569 226.404 184.159 228.574 183.592 230.117C183.568 230.129 183.544 230.141 183.52 230.153C183.508 230.153 183.508 230.165 183.496 230.165C183.46 230.189 183.423 230.201 183.387 230.213C183.339 230.237 183.303 230.249 183.267 230.274C183.243 230.286 183.231 230.286 183.218 230.298C183.182 230.322 183.146 230.334 183.122 230.346C183.098 230.358 183.074 230.37 183.062 230.37C183.074 230.358 183.074 230.358 183.086 230.358C183.001 230.394 182.953 230.418 182.953 230.418C182.953 230.418 182.953 230.406 182.965 230.406C182.941 230.418 182.917 230.43 182.893 230.442C182.604 230.575 182.157 230.768 181.892 230.876C181.868 230.888 181.844 230.901 181.82 230.901C179.324 231.974 176.78 232.878 174.2 233.625C171.234 234.493 168.232 235.168 165.206 235.651C164.64 235.747 164.085 235.832 163.518 235.904C163.47 235.904 163.434 235.916 163.386 235.916C161.517 236.181 159.648 236.374 157.767 236.495C157.068 236.543 156.369 236.579 155.67 236.603C153.15 236.712 150.642 236.712 148.159 236.591C147.857 236.579 147.556 236.567 147.254 236.543C144.469 236.386 141.72 236.109 139.032 235.699C138.743 235.651 138.453 235.615 138.164 235.566C138.116 235.554 138.067 235.554 138.019 235.542C137.573 235.47 137.139 235.398 136.693 235.313C135.234 235.06 133.799 234.759 132.389 234.433C131.895 234.325 131.412 234.204 130.93 234.083C125.613 232.745 120.658 230.937 116.282 228.767C115.956 228.61 115.643 228.441 115.329 228.284C115.1 228.164 114.871 228.055 114.654 227.935C114.594 227.898 114.545 227.874 114.485 227.85C113.038 227.067 111.664 226.247 110.374 225.391C110.314 225.355 110.253 225.306 110.193 225.27C108.481 224.125 106.926 222.919 105.527 221.665C105.901 219.326 106.323 216.843 106.757 214.42C106.854 213.889 106.95 213.359 107.034 212.84C107.3 211.369 107.565 209.935 107.806 208.596C107.806 208.584 107.806 208.584 107.806 208.572C108.373 205.763 108.915 202.845 109.446 199.928C109.458 199.867 109.47 199.831 109.47 199.831C109.651 198.879 109.819 197.926 109.988 196.986C110.097 196.395 110.193 195.817 110.302 195.238C111.278 189.668 112.134 184.375 112.773 180.192C112.846 179.709 112.918 179.251 112.99 178.805C113.147 177.78 113.28 176.84 113.4 175.996C113.665 174.175 113.894 172.391 114.099 170.667C114.304 168.967 114.485 167.315 114.642 165.712C114.823 163.879 114.98 162.095 115.1 160.359C115.172 159.431 115.233 158.514 115.293 157.61C115.317 157.2 115.341 156.778 115.365 156.368C115.389 155.982 115.414 155.597 115.426 155.223C115.426 155.138 115.438 155.042 115.438 154.958C115.462 154.536 115.474 154.114 115.486 153.692C115.546 152.281 115.582 150.907 115.619 149.568C115.679 146.566 115.655 143.769 115.582 141.141C115.57 140.683 115.558 140.225 115.534 139.779C115.365 135.233 115.028 131.243 114.642 127.758C114.594 127.337 114.558 126.927 114.509 126.529C113.629 118.957 112.58 113.858 112.701 110.421C112.725 109.807 112.773 109.252 112.882 108.746C113.063 107.829 113.316 107.022 113.629 106.286C113.943 105.563 114.316 104.924 114.75 104.345C116.27 102.332 118.464 101.198 120.947 100.33C121.237 100.234 121.514 100.137 121.815 100.041C122.599 99.7878 123.407 99.5587 124.227 99.3296C124.516 99.2452 124.817 99.1608 125.107 99.0764C126.011 98.8233 126.939 98.558 127.856 98.2687C127.868 98.2687 127.868 98.2687 127.88 98.2687C128.579 98.0396 129.278 97.7985 129.954 97.5332C130.243 97.4247 130.532 97.3042 130.822 97.1836C131.099 97.063 131.376 96.9425 131.641 96.8099C131.991 96.6411 132.353 96.4602 132.69 96.2673C134.511 95.2666 136.211 93.9404 137.645 92.0717C137.658 92.0597 137.67 92.0476 137.682 92.0235C137.85 91.8065 138.019 91.5653 138.188 91.3242H159.214C159.214 91.3242 160.456 92.3249 162.686 93.5788C162.94 93.7234 163.205 93.8681 163.482 94.0128C163.639 94.0972 163.808 94.1816 163.977 94.266C164.157 94.3624 164.338 94.4468 164.531 94.5433C164.64 94.5915 164.76 94.6518 164.869 94.7C165.58 95.0376 166.364 95.3752 167.208 95.7007C167.943 95.978 168.727 96.2553 169.571 96.5205C169.836 96.6049 170.101 96.6893 170.378 96.7616C170.933 96.9184 171.5 97.0751 172.09 97.2077C172.404 97.2801 172.717 97.3524 173.031 97.4247C173.742 97.5815 174.49 97.7141 175.261 97.8346C176.756 98.0758 178.167 98.5339 179.457 99.197C179.734 99.3296 179.999 99.4864 180.277 99.6431C181.181 100.186 182.037 100.837 182.833 101.584C183.267 101.994 183.689 102.44 184.086 102.91C184.569 103.477 185.039 104.092 185.473 104.755C186.028 105.599 186.558 106.503 187.04 107.492C187.209 107.829 187.366 108.167 187.511 108.505C189.488 112.965 190.705 118.716 191.127 125.588C191.356 129.326 191.598 132.955 191.827 136.511C191.851 136.921 191.875 137.319 191.911 137.729C191.995 139.067 192.08 140.406 192.164 141.732C192.309 144.179 192.442 146.603 192.562 148.99C192.586 149.484 192.61 149.978 192.634 150.473C192.683 151.582 192.719 152.583 192.731 153.523C192.779 155.934 192.731 158.02 192.755 160.757C192.731 161.082 192.731 162.698 192.731 162.987Z" fill="#3278FF"/>
<path opacity="0.2" d="M180.24 99.649C178.95 101.337 177.539 102.916 176.008 104.411C174.405 105.979 172.705 107.437 170.884 108.739C169.184 109.957 167.038 111.199 164.856 110.825C160.817 110.126 160.347 105.147 160.54 101.867C160.721 98.9618 161.444 96.1647 162.65 93.5605C162.903 93.7052 163.168 93.8499 163.445 93.9946C162.384 96.3094 161.721 98.793 161.504 101.349C161.191 105.038 161.962 111.416 167.315 109.644C169.413 108.956 171.258 107.353 172.922 105.954C174.405 104.701 175.815 103.338 177.129 101.916C177.937 101.035 178.709 100.119 179.432 99.1788C179.709 99.3355 179.975 99.4923 180.24 99.649Z" fill="white"/>
<path d="M178.462 228.805C178.655 228.805 178.836 228.673 178.884 228.48C192.869 177.433 184.249 124.638 184.164 124.12C184.128 123.879 183.911 123.71 183.658 123.758C183.417 123.794 183.26 124.023 183.296 124.265C183.381 124.795 191.965 177.397 178.04 228.251C177.98 228.48 178.112 228.721 178.353 228.793C178.389 228.793 178.426 228.805 178.462 228.805Z" fill="#005DBD"/>
<path d="M127.903 67.6661C127.903 67.6661 123.466 68.3172 122.381 64.9534C121.284 61.6018 125.142 59.0579 120.705 55.5616C116.268 52.0652 112.29 44.4335 117.631 40.3585C122.972 36.2835 124.888 42.9988 129.325 37.7543C133.75 32.5219 137.053 31.8105 141.044 31.8105C145.264 31.8105 148.748 36.9707 154.728 36.6693C160.708 36.3678 164.952 43.9754 162.601 48.0384C159.695 53.0659 160.611 51.7397 160.877 56.3693C161.13 60.999 157.694 64.3506 154.185 63.8684C150.665 63.3741 127.903 67.6661 127.903 67.6661Z" fill="#2B2B39"/>
<path d="M159.396 89.9326C158.612 93.658 153.042 98.155 149.919 99.1918C145.073 100.807 140.069 100.337 136.115 98.2876L135.464 90.9453L135.331 89.4503L135.078 86.605L151.945 73.3913L152.922 72.6317L153.573 72.1133L153.862 72.7402L154.187 73.4636L154.127 73.7771C156.02 80.7939 156.321 85.0136 159.396 89.9326Z" fill="#E9A48E"/>
<path opacity="0.5" d="M135.831 95.9542C142.848 93.6393 146.368 87.8161 147.743 84.1992C144.463 87.3459 140.388 89.5643 136.518 89.5161C136.096 89.5161 135.698 89.4799 135.312 89.4317L135.831 95.9542Z" fill="#B6665E"/>
<path d="M154.571 74.4301C154.535 74.4421 154.499 74.4421 154.462 74.4542C154.414 74.6953 154.366 74.9364 154.306 75.1896C154.282 75.2981 154.257 75.4066 154.221 75.5151C154.101 75.9612 153.956 76.4073 153.799 76.8534C151.219 83.7978 143.009 91.1522 135.835 90.8026C135.413 90.7785 135.003 90.7423 134.618 90.67C127.649 89.5367 125.346 81.8688 125.72 75.913C125.732 75.6839 125.744 75.4669 125.768 75.2499C125.768 75.2499 125.72 74.852 125.636 74.1407C125.563 73.5861 125.467 72.8145 125.346 71.9223C124.973 69.2338 124.37 65.2672 123.538 61.373C122.079 54.5492 125.961 44.0601 139.85 40.6723C150.918 37.9596 156.946 43.7587 158.972 49.8954C159.49 51.4627 159.743 53.0542 159.755 54.525C159.779 56.3455 159.454 58.4675 158.972 60.6255C160.31 60.6376 161.781 61.2645 162.697 63.5552C164.397 67.7991 159.538 73.5861 154.571 74.4301Z" fill="#E9A48E"/>
<path d="M129.897 62.2826C130.966 61.9762 130.898 60.6516 129.81 60.6153C129.242 60.5985 128.561 60.7413 127.831 61.1955C124.635 63.1766 125.357 65.2902 125.357 65.2902C125.357 65.2902 127.087 63.5137 128.851 62.6726C129.236 62.4997 129.586 62.3759 129.897 62.2826Z" fill="#2B2B39"/>
<path d="M137.887 60.4119C136.84 60.7202 136.124 59.3224 136.983 58.6475C137.43 58.2924 138.059 58.038 138.92 58.0801C142.659 58.2544 144.482 61.3318 144.482 61.3318C144.482 61.3318 140.869 60.0334 138.97 60.207C138.541 60.2495 138.18 60.3255 137.887 60.4119Z" fill="#2B2B39"/>
<path d="M158.96 60.635C156.453 62.3711 154.849 62.6966 154.849 62.6966L152.064 66.3738L148.785 64.493C148.785 64.493 150.075 60.2492 147.857 58.9953C145.65 57.7294 146.579 54.9685 146.579 54.9685C146.579 54.9685 155.464 49.7722 158.96 49.9048C159.479 51.4722 159.732 53.0636 159.744 54.5345C159.756 56.355 159.443 58.4769 158.96 60.635Z" fill="#2B2B39"/>
<path d="M123.141 53.3655C123.141 53.3655 132.605 46.1317 138.428 48.2777C144.263 50.4237 146.566 54.9569 146.566 54.9569C146.566 54.9569 157.513 56.3554 159.888 53.4619C162.263 50.5563 158.357 39.7418 149.918 38.1021C141.49 36.4745 129.265 39.8141 123.141 53.3655Z" fill="#2B2B39"/>
<path d="M127.926 67.8112C128.107 68.7877 128.662 69.499 129.18 69.4026C129.686 69.3061 129.952 68.4381 129.771 67.4615C129.59 66.485 129.035 65.7736 128.517 65.8701C127.999 65.9665 127.733 66.8346 127.926 67.8112Z" fill="#2B2B39"/>
<path d="M130.885 66.6098C130.933 66.5857 130.982 66.5495 131.006 66.5013C131.078 66.3687 131.03 66.212 130.897 66.1396C130.789 66.0794 128.269 64.729 126.328 66.429C126.219 66.5254 126.207 66.6942 126.304 66.8027C126.4 66.9112 126.569 66.9233 126.677 66.8268C128.341 65.3801 130.62 66.5978 130.644 66.6098C130.716 66.646 130.813 66.646 130.885 66.6098Z" fill="#2B2B39"/>
<g opacity="0.5">
<g opacity="0.5">
<g opacity="0.5">
<g opacity="0.5">
<g opacity="0.5">
<g opacity="0.5">
<path opacity="0.5" d="M138.817 71.1637C138.901 71.8148 140.601 72.1282 142.615 71.8509C144.628 71.5736 146.183 70.8261 146.087 70.1751C146.002 69.5241 144.302 69.2106 142.289 69.4879C140.276 69.7652 138.72 70.5127 138.817 71.1637Z" fill="#B6665E"/>
</g>
</g>
</g>
</g>
</g>
</g>
<g opacity="0.5">
<g opacity="0.5">
<g opacity="0.5">
<g opacity="0.5">
<g opacity="0.5">
<g opacity="0.5">
<path opacity="0.5" d="M125.615 74.1318C126.99 73.7822 127.93 73.2035 127.87 72.6971C127.797 72.1908 126.748 71.8893 125.338 71.9135C125.446 72.8056 125.543 73.5652 125.615 74.1318Z" fill="#B6665E"/>
</g>
</g>
</g>
</g>
</g>
</g>
<path d="M150.804 74.0659C151.166 74.5 151.576 74.8014 151.998 75.0184C152.769 75.4042 153.589 75.5007 154.192 75.4886C154.216 75.3801 154.252 75.2716 154.264 75.1751C154.325 74.934 154.373 74.6808 154.421 74.4397C154.457 74.4397 154.494 74.4276 154.53 74.4276C154.373 74.4397 154.18 74.4518 153.963 74.4397C153.674 74.4276 153.348 74.3915 153.011 74.295C152.516 74.1503 152.01 73.8851 151.6 73.4029C151.419 73.1738 151.082 73.1497 150.865 73.3426C150.66 73.5114 150.623 73.8489 150.804 74.0659Z" fill="#B6665E"/>
<path d="M134.61 90.6486C134.996 90.7089 135.406 90.7571 135.828 90.7812C143.001 91.1308 151.211 83.7765 153.792 76.832C153.575 76.0122 153.08 75.2647 152.031 75.0236L152.067 66.3671L148.788 64.4863C148.788 64.4863 146.883 72.4073 144.231 73.0222C141.578 73.6491 135.357 73.2754 132.874 75.0477C132.874 75.0477 128.353 73.9264 125.712 75.8916C125.339 81.8354 127.641 89.5153 134.61 90.6486Z" fill="#2B2B39"/>
<path d="M138.048 74.9766C138.048 74.9766 138.494 79.6183 134.66 80.4381C130.827 81.2579 129.838 77.5205 129.838 77.5205L138.048 74.9766Z" fill="white"/>
<path d="M135.687 82.0563C136.41 81.7911 136.736 81.2003 136.76 81.1641C136.856 80.9953 136.784 80.7783 136.615 80.6819C136.446 80.5854 136.229 80.6578 136.145 80.8265C136.121 80.8627 135.699 81.5982 134.674 81.4655C134.481 81.4414 134.3 81.574 134.276 81.7669C134.252 81.9598 134.385 82.1407 134.578 82.1648C135.024 82.213 135.398 82.1648 135.687 82.0563Z" fill="#5F5F75"/>
<path d="M155.324 70.7624C155.529 70.6901 155.674 70.5092 155.686 70.2801C155.819 66.5547 159.906 64.3243 159.942 64.3002C160.195 64.1676 160.292 63.842 160.159 63.5889C160.026 63.3357 159.701 63.2392 159.448 63.3719C159.255 63.4683 154.794 65.9037 154.637 70.244C154.625 70.5333 154.854 70.7744 155.144 70.7865C155.204 70.7865 155.264 70.7744 155.324 70.7624Z" fill="#B6665E"/>
<path d="M159.531 68.0278C159.591 68.0037 159.651 67.9796 159.712 67.9313C159.929 67.7384 159.965 67.4129 159.772 67.1959C159.724 67.1356 158.494 65.713 156.396 66.1229C156.107 66.1832 155.926 66.4605 155.986 66.7378C156.046 67.0271 156.324 67.208 156.601 67.1477C158.096 66.8583 158.964 67.8469 158.976 67.859C159.109 68.0398 159.326 68.1001 159.531 68.0278Z" fill="#B6665E"/>
<path d="M132.353 73.8995C132.473 73.8633 132.582 73.7789 132.642 73.6584C132.787 73.4052 132.69 73.0797 132.437 72.947L129.375 71.223L131.774 70.15C131.919 70.0897 132.015 69.9691 132.063 69.8245L133.956 63.3984C134.04 63.1211 133.884 62.8318 133.594 62.7474C133.317 62.663 133.028 62.8197 132.943 63.1091L131.123 69.306L127.988 70.7046C127.807 70.789 127.687 70.9578 127.675 71.1627C127.663 71.3556 127.771 71.5485 127.94 71.645L131.919 73.8754C132.063 73.9357 132.22 73.9477 132.353 73.8995Z" fill="#B6665E"/>
<path d="M136.469 66.3131C136.65 67.2897 137.204 68.001 137.723 67.9045C138.229 67.8081 138.494 66.94 138.314 65.9635C138.133 64.9869 137.578 64.2756 137.06 64.372C136.553 64.4685 136.288 65.3365 136.469 66.3131Z" fill="#2B2B39"/>
<path d="M140.078 65.4234C140.126 65.4113 140.175 65.3752 140.211 65.3269C140.295 65.2064 140.271 65.0497 140.151 64.9653C140.054 64.8929 137.715 63.2412 135.581 64.6639C135.461 64.7482 135.424 64.905 135.509 65.0255C135.593 65.1461 135.75 65.1823 135.871 65.0979C137.703 63.8681 139.813 65.3631 139.837 65.3872C139.909 65.4355 140.006 65.4475 140.078 65.4234Z" fill="#2B2B39"/>
<path d="M233.133 171.067C232.952 172.417 232.687 173.502 232.397 174.479C231.963 175.926 231.469 177.107 230.975 178.168C230.806 178.518 230.637 178.867 230.468 179.193C230.119 179.892 229.757 180.555 229.395 181.182C229.239 181.447 229.082 181.713 228.925 181.978C228.756 182.255 228.576 182.532 228.407 182.81C227.02 185.016 225.574 186.957 224.115 188.802C222.656 190.646 221.161 192.382 219.63 194.046C218.87 194.878 218.099 195.698 217.327 196.506C216.555 197.314 215.76 198.097 214.964 198.881C214.168 199.664 213.36 200.436 212.553 201.196C212.143 201.581 211.733 201.955 211.311 202.329L209.997 203.486C207.381 205.801 203.535 206.5 200.159 204.945C195.601 202.847 193.612 197.458 195.722 192.901L196.313 191.599C196.349 191.526 196.421 191.406 196.482 191.321L196.674 191.008L197.06 190.369L197.832 189.079L199.375 186.487C199.894 185.631 200.388 184.763 200.894 183.895C201.401 183.039 201.895 182.183 202.377 181.327C203.342 179.615 204.27 177.915 205.114 176.251C205.958 174.587 206.729 172.948 207.332 171.453C207.405 171.284 207.453 171.127 207.525 170.97C207.308 170.681 207.079 170.38 206.838 170.066C206.307 169.379 205.729 168.656 205.126 167.908C204.137 166.69 203.101 165.437 202.027 164.183C201.798 163.917 201.581 163.652 201.352 163.387C201.316 163.351 201.292 163.315 201.256 163.278C199.99 161.796 198.7 160.301 197.386 158.806C196.048 157.274 194.685 155.731 193.311 154.2C193.106 153.971 192.901 153.73 192.696 153.501C190.164 150.655 187.608 147.822 185.028 144.977L176.721 135.814L176.661 135.754L176.058 135.091L172.477 131.136L171.332 129.87C171.621 128.99 171.923 128.122 172.224 127.254C172.357 126.856 172.501 126.446 172.646 126.048C173.273 124.264 173.924 122.492 174.575 120.707C174.648 120.515 174.72 120.322 174.792 120.117C174.889 119.864 174.973 119.622 175.069 119.369C176.36 115.885 177.698 112.425 179.024 108.953C179.747 107.072 180.471 105.191 181.182 103.298C181.315 102.961 181.447 102.611 181.58 102.273C182.412 102.406 183.232 102.611 184.039 102.9C185.51 103.407 186.921 104.154 188.199 105.155C188.452 105.348 188.693 105.553 188.934 105.77C189.344 106.131 189.742 106.529 190.116 106.939L190.152 106.975C190.887 107.795 191.587 108.579 192.286 109.387C192.985 110.182 193.684 110.99 194.384 111.786L196.457 114.197L198.399 116.488L198.519 116.632C198.712 116.861 198.905 117.079 199.086 117.308C201.642 120.322 204.149 123.384 206.669 126.446C209.346 129.75 212.01 133.089 214.65 136.477C214.988 136.911 215.338 137.357 215.675 137.803C215.904 138.093 216.133 138.382 216.35 138.683C217.098 139.648 217.845 140.625 218.581 141.613C219.582 142.939 220.57 144.278 221.559 145.628C221.764 145.893 221.957 146.17 222.15 146.448C222.258 146.592 222.354 146.725 222.463 146.87C223.753 148.654 225.031 150.475 226.321 152.379C226.972 153.332 227.611 154.309 228.262 155.357C228.925 156.406 229.588 157.491 230.312 158.793L230.589 159.312L230.625 159.372L230.878 159.866L231.18 160.457C231.288 160.686 231.385 160.879 231.505 161.132C231.614 161.361 231.734 161.639 231.855 161.916C231.988 162.217 232.108 162.519 232.253 162.917L232.361 163.206L232.47 163.544L232.578 163.881L232.699 164.291C232.856 164.834 232.976 165.424 233.061 165.943C233.41 168.089 233.302 169.717 233.133 171.067Z" fill="#3278FF"/>
<path opacity="0.2" d="M121.124 117.406C119.617 121.276 117.351 124.713 114.59 127.763C114.541 127.341 114.505 126.931 114.457 126.533C116.736 123.905 118.641 120.987 120.003 117.732C122.282 112.295 122.752 105.905 120.895 100.323C121.184 100.226 121.462 100.13 121.763 100.033C123.608 105.603 123.258 111.909 121.124 117.406Z" fill="white"/>
<path opacity="0.2" d="M188.942 105.785C188.664 106.376 188.363 106.966 188.038 107.545C187.857 107.871 187.664 108.196 187.471 108.522C184.384 113.658 179.875 117.938 174.583 120.723C173.799 121.133 172.991 121.518 172.171 121.868C164.287 125.22 155.57 125.256 147.179 126.003C138.751 126.751 130.794 128.644 123.765 133.526C120.679 135.672 117.906 138.24 115.531 141.134C115.519 140.676 115.507 140.218 115.482 139.772C117.677 137.24 120.172 134.961 122.921 132.996C129.19 128.535 136.352 126.305 143.935 125.413C152.628 124.388 161.634 124.713 169.989 121.735C171.761 121.108 173.461 120.313 175.077 119.384C180.008 116.563 184.167 112.428 187.001 107.497C187.157 107.22 187.314 106.942 187.459 106.665C187.724 106.171 187.977 105.664 188.206 105.17C188.459 105.363 188.713 105.568 188.942 105.785Z" fill="white"/>
<path d="M114.622 120.211C114.658 120.513 114.899 122.936 115.176 126.372C115.213 126.878 115.261 127.397 115.297 127.951C115.719 133.413 116.141 140.695 116.008 146.253C115.996 146.759 115.345 146.94 115.068 146.518L115.056 146.506C115.213 140.972 114.767 133.485 114.345 127.927C114.345 127.891 114.333 127.867 114.345 127.831C114.007 123.515 113.694 120.392 113.694 120.308C113.669 120.042 113.85 119.813 114.116 119.789C114.369 119.765 114.598 119.946 114.622 120.211Z" fill="#005DBD"/>
<path d="M147.566 117.616C147.566 117.616 146.553 110.648 146.927 105.331C147.3 100.026 148.494 96.5419 148.494 96.5419C148.494 96.5419 155.812 93.2867 158.296 88.2109C158.296 88.2109 166.229 90.0917 167.157 95.71C167.169 95.71 157.199 113.795 147.566 117.616Z" fill="#005DBD"/>
<path d="M135.603 92.3754C135.603 92.3754 130.684 91.7726 130.636 98.4638C130.539 111.762 139.208 115.463 139.208 115.463L141.064 108.627C142.161 103.913 142.234 101.177 142.294 98.2468C142.294 98.2468 135.711 97.8369 135.603 92.3754Z" fill="#005DBD"/>
<path d="M145.311 107.706C145.311 108.489 144.672 109.116 143.901 109.116C143.117 109.116 142.49 108.477 142.49 107.706C142.49 106.922 143.129 106.295 143.901 106.295C144.684 106.295 145.311 106.922 145.311 107.706Z" fill="#005DBD"/>
<path d="M144.841 113.321C144.841 114.104 144.202 114.731 143.43 114.731C142.646 114.731 142.02 114.092 142.02 113.321C142.02 112.537 142.659 111.91 143.43 111.91C144.202 111.91 144.841 112.537 144.841 113.321Z" fill="#005DBD"/>
<path d="M144.63 118.383C144.63 119.167 144.003 119.794 143.219 119.794C142.436 119.794 141.809 119.155 141.809 118.383C141.809 117.6 142.448 116.973 143.219 116.973C144.003 116.973 144.63 117.612 144.63 118.383Z" fill="#005DBD"/>
<path opacity="0.2" d="M177.057 124.286C170.631 126.661 164.205 129.88 159.925 135.402C156.115 140.321 154.186 147 156.658 152.956C157.67 155.403 159.322 157.585 161.492 159.117C163.783 160.744 166.363 161.178 169.1 161.431C172.247 161.733 176.515 162.227 176.635 166.29C176.732 169.569 174.368 172.451 174.007 175.682C173.356 181.373 179.565 186.195 184.93 184.471C185.496 184.29 185.255 183.398 184.689 183.579C181.843 184.483 178.829 183.41 176.852 181.252C174.706 178.913 174.573 176.164 175.55 173.271C176.394 170.799 177.925 168.183 177.491 165.482C177.178 163.541 175.815 162.094 174.019 161.383C171.583 160.431 168.871 160.648 166.327 160.165C163.457 159.623 160.974 157.947 159.226 155.62C155.295 150.352 155.934 143.443 159.238 138.018C163.24 131.447 170.318 127.758 177.31 125.166C177.853 124.961 177.612 124.069 177.057 124.286Z" fill="white"/>
<path opacity="0.2" d="M202.384 151.862C201.094 145.497 197.357 139.709 191.799 136.527C190.533 135.803 189.17 135.212 187.736 134.778C183.998 133.669 180.032 133.717 176.391 135.007C176.656 135.224 176.897 135.466 177.138 135.719C182.25 134.007 187.543 135.02 191.895 137.744C195.283 139.866 198.092 143.037 199.792 146.762C202.227 152.103 202.481 157.818 201.275 163.304C201.311 163.34 201.347 163.376 201.371 163.412C201.6 163.677 201.817 163.943 202.047 164.208C203.011 160.193 203.228 156.01 202.384 151.862Z" fill="white"/>
<path d="M185.949 146.959C186.082 146.959 186.202 146.911 186.311 146.827C186.54 146.634 186.564 146.284 186.359 146.055C186.311 145.995 181.247 140.196 176.244 134.65C176.039 134.433 175.701 134.409 175.472 134.614C175.255 134.819 175.231 135.156 175.436 135.385C180.427 140.919 185.491 146.718 185.539 146.766C185.648 146.899 185.804 146.959 185.949 146.959Z" fill="#005DBD"/>
<path d="M175.461 139.134L179.065 139.17C179.367 139.17 179.608 138.929 179.608 138.628C179.608 138.326 179.367 138.085 179.065 138.085L175.461 138.049C175.159 138.049 174.918 138.29 174.918 138.591C174.918 138.881 175.159 139.134 175.461 139.134Z" fill="#005DBD"/>
</g>
<circle cx="148.455" cy="142.852" r="16.9552" fill="white" stroke="#EA2424"/>
<path d="M139.656 146.779H143.126C144.365 146.779 145.171 145.499 144.613 144.463C144.241 143.731 144.551 142.817 145.233 142.39C146.782 141.476 150.067 141.415 151.678 142.39C152.422 142.756 152.67 143.731 152.298 144.463C151.74 145.499 152.546 146.779 153.785 146.779H157.255C158.185 146.719 158.929 145.987 158.929 145.133V142.817C158.867 140.439 154.281 138.488 148.456 138.488C142.63 138.488 137.982 140.378 137.982 142.817V145.133C138.044 146.048 138.788 146.78 139.656 146.779Z" fill="#EA2424"/>
<defs>
<clipPath id="clip0_501_53469">
<path d="M9.42578 0H91.5163V81.0644C91.5163 103.733 73.1397 122.11 50.4711 122.11C27.8024 122.11 9.42578 103.733 9.42578 81.0644V0Z" fill="white"/>
</clipPath>
<clipPath id="clip1_501_53469">
<path d="M107 20H189.091V101.064C189.091 123.733 170.714 142.11 148.045 142.11C125.377 142.11 107 123.733 107 101.064V20Z" fill="white"/>
</clipPath>
</defs>
</svg>
