<svg width="200" height="160" viewBox="0 0 200 160" fill="none" xmlns="http://www.w3.org/2000/svg">
<g clip-path="url(#clip0_501_53422)">
<rect x="100.783" y="-1" width="1.78378" height="198" fill="#D5EAF7"/>
<path d="M155.234 17.7305H191.383V50.2934H155.234V17.7305Z" fill="#F0C86A"/>
<path d="M115.053 8.81055H151.201V41.3735H115.053V8.81055Z" fill="white"/>
<path d="M118.467 14.9924H146.678C147.347 14.9924 147.891 14.4483 147.891 13.7794C147.891 13.1105 147.347 12.5664 146.678 12.5664H118.467C117.798 12.5664 117.254 13.1105 117.254 13.7794C117.263 14.4572 117.798 14.9924 118.467 14.9924Z" fill="#DAECF8"/>
<path d="M119.11 17.9355H135.931C136.591 17.9355 137.171 18.4439 137.189 19.1039C137.207 19.7907 136.663 20.3526 135.985 20.3526H119.11C118.441 20.3526 117.897 19.8085 117.897 19.1396C117.897 18.4796 118.441 17.9355 119.11 17.9355Z" fill="#DAECF8"/>
<path d="M168.576 42.6047C168.496 42.6047 168.425 42.5958 168.344 42.5869C167.952 42.5155 167.613 42.2658 167.435 41.918L164.839 36.9501C164.509 36.3169 164.75 35.5409 165.383 35.2109C166.016 34.8809 166.792 35.1217 167.122 35.755L168.951 39.2601L181.188 28.3969C181.723 27.9242 182.534 27.9688 183.007 28.5039C183.48 29.039 183.435 29.8507 182.9 30.3234L169.423 42.2836C169.192 42.4888 168.888 42.6047 168.576 42.6047Z" fill="white"/>
<path d="M51.7754 17.7305H87.9238V50.2934H51.7754V17.7305Z" fill="#EEC0B1"/>
<path d="M41.9374 45.6641L5.78906 45.6641L5.78906 13.1011L41.9374 13.1011L41.9374 45.6641Z" fill="white"/>
<path d="M155.188 73.0254H191.336V105.588H155.188V73.0254Z" fill="#07A085"/>
<path opacity="0.5" d="M159.155 78.6073H187.365C188.034 78.6073 188.578 78.0633 188.578 77.3944C188.578 76.7255 188.034 76.1814 187.365 76.1814H159.155C158.486 76.1814 157.942 76.7255 157.942 77.3944C157.942 78.0633 158.486 78.6073 159.155 78.6073Z" fill="white"/>
<path d="M112 70H148.148V102.563H112V70Z" fill="#F36D53"/>
<path opacity="0.5" d="M115.414 75.5822H143.625C144.294 75.5822 144.838 75.0381 144.838 74.3692C144.838 73.7003 144.294 73.1562 143.625 73.1562H115.414C114.745 73.1562 114.201 73.7003 114.201 74.3692C114.21 75.0381 114.745 75.5822 115.414 75.5822Z" fill="#F2EAE1" fill-opacity="0.5"/>
<path opacity="0.5" d="M116.058 78.5273H132.879C133.539 78.5273 134.118 79.0357 134.136 79.6957C134.154 80.3825 133.61 80.9444 132.932 80.9444H116.058C115.389 80.9444 114.845 80.4003 114.845 79.7314C114.845 79.0625 115.389 78.5273 116.058 78.5273Z" fill="#F2EAE1" fill-opacity="0.5"/>
<path d="M155.234 114.721H191.383V147.284H155.234V114.721Z" fill="white"/>
<path d="M109.703 114.053H145.852V146.616H109.703V114.053Z" fill="white"/>
<path d="M51.7754 78.8323H87.9238V111.395H51.7754V78.8323Z" fill="#F0C86A"/>
<path d="M51.7754 114.721H87.9238V147.284H51.7754V114.721Z" fill="white"/>
<path d="M55.7425 120.227H83.953C84.622 120.227 85.166 119.683 85.166 119.014C85.166 118.345 84.622 117.801 83.953 117.801H55.7425C55.0736 117.801 54.5295 118.345 54.5295 119.014C54.5295 119.692 55.0736 120.227 55.7425 120.227Z" fill="#DAECF8"/>
<path d="M41.3144 144.844H5.16602L5.16602 112.281H41.3144L41.3144 144.844Z" fill="#0080FF"/>
<path d="M17.8047 135.835C17.7244 135.835 17.653 135.826 17.5728 135.817C17.1803 135.746 16.8414 135.496 16.663 135.148L14.0676 130.181C13.7376 129.547 13.9785 128.771 14.6117 128.441C15.2449 128.111 16.0209 128.352 16.3509 128.985L18.1793 132.491L30.416 121.627C30.9512 121.155 31.7628 121.199 32.2355 121.734C32.7082 122.27 32.6636 123.081 32.1284 123.554L18.652 135.514C18.429 135.719 18.1168 135.835 17.8047 135.835Z" fill="white"/>
<rect y="65.8906" width="1.78378" height="346.946" transform="rotate(-90 0 65.8906)" fill="#D5EAF7"/>
<path d="M10.0684 60.666H46.2168V93.229H10.0684V60.666Z" fill="white"/>
<path d="M14.471 66.5627H42.6816C43.3505 66.5627 43.8945 66.0186 43.8945 65.3497C43.8945 64.6808 43.3505 64.1367 42.6816 64.1367H14.471C13.8021 64.1367 13.258 64.6808 13.258 65.3497C13.258 66.0186 13.8021 66.5627 14.471 66.5627Z" fill="#DAECF8"/>
<path d="M15.1123 69.5039H31.9334C32.5934 69.5039 33.1731 70.0123 33.191 70.6723C33.2088 71.359 32.6648 71.9209 31.9869 71.9209H15.1123C14.4434 71.9209 13.8994 71.3769 13.8994 70.708C13.9083 70.039 14.4523 69.5039 15.1123 69.5039Z" fill="#DAECF8"/>
</g>
<defs>
<clipPath id="clip0_501_53422">
<rect width="200" height="160" fill="white"/>
</clipPath>
</defs>
</svg>
