<svg width="200" height="160" viewBox="0 0 200 160" fill="none" xmlns="http://www.w3.org/2000/svg">
<g clip-path="url(#clip0_501_54668)">
<g clip-path="url(#clip1_501_54668)">
<circle cx="99.6757" cy="91.8244" r="67.6757" fill="#FAECD7"/>
<path d="M131.683 153.894L132.1 156.057L132.569 158.402L133.585 163.144C134.289 166.322 135.044 169.501 135.826 172.654C136.608 175.806 137.441 178.959 138.327 182.085C139.187 185.212 140.099 188.312 141.063 191.361C142.027 194.409 143.043 197.431 144.111 200.402C145.18 203.372 146.3 206.264 147.498 209.078C148.697 211.892 149.922 214.627 151.25 217.233C152.579 219.838 153.934 222.287 155.367 224.528C156.8 226.769 158.285 228.775 159.718 230.442C161.151 232.11 162.584 233.334 163.704 234.142C164.277 234.533 164.746 234.819 165.163 235.028C165.58 235.236 165.893 235.341 166.206 235.419C166.258 235.419 166.284 235.445 166.31 235.445L166.909 235.549L168.134 235.757L170.583 236.174L175.507 236.982L180.457 237.764L185.434 238.519C188.769 239.014 192.104 239.535 195.439 240.004L200.467 240.76C202.135 240.994 203.828 241.255 205.496 241.515L208.023 241.88L210.524 242.271C211.358 242.401 212.192 242.532 213.025 242.662C213.833 242.792 214.719 242.922 215.448 243.079L216.152 243.209C224.02 244.694 229.205 252.25 227.72 260.118C226.495 266.606 221.102 271.27 214.849 271.869L212.087 272.129C211.201 272.208 210.29 272.286 209.404 272.338C207.606 272.468 205.834 272.598 204.063 272.677L201.379 272.807L198.695 272.911C196.924 272.963 195.126 273.041 193.354 273.067C191.583 273.093 189.785 273.119 188.013 273.119C186.215 273.146 184.444 273.119 182.646 273.093C179.076 273.041 175.481 272.937 171.885 272.781C170.088 272.677 168.29 272.598 166.466 272.468L163.756 272.26L162.402 272.155L161.724 272.103L160.552 271.947C157.451 271.504 154.403 270.696 151.589 269.628C148.775 268.56 146.17 267.257 143.799 265.798C141.428 264.365 139.265 262.776 137.337 261.134C135.383 259.493 133.611 257.799 131.97 256.08C130.329 254.36 128.843 252.615 127.463 250.869C126.082 249.123 124.805 247.352 123.58 245.606C121.183 242.089 119.073 238.545 117.171 235.002C115.269 231.458 113.55 227.941 111.986 224.398C110.423 220.854 108.99 217.311 107.661 213.768C106.332 210.224 105.082 206.681 103.962 203.137C102.815 199.594 101.773 196.051 100.757 192.507C99.7668 188.964 98.8549 185.394 97.9951 181.825C97.1353 178.255 96.3536 174.686 95.6241 171.09C95.2593 169.293 94.9207 167.495 94.5819 165.671L94.113 162.909L93.8785 161.502L93.644 159.939C92.0286 149.439 99.2457 139.617 109.746 138.001C119.959 136.438 129.547 143.212 131.527 153.243L131.683 153.894Z" fill="#ED9168"/>
<path d="M90.4164 165.228C92.9177 173.905 103.339 203.659 112.485 218.562L152.686 199.568C152.686 199.568 138.956 167.782 131.791 147.798C129.446 141.284 124.365 136.074 117.826 133.833C113.422 132.322 108.081 132.009 102.193 134.797C90.6249 140.32 89.3743 153.087 89.5045 159.366C89.5827 161.346 89.8693 163.326 90.4164 165.228Z" fill="#9A96CD"/>
<path d="M130.13 146.151C130.208 154.358 121.298 169.261 115.513 201.465C115.357 202.272 115.227 203.08 115.07 203.888C114.758 205.659 114.471 207.483 114.185 209.385C114.08 210.115 113.976 210.87 113.872 211.652C113.611 213.528 113.351 215.482 113.116 217.488V217.514C113.038 218.166 112.96 218.843 112.882 219.494C112.595 222.022 112.335 224.601 112.1 227.285C111.892 229.63 111.709 232.053 111.527 234.528C111.449 235.778 111.371 237.055 111.293 238.332C111.214 239.66 111.162 240.989 111.084 242.344C110.433 256.752 109.599 290.467 110.772 309.382C84.8474 325.77 30.6542 326.786 -5.79592 299.612C-7.90633 286.741 -4.59742 242.839 -3.45103 229.76C-3.21654 227.154 -2.95599 224.575 -2.61728 221.97C-1.08007 209.489 1.44721 197.114 4.49557 184.243C4.67796 183.539 4.83427 182.836 5.01665 182.132C7.56999 171.554 10.462 160.611 13.4322 148.991C19.3205 125.985 29.8205 113.114 43.7335 113.531C50.195 113.74 55.4841 112.906 59.4964 111.864C59.9915 111.733 60.4344 111.603 60.9034 111.473C65.6713 110.092 68.5113 108.555 68.5113 108.555L98.6041 114.287C100.48 118.56 103.294 121.556 106.499 123.901C106.863 124.161 107.202 124.422 107.567 124.656C117.363 131.326 130 132.785 130.13 146.151Z" fill="#9A96CD"/>
<path d="M92.2308 141.649C93.3388 141.649 94.237 140.751 94.237 139.643C94.237 138.535 93.3388 137.637 92.2308 137.637C91.1228 137.637 90.2246 138.535 90.2246 139.643C90.2246 140.751 91.1228 141.649 92.2308 141.649Z" fill="#5C53B8"/>
<path d="M93.7429 149.645C93.7429 150.765 92.831 151.651 91.7367 151.651C90.6163 151.651 89.7305 150.739 89.7305 149.645C89.7305 148.525 90.6424 147.639 91.7367 147.639C92.831 147.639 93.7429 148.525 93.7429 149.645Z" fill="#5C53B8"/>
<path d="M93.1135 164.783C88.1632 163.194 83.291 160.172 78.6273 155.743C70.6025 148.161 65.8866 138.964 65.8345 138.885C65.6522 138.547 65.7824 138.104 66.1211 137.895C66.4598 137.687 66.8507 137.817 67.033 138.156C67.0851 138.234 71.7228 147.249 79.5913 154.674C90.0391 164.549 100.956 167.128 111.977 162.308C112.316 162.152 112.706 162.334 112.837 162.699C112.967 163.064 112.785 163.481 112.446 163.637C106.089 166.425 99.6532 166.816 93.348 164.862C93.2438 164.836 93.1917 164.81 93.1135 164.783Z" fill="#5C53B8"/>
<path d="M86.746 129.38C79.6592 128.025 72.5463 120.365 72.1555 119.948C71.895 119.661 71.921 119.218 72.1816 118.932C72.4421 118.645 72.859 118.645 73.1195 118.932C73.2498 119.062 85.1046 131.881 92.6603 127.087C92.973 126.878 93.3899 126.983 93.5723 127.347C93.7546 127.686 93.6244 128.129 93.3117 128.337C91.2534 129.588 88.9867 129.796 86.746 129.38Z" fill="#5C53B8"/>
<path d="M56.3611 142.326L56.5175 144.984L56.7259 147.85C56.8822 149.778 57.0125 151.706 57.1688 153.634C57.5075 157.49 57.8984 161.372 58.3413 165.228C58.5497 167.156 58.8103 169.084 59.0447 170.986C59.2792 172.914 59.5398 174.816 59.8264 176.718C60.3735 180.522 61.0249 184.3 61.7283 188.026C62.4318 191.751 63.1874 195.425 64.0732 199.047C64.5162 200.844 64.9591 202.616 65.4541 204.388C65.9231 206.133 66.4181 207.879 66.9653 209.573C68.0335 212.96 69.206 216.216 70.5087 219.213C71.8114 222.209 73.2184 224.971 74.6774 227.264C76.1364 229.556 77.6476 231.328 78.8461 232.37C79.4454 232.917 79.9664 233.256 80.3833 233.491C80.4354 233.517 80.4875 233.569 80.5396 233.569L80.6178 233.621L80.6438 233.647C80.6438 233.647 80.6438 233.647 80.6699 233.647L80.722 233.673C81.0347 233.803 81.3213 233.96 81.66 234.09L82.155 234.298L82.6761 234.507C83.0148 234.637 83.4056 234.767 83.7704 234.924C85.2555 235.471 86.8709 235.966 88.5383 236.487C90.2058 236.982 91.9515 237.451 93.7492 237.894C97.3187 238.806 101.044 239.613 104.822 240.343C108.6 241.072 112.456 241.776 116.338 242.427C118.266 242.74 120.22 243.053 122.175 243.365C124.129 243.678 126.083 243.99 128.063 244.277C131.997 244.85 135.957 245.423 139.918 245.919L151.694 247.456L152.033 247.508C159.953 248.55 165.529 255.793 164.487 263.714C163.575 270.774 157.687 275.959 150.834 276.272L149.167 276.35L147.552 276.402C146.483 276.428 145.415 276.48 144.373 276.506C142.263 276.559 140.126 276.611 138.016 276.611C133.795 276.637 129.548 276.611 125.301 276.48C123.191 276.428 121.054 276.35 118.918 276.272C116.781 276.168 114.671 276.063 112.534 275.907C108.262 275.621 103.963 275.308 99.6375 274.813C95.3125 274.344 90.9353 273.771 86.454 273.015C81.9726 272.233 77.4392 271.296 72.593 269.889C71.9938 269.706 71.3685 269.524 70.7432 269.341L69.8052 269.055L68.8412 268.716C68.2159 268.508 67.5645 268.273 66.9132 268.039L66.7829 267.987L66.6266 267.934L66.3139 267.804L65.6886 267.544C65.2717 267.361 64.8549 267.179 64.438 266.997C61.1551 265.485 58.185 263.609 55.5795 261.577C50.3426 257.513 46.4865 252.927 43.36 248.446C40.2335 243.938 37.7843 239.405 35.7 234.95C33.6156 230.468 31.896 226.039 30.3849 221.636C29.6293 219.421 28.9258 217.233 28.2745 215.044C27.6231 212.855 27.0239 210.667 26.4767 208.478C25.3564 204.127 24.3663 199.776 23.5065 195.451C22.6467 191.126 21.9172 186.801 21.2658 182.502C20.9532 180.34 20.6405 178.203 20.3539 176.041C20.0674 173.878 19.8329 171.742 19.5984 169.579C19.1294 165.28 18.7386 160.981 18.452 156.656C18.2957 154.494 18.1654 152.331 18.0872 150.169L17.9569 146.886L17.9048 145.218L17.8788 143.394C17.6703 132.764 26.112 123.984 36.7422 123.775C47.0858 123.567 55.6837 131.592 56.309 141.831L56.3611 142.326Z" fill="#E69773"/>
<path d="M13.4785 145.14C13.6869 154.181 16.136 185.602 21.1645 202.329L64.9099 194.252C64.9099 194.252 59.7772 160.017 57.9534 138.861C57.3541 131.982 53.7847 125.625 48.0267 121.795C44.1706 119.216 39.0639 117.522 32.6806 118.721C20.0963 121.092 15.615 133.103 14.1299 139.226C13.6348 141.18 13.4264 143.16 13.4785 145.14Z" fill="#9A96CD"/>
<path d="M64.9053 194.931C64.5926 194.931 64.306 194.697 64.2539 194.384C61.7006 179.872 58.1572 147.877 58.1311 147.538C58.079 147.174 58.3656 146.835 58.7304 146.809C59.0951 146.757 59.4339 147.043 59.486 147.408C59.512 147.721 63.0294 179.69 65.5827 194.15C65.6348 194.514 65.4003 194.853 65.0356 194.931C64.9834 194.931 64.9574 194.931 64.9053 194.931Z" fill="#5C53B8"/>
<path d="M65.3613 112.939C69.5561 117.916 75.8613 121.928 80.4208 123.674C87.5336 126.41 96.1316 125.211 102.176 122.423L103.635 111.533L103.922 109.318L104.495 105.097L80.2645 84.2796L78.8575 83.0811L77.9196 82.2734L77.4506 83.1854L76.9034 84.2275L76.9816 84.6965C73.6987 95.0401 70.2335 105.853 65.3613 112.939Z" fill="#E69773"/>
<path d="M70.1309 103.743C70.1309 103.743 59.0317 103.482 56.7129 114.165L63.4089 129.042C63.4089 129.042 70.5999 124.326 85.3467 124.951C85.3727 124.951 73.5701 112.784 70.1309 103.743Z" fill="#5C53B8"/>
<path d="M91.5996 125.237C91.5996 125.237 101.995 118.567 103.48 112.705C103.48 112.705 109.681 118.411 109.551 127.426L100.484 131.907C100.458 131.907 96.107 128.52 91.5996 125.237Z" fill="#5C53B8"/>
<path d="M133.076 41.6048C133.076 41.6048 139.707 53.9693 137.451 62.7328C135.189 71.5178 130.242 77.696 130.242 77.696C130.242 77.696 127.917 56.2195 133.076 41.6048Z" fill="#2B2B39"/>
<path d="M110.377 116.151C109.648 116.209 108.909 116.218 108.133 116.194C94.1457 115.738 79.3342 99.2016 76.8614 85.5803C76.8215 85.3855 76.7874 85.1692 76.769 84.9801C76.7065 84.5261 76.6441 84.072 76.5816 83.6179C76.5172 83.6007 76.4527 83.5834 76.3883 83.5662C67.4687 81.2912 59.4607 70.0307 63.1889 62.5593C65.2145 58.5216 67.9969 57.5869 70.4313 57.7788C70.099 55.4111 69.8799 53.0506 69.798 50.865C69.7425 49.3541 69.7887 47.8933 69.8977 46.5415C71.1023 33.284 83.4309 15.964 108.246 24.2014C125.242 29.8372 133.179 40.8485 135.319 51.1583C136.301 55.9099 136.062 60.4954 134.892 64.3479C132.79 71.3343 131.09 78.4515 130.043 83.3038C129.697 84.9375 129.399 86.3077 129.177 87.3071C128.929 88.5757 128.783 89.2959 128.783 89.2959C128.978 100.42 123.732 115.103 110.377 116.151Z" fill="#E69773"/>
<path d="M70.2728 44.0623C70.2728 44.0623 70.2786 44.0408 70.2728 44.0623L95.2953 53.7593C94.4224 59.1646 88.7785 57.7214 88.7785 57.7214L88.4503 66.334L82.1825 69.281L70.4569 57.8069C69.6128 53.4836 69.8533 48.8065 70.2728 44.0623Z" fill="#A8494A"/>
<g opacity="0.5">
<g opacity="0.5">
<g opacity="0.5">
<g opacity="0.5">
<g opacity="0.5">
<g opacity="0.5">
<g opacity="0.5">
<path opacity="0.5" d="M105.603 80.0038C105.335 81.175 102.192 81.4834 98.5806 80.7C94.9481 79.9108 92.2247 78.3064 92.4924 77.1353C92.7602 75.9641 95.9042 75.6556 99.5151 76.439C103.148 77.2282 105.871 78.8326 105.603 80.0038Z" fill="#A8494A"/>
</g>
</g>
</g>
</g>
</g>
</g>
</g>
<g opacity="0.5">
<g opacity="0.5">
<g opacity="0.5">
<g opacity="0.5">
<g opacity="0.5">
<g opacity="0.5">
<g opacity="0.5">
<path opacity="0.5" d="M129.208 87.3698C126.741 86.5248 125.127 85.3327 125.326 84.4192C125.525 83.5058 127.494 83.1128 130.073 83.3665C129.712 84.973 129.414 86.3432 129.208 87.3698Z" fill="#A8494A"/>
</g>
</g>
</g>
</g>
</g>
</g>
</g>
<path d="M83.2688 83.5197C82.5389 84.2679 81.7435 84.7453 80.9397 85.0823C79.4681 85.6777 77.9629 85.7117 76.8646 85.6016C76.8247 85.4068 76.7906 85.1905 76.7722 85.0014C76.6883 84.5416 76.6473 84.0933 76.6063 83.6449C76.5418 83.6277 76.4774 83.6104 76.413 83.5932C76.6979 83.6465 77.0373 83.6684 77.4469 83.6861C77.9696 83.711 78.574 83.6888 79.2072 83.5593C80.1326 83.3699 81.094 82.96 81.9113 82.1432C82.2899 81.7613 82.8885 81.7606 83.2705 82.1391C83.6466 82.5392 83.6473 83.1378 83.2688 83.5197Z" fill="#A8494A"/>
<path d="M88.451 66.3597C88.451 66.3597 90.7434 81.0835 95.4906 82.6087C100.238 84.1339 111.635 84.3796 115.894 87.9837C115.894 87.9837 125.331 86.4382 129.584 91.3527C133.837 96.2672 129.252 104.015 129.252 104.015C129.252 104.015 130.278 112.3 126.149 117.316C122.02 122.333 119.585 122.486 119.585 122.486C119.585 122.486 118.988 130.382 114.198 132.022C109.409 133.662 100.606 127.943 100.606 127.943C100.606 127.943 94.2988 130.695 90.9803 127.274C87.6833 123.858 87.0317 118.988 87.0317 118.988C87.0317 118.988 77.2198 120.387 75.6652 115.022C74.1106 109.657 77.9817 103.628 77.9817 103.628C77.9817 103.628 72.6528 97.5732 77.1132 93.3823C77.1132 93.3823 75.8276 85.8104 80.9527 85.0661L82.1675 69.2795L88.451 66.3597Z" fill="#2B2B39"/>
<path d="M106.463 87.0645C106.463 87.0645 104.973 95.458 111.831 97.5256C118.689 99.5933 121.05 92.9294 121.05 92.9294L106.463 87.0645Z" fill="white"/>
<path d="M109.706 100.315C108.417 99.7164 107.913 98.5915 107.881 98.5371C107.741 98.2004 107.888 97.8253 108.224 97.6854C108.54 97.5397 108.936 97.6919 109.076 98.0287C109.102 98.1046 109.763 99.5017 111.652 99.4095C112.003 99.3884 112.322 99.658 112.316 100.025C112.337 100.376 112.068 100.695 111.701 100.688C110.886 100.723 110.236 100.572 109.706 100.315Z" fill="#5F5F75"/>
<path d="M75.5637 76.7783C75.2101 76.6376 74.9628 76.2721 74.9862 75.841C75.2951 69.0186 68.1901 64.3527 68.1099 64.3083C67.6563 64.0256 67.5424 63.4196 67.8193 62.9875C68.102 62.5338 68.708 62.42 69.1401 62.6969C69.4764 62.9021 77.2484 67.9998 76.8937 75.9378C76.8688 76.4605 76.4143 76.8682 75.8858 76.8647C75.7727 76.8574 75.6653 76.8286 75.5637 76.7783Z" fill="#A8494A"/>
<path d="M68.2848 71.2054C68.1832 71.1551 68.0601 71.0991 67.97 71.0059C67.588 70.6274 67.5873 70.0288 67.9659 69.6468C68.0648 69.5352 70.5267 67.1336 74.2676 68.205C74.783 68.3431 75.076 68.882 74.9379 69.3974C74.7998 69.9128 74.2609 70.2057 73.7455 70.0676C71.0511 69.2996 69.3291 71.0018 69.3233 71.0233C69.0652 71.2994 68.6326 71.3676 68.2848 71.2054Z" fill="#A8494A"/>
<path d="M117.915 86.1962C117.706 86.1172 117.526 85.9308 117.421 85.7187C117.203 85.2458 117.407 84.656 117.901 84.4432L123.755 81.7535L119.544 79.4284C119.304 79.2949 119.113 79.0598 119.075 78.7733L116.586 66.7588C116.471 66.2446 116.814 65.738 117.328 65.6226C117.842 65.5072 118.349 65.8501 118.464 66.3644L120.863 77.9405L126.362 80.956C126.683 81.134 126.871 81.4608 126.865 81.8274C126.859 82.194 126.632 82.5246 126.296 82.6645L118.714 86.1341C118.436 86.3128 118.14 86.3024 117.915 86.1962Z" fill="#A8494A"/>
<path d="M121.206 73.1034C121.12 73.0512 121.058 72.9934 121.007 72.8841C120.876 72.648 120.976 72.3561 121.217 72.2488C121.413 72.1525 126.104 69.8201 129.536 73.0264C129.724 73.1998 129.75 73.5097 129.554 73.7035C129.381 73.8916 129.071 73.9182 128.877 73.7219C125.924 70.9834 121.688 73.0836 121.648 73.1178C121.492 73.1798 121.343 73.1674 121.206 73.1034Z" fill="#2B2B39"/>
<path d="M104.012 70.5075C103.932 70.4783 103.841 70.4032 103.773 70.3224C103.619 70.0919 103.673 69.8112 103.903 69.6579C104.093 69.5386 108.426 66.636 112.257 69.3803C112.463 69.5251 112.512 69.8294 112.373 70.0579C112.228 70.2635 111.924 70.3131 111.696 70.1739C108.424 67.8291 104.483 70.4418 104.443 70.476C104.311 70.5325 104.144 70.5486 104.012 70.5075Z" fill="#2B2B39"/>
<path d="M125.679 61.8859C123.845 61.3599 123.961 59.0862 125.829 59.0239C126.804 58.9951 127.973 59.2402 129.225 60.0198C134.712 63.4204 133.472 67.0485 133.472 67.0485C133.472 67.0485 130.504 63.999 127.475 62.5553C126.814 62.2585 126.212 62.046 125.679 61.8859Z" fill="#2B2B39"/>
<path d="M111.957 58.6727C113.755 59.2019 114.984 56.8027 113.509 55.6442C112.743 55.0346 111.663 54.598 110.184 54.6701C103.767 54.9693 100.638 60.2517 100.638 60.2517C100.638 60.2517 106.839 58.023 110.098 58.321C110.835 58.3941 111.455 58.5245 111.957 58.6727Z" fill="#2B2B39"/>
<mask id="mask0_501_54668" style="mask-type:alpha" maskUnits="userSpaceOnUse" x="65" y="12" width="81" height="42">
<path d="M66.2302 35.0154C64.7146 38.8675 69.8245 50.8937 69.8245 50.8937C77.0765 50.0288 85.0986 50.8431 95.2963 53.7597L96.5011 46.2567C97.5678 44.0797 99.589 42.5497 101.602 41.478C103.132 40.6678 105.234 40.3796 107.941 41.7032C110.495 42.9418 112.792 44.7235 114.938 46.3878C118.406 49.0779 121.478 51.461 124.599 50.7472C125.724 50.4944 126.782 50.1769 127.77 49.8806C131.214 48.8479 133.801 48.0723 135.345 51.1868C135.172 50.3465 134.961 49.5014 134.709 48.6549C141.628 47.8935 146.887 35.7113 145.638 22.1352C144.784 12.9839 133.639 13.7136 122.123 14.4676C115.042 14.9312 107.821 15.404 102.767 13.594C89.4939 8.84057 81.9331 18.7606 81.9331 18.7606C81.9331 18.7606 74.5882 15.8489 71.5219 19.5616C68.4555 23.2744 70.2144 33.8043 70.2144 33.8043C70.2144 33.8043 67.7457 31.1633 66.2302 35.0154Z" fill="#2B2B39"/>
</mask>
<g mask="url(#mask0_501_54668)">
<path d="M66.2302 35.0154C64.7146 38.8675 69.8245 50.8937 69.8245 50.8937C77.0765 50.0288 85.0986 50.8431 95.2963 53.7597L96.5011 46.2567C97.5678 44.0797 99.589 42.5497 101.602 41.478C103.132 40.6678 105.234 40.3796 107.941 41.7032C110.495 42.9418 112.792 44.7235 114.938 46.3878C118.406 49.0779 121.478 51.461 124.599 50.7472C125.724 50.4944 126.782 50.1769 127.77 49.8806C131.214 48.8479 133.801 48.0723 135.345 51.1868C135.172 50.3465 134.961 49.5014 134.709 48.6549C141.628 47.8935 146.887 35.7113 145.638 22.1352C144.784 12.9839 133.639 13.7136 122.123 14.4676C115.042 14.9312 107.821 15.404 102.767 13.594C89.4939 8.84057 81.9331 18.7606 81.9331 18.7606C81.9331 18.7606 74.5882 15.8489 71.5219 19.5616C68.4555 23.2744 70.2144 33.8043 70.2144 33.8043C70.2144 33.8043 67.7457 31.1633 66.2302 35.0154Z" fill="#2B2B39"/>
<g opacity="0.1">
<path d="M94.6127 12.8755C100.886 16.6789 107.519 20.0345 114.942 20.7225C122.151 21.3947 129.652 19.0418 134.165 13.4281C133.399 13.4959 132.654 13.553 131.877 13.6006C127.212 18.3887 120.042 19.9465 113.317 18.9159C106.941 17.9595 101.198 15.0144 95.7229 11.6951C95.3322 12.0822 94.9415 12.4693 94.6127 12.8755Z" fill="white"/>
<path d="M66.1878 29.3451C67.3825 30.6517 68.6797 31.9025 70.0523 33.0103C72.2501 34.7726 74.6576 36.2067 77.3436 37.1474C84.5901 39.67 91.3096 36.7759 97.9432 33.8367C101.962 32.0421 106.056 30.4155 110.506 30.4031C114.711 30.3708 118.825 31.5161 122.83 32.6951C122.859 32.7102 122.909 32.7186 122.938 32.7337C129.812 34.7489 137.563 37.3547 144.653 34.7292C146.586 34.0111 148.404 32.9216 149.896 31.55C149.837 30.8975 149.728 30.2367 149.561 29.618C148.45 30.8241 147.104 31.8153 145.612 32.5646C141.486 34.6318 136.657 34.4263 132.247 33.5641C128.09 32.7436 124.004 31.3022 119.881 30.2075C115.629 29.0809 111.31 28.3582 106.851 29.1158C98.1212 30.6205 90.5088 37.6704 81.3168 36.4445C77.471 35.9345 74.0437 34.1456 71.0711 31.7371C69.8905 30.7854 68.7988 29.7343 67.766 28.6411C67.1895 28.8675 66.6853 29.0954 66.1878 29.3451Z" fill="white"/>
<path d="M112.387 46.7201C112.93 47.0068 113.488 47.3373 114.008 47.703C115.396 47.0818 116.854 46.6067 118.394 46.3216C120.741 45.8585 122.924 45.9491 125.036 46.3492C126.614 46.651 128.145 47.111 129.688 47.687C130.988 48.1709 132.279 48.7052 133.627 49.2698C134.975 49.8343 136.347 50.3198 137.743 50.6539C137.905 50.1726 138.204 49.7449 138.605 49.2615C138.533 49.2599 138.476 49.2297 138.425 49.2214C134.91 48.4654 131.76 46.5667 128.363 45.4152C127.508 45.129 126.645 44.8933 125.751 44.7149C125.167 44.6082 124.568 44.5301 123.976 44.4739C119.932 44.0972 115.927 44.9297 112.387 46.7201Z" fill="white"/>
<path d="M127.713 58.086C131.444 58.5356 135.237 57.7926 138.583 55.9907C138.385 55.4293 138.23 54.9267 138.059 54.4526C134.88 56.2509 131.255 56.9179 127.683 56.4428C127.714 57.0079 127.717 57.5579 127.713 58.086Z" fill="white"/>
<path d="M60.7433 41.8877C62.7824 45.3036 65.9439 48.0129 69.8765 49.1904C70.092 49.2674 70.3225 49.3158 70.5597 49.3861C70.8693 49.4579 71.1789 49.5297 71.5104 49.5947C80.4995 51.1708 93.4613 44.6923 101.764 48.9236C102.29 48.6889 102.846 48.397 103.424 48.0984C96.7081 44.1184 86.874 47.1623 79.4734 48.0879C76.8182 48.4068 74.1911 48.4297 71.706 47.9058C71.1441 47.7923 70.5686 47.6352 70.0368 47.4645C67.6725 46.7116 65.509 45.3697 63.7159 43.2904C62.8548 42.2878 62.1399 41.2159 61.5425 40.0598C61.2475 40.654 60.9811 41.2633 60.7433 41.8877Z" fill="white"/>
</g>
</g>
<path d="M167.608 242.453L194.226 129.839L364.752 124.711C369.043 124.676 372.182 128.688 371.206 132.875L344.587 245.488C343.89 248.489 341.203 250.617 338.098 250.617H174.097C169.806 250.617 166.631 246.605 167.608 242.453ZM167.608 242.453L168.26 242.607M167.608 242.453L168.26 242.607M168.26 242.607L194.879 129.994L194.879 129.991C195.506 127.297 197.92 125.381 200.715 125.381H364.752H364.757V125.381C368.603 125.35 371.433 128.947 370.553 132.721C370.553 132.722 370.553 132.722 370.553 132.722L343.935 245.334L343.934 245.336C343.308 248.031 340.894 249.946 338.098 249.946H174.097C170.237 249.946 167.383 246.336 168.26 242.607M168.26 242.607L168.26 242.607M168.26 242.607L168.26 242.607" fill="white" stroke="#A7C6DB" stroke-width="1.34041"/>
<path d="M207.24 124.676L178.877 250.581H174.098C169.807 250.581 166.632 246.569 167.609 242.418L194.228 129.804C194.925 126.804 197.612 124.676 200.716 124.676H207.24Z" fill="#A7C6DB"/>
</g>
<path d="M56.9017 94.5295C60.4093 98.2071 66.015 92.8034 62.723 88.9547C58.8953 84.6749 52.5377 90.6578 56.9017 94.5295Z" fill="#ECC038"/>
<path d="M177 99.6426C176.545 96.0251 175.728 93.0409 174.911 90.0567" stroke="#D660CD" stroke-width="5.70423" stroke-miterlimit="10"/>
<path d="M12.0001 50.8661C15.7144 48.7843 18.4321 46.9742 21.5119 44.5309" stroke="#D642B4" stroke-width="5.70423" stroke-miterlimit="10"/>
<path d="M62.2129 151.789C61.4859 147.177 60.3967 143.198 59.3075 139.219" stroke="#31B7DE" stroke-width="5.70423" stroke-miterlimit="10"/>
<path d="M116.95 156.107C122.023 153.12 127.913 153.117 132.896 151.758" stroke="#ECC038" stroke-width="5.70423" stroke-miterlimit="10"/>
<path d="M151.976 66.9133C154.694 65.1032 155.328 65.4647 157.684 64.2879" stroke="#ECC038" stroke-width="4.27817" stroke-miterlimit="10"/>
<path d="M144.172 133.973C143.265 132.616 143.355 130.988 142.81 128.999" stroke="#D642B4" stroke-width="4.27817" stroke-miterlimit="10"/>
<path d="M1.25936 114.365C2.90909 111.51 5.07288 109.242 7.96748 107.961C10.6945 106.752 13.3313 106.466 16.3451 106.345C22.1335 106.108 28.37 106.764 33.5428 103.633C36.9925 101.543 39.1665 97.962 40.5132 94.2542C40.8173 93.4283 40.7054 92.315 39.9267 91.7791C39.2079 91.2856 38.2848 91.7084 38.0024 92.4962C36.8412 95.6885 35.2576 98.4133 32.4466 100.254C31.9511 100.576 31.5461 100.799 30.8521 101.1C30.2352 101.37 29.5946 101.593 28.9432 101.776C27.6865 102.135 26.5022 102.308 25.0325 102.436C19.2034 102.935 13.0819 102.034 7.52543 104.292C3.91686 105.762 1.10176 108.508 -0.826844 111.85C-1.28591 112.638 -1.37606 113.678 -0.743225 114.425C-0.240032 115.031 0.811157 115.134 1.25936 114.365Z" fill="#AD5DDD"/>
<path d="M194.317 69.8124C195.95 66.9139 196.57 63.5646 194.381 60.7727C192.345 58.1689 189.158 56.6382 186.295 55.1418C184.845 54.3828 183.565 53.7376 182.267 52.8889C180.72 51.873 179.518 50.592 178.549 49.007C176.563 45.7429 176.321 42.0033 175.982 38.3007C175.801 36.3084 175.538 34.3115 174.884 32.4107C174.148 30.2703 172.859 28.4946 171.191 26.9822C170.456 26.3115 168.942 26.238 168.006 26.3008C167.464 26.3363 166.288 26.5395 167.03 27.2138C172.9 32.54 170.151 41.0238 173.29 47.5813C174.138 49.3491 175.385 51.0669 176.934 52.2854C178.183 53.2652 179.596 54.0451 180.991 54.7978C183.787 56.3069 186.686 57.4886 188.999 59.6962C190.052 60.7077 190.912 62.0287 191.095 63.5019C191.351 65.5114 190.572 67.4771 189.607 69.1941C189.309 69.7297 193.617 71.0509 194.317 69.8124Z" fill="#D642B4"/>
<path d="M27.8804 68.2633C29.4529 68.9997 31.2219 69.3779 32.9516 69.1627C34.5527 68.9667 36.0558 68.2949 37.4618 67.5427C40.2031 66.0736 42.677 64.0574 45.8275 63.6526C47.897 63.3876 49.8238 63.99 51.6203 64.9967C52.6327 65.5651 52.87 63.3998 52.8653 62.8934C52.8521 61.828 52.5723 60.258 51.5408 59.6787C49.8586 58.7371 47.9971 58.1383 46.0488 58.1618C44.3724 58.1806 42.8068 58.7412 41.3084 59.4491C38.5262 60.769 36.0932 62.8756 33.1095 63.577C31.2466 64.0101 29.5103 63.7513 27.7946 62.9417C26.745 62.4529 26.5385 64.4762 26.5496 65.0451C26.57 66.039 26.8408 67.7718 27.8804 68.2633Z" fill="#31B7DE"/>
<path d="M170.999 125.908C172.63 124.041 174.016 122.589 176.072 120.965" stroke="#31B7DE" stroke-width="2.13908" stroke-miterlimit="10"/>
</g>
<defs>
<clipPath id="clip0_501_54668">
<rect width="200" height="160" rx="80" fill="white"/>
</clipPath>
<clipPath id="clip1_501_54668">
<path d="M32 3H167.351V91.8243C167.351 129.201 137.052 159.5 99.6757 159.5C62.2994 159.5 32 129.201 32 91.8243V3Z" fill="white"/>
</clipPath>
</defs>
</svg>
