<svg width="200" height="160" viewBox="0 0 200 160" fill="none" xmlns="http://www.w3.org/2000/svg">
<g clip-path="url(#clip0_501_52745)">
<circle cx="100.189" cy="90.8103" r="69.1892" fill="#BCE1F6"/>
<path d="M80.0802 458.869C151.692 456.352 225.768 446.578 264.117 314.605C275.523 275.371 268.11 245.667 255.593 223.272C252.503 217.734 249.1 212.665 245.594 207.995C244.274 206.242 242.937 204.54 241.601 202.891C213.616 168.57 166.691 156.261 125.078 171.434C101.746 179.941 71.8167 192.51 45.1339 208.863C-8.47479 241.726 -21.061 279.173 -38.5776 343.44C-40.0879 348.961 -41.5809 355.141 -42.7267 361.721C-43.3343 365.228 -43.8377 368.856 -44.185 372.536C-48.0737 413.646 -32.2237 462.81 80.0802 458.869Z" fill="#FFBA44"/>
<path d="M58.2589 129C58.2589 129 13.2957 190.004 3.03573 220.402C-7.22422 250.8 17.6705 272.379 17.6705 272.379L40.7944 281.059C40.7944 281.042 64.5607 173.738 58.2589 129Z" fill="#0969DB"/>
<path d="M62.2212 299.882C81.8731 306.392 129.892 323.474 150.741 316.565C151.627 316.27 152.443 315.94 153.224 315.558C155.498 314.447 157.321 312.954 158.606 311.01C166.782 298.562 174.89 246.325 171.244 215.632C170.793 211.795 170.567 207.629 170.498 203.254C170.393 196.813 170.602 189.921 170.879 182.995C171.904 156.919 176.018 138.917 164.855 132.58C154.838 126.886 142.165 122.442 134.093 120.515C129.093 119.317 120.899 116.817 115.153 116.921L90.2928 121.435C90.2928 121.435 68.8354 125.011 63.8877 128.674C58.9401 132.32 56.4055 148.413 47.4649 163.152C38.5243 177.891 36.58 192.682 45.1212 208.861C52.5515 222.941 51.2494 217.594 52.2216 240.683C53.4021 268.98 23.8375 287.174 62.2212 299.882Z" fill="white"/>
<g opacity="0.8">
<path opacity="0.8" d="M97.2706 147.228C97.6352 147.228 97.9998 147.211 98.3817 147.194C113.103 146.43 126.61 133.444 127.165 132.889C127.564 132.507 127.564 131.864 127.182 131.465C126.801 131.066 126.158 131.066 125.759 131.448C125.62 131.569 112.235 144.468 98.2775 145.18C84.9101 145.892 83.2956 132.628 83.2261 132.055C83.1567 131.5 82.6706 131.101 82.1151 131.17C81.5595 131.222 81.1603 131.725 81.2297 132.281C81.2297 132.437 83.0005 147.228 97.2706 147.228Z" fill="#CED3E6"/>
</g>
<path d="M113.98 309.341C131.67 303.733 147.676 292.449 158.596 282.397C159.464 281.599 160.297 280.818 161.095 280.036C166.755 274.533 170.748 277.363 172.484 274.203C179.098 262.103 175.348 214.623 172.484 197.176C169.619 179.746 181.65 147.803 175.175 136.38C168.699 124.957 146.391 120.964 146.391 120.964C146.391 120.964 149.551 117.283 143.562 113.065C137.572 108.846 121.635 110.6 121.635 110.6C120.872 186.065 110.178 256.149 113.98 309.341Z" fill="#3278FF"/>
<path d="M131.376 287.711C131.862 287.711 132.278 287.363 132.348 286.877C140.403 234.536 132.435 136.068 132.348 135.079C132.296 134.54 131.827 134.141 131.289 134.176C130.751 134.228 130.334 134.697 130.386 135.235C130.473 136.224 138.407 234.449 130.386 286.565C130.299 287.103 130.681 287.606 131.219 287.693C131.271 287.711 131.324 287.711 131.376 287.711Z" fill="white"/>
<path d="M115.182 295.557C115.651 295.557 116.068 295.227 116.154 294.741C126.692 234.622 127.525 130.877 127.525 129.835C127.525 129.297 127.091 128.845 126.553 128.845C126.015 128.845 125.564 129.279 125.564 129.818C125.564 130.859 124.713 234.431 114.21 294.394C114.123 294.932 114.47 295.435 115.009 295.539C115.078 295.557 115.13 295.557 115.182 295.557Z" fill="#005DBD"/>
<path d="M132.661 129.246C132.747 129.246 132.834 129.228 132.921 129.211C141.254 126.989 146.358 122.076 146.584 121.868C146.966 121.486 146.983 120.861 146.601 120.479C146.219 120.097 145.594 120.08 145.212 120.462C145.16 120.514 140.247 125.236 132.435 127.319C131.914 127.458 131.602 127.996 131.741 128.534C131.827 128.951 132.227 129.246 132.661 129.246Z" fill="#005DBD"/>
<path d="M37.3401 276.391C37.3401 276.391 43.6419 297.623 67.113 307.744C70.0295 250.177 76.6265 184.434 85.1504 114.506C85.1504 114.506 76.1751 112.927 72.4426 118.065C70.8281 120.27 70.4809 124.02 70.4809 124.02C70.4809 124.02 65.8978 124.905 60.8807 127.249C55.8635 129.592 56.4364 132.804 55.2386 140.963C54.0407 149.123 41.4371 161.744 37.3401 178.844C33.243 195.944 44.1106 206.846 47.4958 221.203C50.8985 235.525 37.3401 276.391 37.3401 276.391Z" fill="#3278FF"/>
<path d="M57.494 285.297C58.0322 285.297 58.4662 284.881 58.4835 284.342C60.7577 206.03 75.0627 136.051 75.2015 135.356C75.3057 134.818 74.9759 134.297 74.4377 134.193C73.8995 134.089 73.3787 134.419 73.2745 134.957C73.1357 135.651 58.796 205.787 56.5218 284.29C56.5045 284.828 56.9385 285.297 57.4766 285.297C57.4766 285.297 57.4766 285.297 57.494 285.297Z" fill="white"/>
<path d="M79.0912 131.414C79.5599 131.414 79.9766 131.067 80.0634 130.598C80.1502 130.06 79.7856 129.557 79.2648 129.452C79.1954 129.435 72.8762 128.289 71.4353 123.723C71.2791 123.203 70.7235 122.908 70.2027 123.081C69.6819 123.237 69.4042 123.793 69.5604 124.314C71.3832 130.043 78.6398 131.345 78.935 131.397C78.987 131.397 79.0391 131.414 79.0912 131.414Z" fill="#005DBD"/>
<path d="M59.7871 285.299C60.2731 285.299 60.7071 284.934 60.7592 284.431C67.7034 226.69 78.6751 134.42 78.7793 133.5C78.8487 132.962 78.4494 132.476 77.9112 132.406C77.3731 132.337 76.887 132.736 76.8175 133.274C76.7134 134.194 65.7416 226.482 58.7975 284.205C58.7281 284.743 59.11 285.229 59.6655 285.299C59.7176 285.299 59.7523 285.299 59.7871 285.299Z" fill="#005DBD"/>
<path d="M118.666 256.059L120.888 287.776C120.888 287.776 158.612 282.395 177.118 277.673C182.517 276.301 188.559 274.53 194.114 271.579C204.339 266.145 212.811 256.684 212.186 238.247C211.995 232.328 210.849 225.488 208.523 217.537C195.052 171.48 172.483 132.801 172.483 132.801C143.439 145.231 145.887 165.924 145.887 165.924C154.168 188.024 172.483 235.088 172.483 235.088C161.841 248.091 118.666 256.059 118.666 256.059Z" fill="#3278FF"/>
<path d="M117.573 103.935L84.0681 108.726C62.2982 106.556 55.3714 97.8935 51.8126 79.5957C50.0245 70.3947 51.205 62.2701 52.9584 56.2287C53.4097 49.354 54.9895 43.4168 58.2359 39.4934C72.9401 21.7685 85.8909 22.4629 85.8909 22.4629C92.4704 19.4422 114.206 17.3763 128.545 34.7887C128.997 35.1706 137.746 44.4411 139.76 63.8846C141.704 82.4254 129.326 106.105 117.573 103.935Z" fill="#2B2B39"/>
<path d="M98.8575 27.3223C98.8575 27.3223 95.3681 -3.57912 122.797 0.344316C140.713 2.89628 151.807 27.1834 135.418 38.2072C119.03 49.231 98.8575 27.3223 98.8575 27.3223Z" fill="#2B2B39"/>
<path d="M132.662 41.3855C132.801 41.3855 132.94 41.3508 133.079 41.2813C133.495 41.0556 133.652 40.5175 133.426 40.1008C127.072 28.5562 118.01 23.4523 111.535 21.1954C104.504 18.765 99.0351 19.0601 98.8094 19.0601C98.3233 19.0948 97.9587 19.4941 97.9935 19.9802C98.0282 20.4663 98.4275 20.8308 98.9136 20.7961C99.1219 20.7788 120.284 19.8066 131.898 40.9341C132.072 41.2119 132.367 41.3855 132.662 41.3855Z" fill="#EBB12B"/>
<path d="M114.961 96.9562C114.961 96.9562 136.332 84.9949 132.131 60.1002C127.929 35.2055 111.541 20.2236 86.4208 27.4455C86.4035 27.4455 88.8513 99.404 114.961 96.9562Z" fill="#2B2B39"/>
<path d="M55.5245 51.1699C55.5245 51.1699 53.3371 72.5405 57.2432 75.6306C61.1319 78.7208 64.9512 70.2663 64.9512 70.2663C64.9512 70.2663 59.6389 51.413 55.5245 51.1699Z" fill="#2B2B39"/>
<path d="M65.3601 77.5812C65.3601 77.5812 58.9889 71.9912 56.8709 78.8485C54.753 85.7058 59.0409 98.3268 66.9746 94.9762L65.3601 77.5812Z" fill="#D46A43"/>
<path d="M57.5097 93.4155C58.3777 94.2141 59.3498 94.9085 60.4088 95.4814C64.4191 97.6341 69.6445 97.8945 75.929 94.596C75.929 94.596 83.9668 84.1451 72.0923 65.7084C72.0923 65.7084 61.2074 62.844 54.975 69.4236C54.2806 70.1527 53.6556 70.986 53.1001 71.9582C52.7529 72.5484 52.4578 73.1907 52.18 73.8852C49.9753 79.4925 52.0238 88.4331 57.5097 93.4155Z" fill="#4E5459"/>
<path d="M57.797 67.1856C57.2935 64.7204 56.7901 61.665 56.4602 58.2797C56.6165 58.3491 56.7727 58.4012 56.9463 58.4012C57.6234 58.4533 58.2831 58.1755 58.9428 57.6895C59.2379 60.849 59.6893 63.7135 60.1406 66.0919L57.797 67.1856Z" fill="white"/>
<path d="M57.5208 93.4158C58.3888 94.2144 59.3609 94.9088 60.4199 95.4817C54.9167 84.0759 54.7604 73.6597 54.9861 69.4238C54.2917 70.153 53.6667 70.9863 53.1112 71.9584C53.1112 76.7499 53.823 84.6315 57.5208 93.4158Z" fill="#9D9EA4"/>
<path d="M83.9299 108.407L86.5513 126.079C86.5513 126.079 97.3668 139.95 122.4 117.33C119.553 110.143 115.178 100.89 116.307 93.8066C116.307 93.8066 114.484 95.4906 111.324 97.487C110.682 97.9037 109.988 98.3377 109.259 98.7717C102.766 102.73 92.8358 107.782 83.9299 108.407Z" fill="#EA9B7A"/>
<path opacity="0.5" d="M83.926 108.423L85.1585 116.687C92.4672 113.874 105.106 107.781 111.338 97.4863C110.696 97.903 110.001 98.337 109.272 98.771C102.762 102.747 92.8318 107.798 83.926 108.423Z" fill="#A8494A"/>
<path d="M59.9158 78.3579C60.1935 80.1808 60.4539 81.8995 60.7317 83.5313C62.7455 95.7183 64.5857 102.28 67.9709 104.885C85.1056 118.026 115.313 94.7982 116.285 94.0517C116.302 94.0343 116.302 94.0343 116.302 94.0343C116.406 92.6108 116.476 91.2046 116.51 89.8331C116.91 78.0975 115.469 67.473 112.795 57.5603C111.771 46.849 103.976 37.891 93.4385 35.7384C82.5189 33.5162 73.9082 39.4535 68.5786 41.9881C60.5407 45.8421 56.8603 57.5256 59.1172 73.0457C59.3949 74.9032 59.6554 76.6914 59.9158 78.3579Z" fill="#EA9B7A"/>
<path d="M67.8228 64.7062C69.5954 64.1979 69.4834 62.0007 67.6777 61.9405C66.7357 61.9126 65.6061 62.1495 64.3964 62.9028C59.0936 66.189 60.2922 69.6951 60.2922 69.6951C60.2922 69.6951 63.1607 66.7482 66.0873 65.353C66.7263 65.0662 67.3075 64.8608 67.8228 64.7062Z" fill="#2B2B39"/>
<path d="M81.0823 61.6022C79.3453 62.1136 78.1574 59.7952 79.5827 58.6756C80.3231 58.0866 81.3669 57.6646 82.7953 57.7344C88.9973 58.0235 92.0202 63.1281 92.0202 63.1281C92.0202 63.1281 86.0281 60.9745 82.8787 61.2624C82.1665 61.333 81.5679 61.4591 81.0823 61.6022Z" fill="#2B2B39"/>
<path d="M75.2348 92.5652C84.8177 92.5652 88.6544 83.399 88.6891 83.2948C88.8627 82.8434 88.6544 82.34 88.203 82.1664C87.7516 81.9928 87.2482 82.2011 87.0746 82.6525C86.901 83.0518 82.8907 92.5652 72.4398 90.5514C71.9711 90.4646 71.5024 90.7771 71.4156 91.2458C71.3288 91.7146 71.6413 92.1659 72.11 92.2701C73.221 92.4784 74.2626 92.5652 75.2348 92.5652Z" fill="#A8494A"/>
<path d="M82.2973 96.8514C80.5439 97.2854 79.0683 96.9555 78.9641 96.9208C78.6517 96.8514 78.4607 96.5389 78.5301 96.2264C78.5996 95.9139 78.912 95.7229 79.2245 95.7924C79.2593 95.7924 82.1237 96.4347 84.2937 94.5251C84.5368 94.3168 84.9014 94.3341 85.1097 94.5772C85.318 94.8202 85.3006 95.1848 85.0576 95.3931C84.1722 96.1917 83.2001 96.6257 82.2973 96.8514Z" fill="#A8494A"/>
<path d="M76.2806 84.9425C76.4369 84.873 76.541 84.7341 76.6105 84.5779C76.7146 84.2481 76.541 83.8835 76.2112 83.7793L72.0273 82.4079L74.5099 79.8906C74.6488 79.7517 74.7182 79.5608 74.6835 79.3698L73.9196 72.443C73.8849 72.0958 73.5724 71.8354 73.2079 71.8875C72.8607 71.9222 72.6002 72.2347 72.6523 72.5819L73.3988 79.1962L70.4129 82.2169C70.2566 82.3731 70.1872 82.5988 70.2392 82.8072C70.2913 83.0155 70.4476 83.1891 70.6559 83.2585L75.8119 84.9598C75.9682 85.0293 76.1244 85.0119 76.2806 84.9425Z" fill="#A8494A"/>
<path d="M87.1217 78.3022C87.3301 79.7432 90.4723 80.4549 94.1179 79.9168C97.7636 79.3786 100.559 77.7641 100.333 76.3232C100.125 74.8823 96.9824 74.1705 93.3367 74.7087C89.6911 75.2642 86.9134 76.8787 87.1217 78.3022Z" fill="#A8494A"/>
<g opacity="0.8">
<g opacity="0.8">
<g opacity="0.8">
<g opacity="0.8">
<g opacity="0.8">
<g opacity="0.8">
<g opacity="0.8">
<g opacity="0.8">
<g opacity="0.8">
<g opacity="0.8">
<g opacity="0.8">
<path opacity="0.8" d="M59.9291 80.0497C60.2069 81.8726 60.4673 83.5912 60.7451 85.2231C64.0782 84.5981 66.526 83.0878 66.3177 81.751C66.1268 80.3796 63.3144 79.6678 59.9291 80.0497Z" fill="#D46A43"/>
</g>
</g>
</g>
</g>
</g>
</g>
</g>
</g>
</g>
</g>
</g>
<path d="M83.5737 73.168C83.8688 75.1471 84.9972 76.6053 86.1083 76.4491C87.2193 76.2928 87.8617 74.5568 87.5839 72.5777C87.2888 70.5987 86.1604 69.1404 85.0493 69.2966C83.9382 69.4529 83.2785 71.1889 83.5737 73.168Z" fill="#39393B"/>
<path d="M64.0385 76.082C64.3336 78.0611 65.4621 79.5194 66.5731 79.3631C67.6842 79.2069 68.3265 77.4709 68.0487 75.4918C67.7536 73.5127 66.6252 72.0544 65.5142 72.2107C64.4031 72.3843 63.7607 74.1203 64.0385 76.082Z" fill="#39393B"/>
<path d="M110.237 72.7517C110.237 72.7517 116.556 60.9814 123.57 68.4463C129.351 74.5919 123.101 94.2091 112.459 88.9662L110.237 72.7517Z" fill="#EA9B7A"/>
<path d="M113.277 85.7506C113.694 85.6811 113.989 85.3339 113.971 84.8999C113.659 76.7405 119.961 72.956 120.221 72.7997C120.603 72.5741 120.742 72.0706 120.516 71.6713C120.291 71.272 119.787 71.1505 119.388 71.3762C119.093 71.5498 111.958 75.8031 112.322 84.9693C112.34 85.4207 112.721 85.7679 113.173 85.7506C113.208 85.7506 113.242 85.7506 113.277 85.7506Z" fill="#39393B"/>
<path d="M120.119 79.7243C120.363 79.6896 120.571 79.5507 120.71 79.325C120.935 78.9431 120.814 78.4396 120.415 78.1966C120.05 77.9883 116.804 76.1133 114.46 77.1029C114.043 77.2765 113.852 77.7626 114.026 78.1792C114.2 78.5959 114.686 78.7868 115.102 78.6132C116.456 78.0403 118.852 79.1688 119.581 79.6028C119.755 79.7069 119.946 79.7417 120.119 79.7243Z" fill="#39393B"/>
<path d="M90.6851 83.5385C96.8654 81.1775 99.9728 74.2334 97.6118 68.0531C95.2508 61.8728 88.3067 58.7653 82.1264 61.1263C75.9462 63.4873 72.8387 70.4315 75.1997 76.6117C77.5607 82.792 84.5048 85.8995 90.6851 83.5385ZM82.7514 62.7582C88.0289 60.7444 93.9662 63.4005 95.98 68.6781C97.9938 73.9556 95.3376 79.8928 90.0601 81.9066C84.7826 83.9204 78.8453 81.2643 76.8316 75.9868C74.8178 70.7092 77.4739 64.772 82.7514 62.7582Z" fill="white"/>
<path d="M97.2238 69.6559C97.328 69.6559 97.4321 69.6211 97.5363 69.5691C104.029 66.6005 110.122 68.8573 110.192 68.892C110.643 69.0656 111.147 68.8399 111.32 68.3886C111.494 67.9372 111.268 67.4337 110.817 67.2601C110.539 67.156 103.96 64.7082 96.8071 67.9893C96.3731 68.1976 96.1822 68.7184 96.3731 69.1524C96.5467 69.4823 96.8766 69.6732 97.2238 69.6559Z" fill="white"/>
<path d="M64.1187 86.5328C70.2989 84.1718 73.4064 77.2276 71.0454 71.0474C68.6844 64.8671 61.7403 61.7596 55.56 64.1206C49.3797 66.4816 46.2722 73.4257 48.6332 79.606C50.9769 85.7863 57.9384 88.8938 64.1187 86.5328ZM56.1676 65.7525C61.4452 63.7387 67.3824 66.3948 69.3962 71.6723C71.41 76.9499 68.7539 82.8871 63.4763 84.9009C58.1988 86.9147 52.2616 84.2586 50.2478 78.981C48.234 73.7035 50.8901 67.7663 56.1676 65.7525Z" fill="white"/>
<path d="M75.7443 71.5267C75.8832 71.4573 75.9873 71.3531 76.0741 71.2142C76.3345 70.7976 76.213 70.2594 75.7964 69.999C75.6748 69.9295 72.7583 68.1414 69.7202 70.4677C69.3383 70.7628 69.2689 71.3184 69.564 71.7003C69.8591 72.0822 70.4147 72.1517 70.7966 71.8565C72.8798 70.2594 74.8589 71.4746 74.8763 71.4746C75.154 71.6656 75.4839 71.6656 75.7443 71.5267Z" fill="white"/>
<path d="M69.3273 31.2327C62.036 34.5138 56.3071 40.5899 53.7551 48.159C52.158 52.8984 50.8212 59.1655 57.4876 58.3495C75.6812 56.1448 85.4204 37.2567 85.4204 37.2567C85.4204 37.2567 88.9619 54.6518 103.249 52.5338C117.537 50.3985 117.086 39.6351 108.961 33.5416C102.347 28.5592 85.4898 23.9414 69.3273 31.2327Z" fill="#2B2B39"/>
<path d="M102.686 50.5164C102.686 50.5164 110.81 59.2486 107.894 68.6406C104.977 78.0325 104.786 85.5669 107.825 90.6187C107.825 90.6187 108.606 80.7233 112.234 73.2237C115.203 67.0608 117.98 62.3735 115.828 55.2731C114.352 50.4122 110.793 45.7249 102.686 50.5164Z" fill="#2B2B39"/>
<path d="M115.918 93.1386C122.22 94.6663 127.098 93.7809 130.709 91.5067C131.282 91.1422 131.82 90.7429 132.341 90.3262C139.91 83.9897 140.466 70.848 135.83 64.4073C134.199 62.1331 132.306 60.6054 130.31 59.6332C129.702 59.3207 129.095 59.0777 128.487 58.8867C120.658 56.3174 112.168 61.022 112.168 61.022C103.28 85.4306 115.918 93.1386 115.918 93.1386Z" fill="#4E5459"/>
<path d="M93.7354 103.81C112.155 100.042 119.984 86.7792 120.349 86.1368C120.644 85.6334 120.47 84.9737 119.949 84.6786C119.446 84.3834 118.786 84.557 118.491 85.0779C118.37 85.2862 108.804 101.362 86.4788 102.577C85.8885 102.612 85.4372 103.115 85.4719 103.705C85.5066 104.296 86.0101 104.747 86.6003 104.712C89.1349 104.573 91.5133 104.261 93.7354 103.81Z" fill="white"/>
<path d="M80.6124 104.438C80.9944 106.279 82.7999 107.476 84.6401 107.095C86.4803 106.713 87.6781 104.907 87.2962 103.067C86.9143 101.227 85.1088 100.029 83.2686 100.411C81.4284 100.793 80.2305 102.581 80.6124 104.438Z" fill="#243434"/>
<path d="M130.714 91.5107C131.287 91.1461 131.825 90.7468 132.346 90.3302C126.513 77.1363 128.492 65.6091 130.332 59.6371C129.724 59.3246 129.117 59.0816 128.509 58.8906C126.53 65.2098 124.395 77.5183 130.714 91.5107Z" fill="#9D9EA4"/>
<path d="M55.931 43.2127C57.4761 40.3135 59.1947 38.3865 60.0454 37.4317C60.7572 35.3658 61.521 33.4215 62.6668 31.616C66.5208 25.5052 72.6143 21.7553 80.8083 20.488C89.6448 19.1166 97.318 20.8699 103.602 25.6788C105.564 27.1717 107.3 28.9251 108.863 30.8001C111.015 33.4215 112.803 36.3206 114.262 39.2198C119.331 49.3582 120.546 59.7744 120.563 59.9133L122.977 59.6529C122.872 58.6634 120.147 35.2617 105.095 23.7344C98.2728 18.5089 89.9746 16.5993 80.4438 18.0749C71.5206 19.4464 64.8542 23.5782 60.6183 30.314C58.1358 34.2027 56.6949 38.6643 55.931 43.2127Z" fill="white"/>
</g>
<defs>
<clipPath id="clip0_501_52745">
<path d="M31 0H169.378V90.8108C169.378 129.023 138.401 160 100.189 160C61.9771 160 31 129.023 31 90.8108V0Z" fill="white"/>
</clipPath>
</defs>
</svg>
