<svg width="20" height="20" viewBox="0 0 20 20" fill="none" xmlns="http://www.w3.org/2000/svg">
<path d="M17.8086 17.8125V17.8118H17.8125V12.0814C17.8125 9.27799 17.209 7.11849 13.9316 7.11849C12.3561 7.11849 11.2988 7.98307 10.8672 8.80273H10.8216V7.38021H7.71419V17.8118H10.9499V12.6465C10.9499 11.2865 11.2077 9.97135 12.8919 9.97135C14.5514 9.97135 14.5762 11.5234 14.5762 12.7337V17.8125H17.8086Z" fill="white"/>
<path d="M2.44531 7.38086H5.6849V17.8125H2.44531V7.38086Z" fill="white"/>
<path d="M4.0638 2.1875C3.02799 2.1875 2.1875 3.02799 2.1875 4.0638C2.1875 5.09961 3.02799 5.95768 4.0638 5.95768C5.09961 5.95768 5.9401 5.09961 5.9401 4.0638C5.93945 3.02799 5.09896 2.1875 4.0638 2.1875Z" fill="white"/>
</svg>
