<svg width="20" height="20" viewBox="0 0 20 20" fill="none" xmlns="http://www.w3.org/2000/svg">
<path d="M17.4484 6.18203C18.2109 5.64062 18.8523 4.96484 19.375 4.18672V4.18594C18.6773 4.49141 17.9352 4.69453 17.1602 4.79297C17.957 4.31719 18.5656 3.56953 18.8516 2.66875C18.1086 3.11172 17.2883 3.42422 16.4141 3.59922C15.7086 2.84766 14.7031 2.38281 13.6062 2.38281C11.4781 2.38281 9.76484 4.11016 9.76484 6.22734C9.76484 6.53203 9.79062 6.825 9.8539 7.1039C6.65859 6.94765 3.83047 5.4164 1.93047 3.08281C1.59922 3.65859 1.40391 4.31719 1.40391 5.02578C1.40391 6.35703 2.08906 7.53672 3.11172 8.22031C2.49375 8.20859 1.88828 8.0289 1.375 7.74687V7.78906C1.375 9.65703 2.70703 11.2086 4.45469 11.5664C4.1414 11.6523 3.80078 11.693 3.44687 11.693C3.20078 11.693 2.95234 11.6789 2.71953 11.6273C3.21719 13.1492 4.63125 14.2687 6.31094 14.3055C5.00312 15.3281 3.34219 15.9445 1.54453 15.9445C1.22969 15.9445 0.927344 15.9305 0.625 15.8922C2.32812 16.9898 4.34531 17.6172 6.52187 17.6172C13.3055 17.6172 17.7266 11.9578 17.4484 6.18203Z" fill="white"/>
</svg>
