<svg width="30" height="30" viewBox="0 0 30 30" fill="none" xmlns="http://www.w3.org/2000/svg">
<path d="M15 30C6.72821 30 0 23.2718 0 15C0 6.72823 6.72821 0 15 0C23.2717 0 30 6.72823 30 15C30 23.2718 23.2717 30 15 30ZM15 2.11741C7.89575 2.11741 2.1174 7.89578 2.1174 15C2.1174 22.1042 7.89575 27.8826 15 27.8826C22.1042 27.8826 27.8826 22.1042 27.8826 15C27.9024 7.89578 22.1042 2.11741 15 2.11741Z" fill="white"/>
<path d="M12.4385 21.1408C12.4187 21.1408 12.3989 21.1408 12.3792 21.1408C12.0823 21.121 11.8053 20.9825 11.6074 20.745L8.03135 16.4961C7.67515 16.0409 7.73452 15.3879 8.18966 15.0119C8.64481 14.6557 9.29784 14.7151 9.67383 15.1702L12.5177 18.5088L20.5146 10.5119C20.9302 10.0963 21.5832 10.0963 21.9988 10.5119C22.4144 10.9274 22.4144 11.5805 21.9988 11.996L13.1707 20.8241C12.9728 21.022 12.7156 21.1408 12.4385 21.1408Z" fill="white"/>
</svg>
