<svg width="40" height="40" viewBox="0 0 40 40" fill="none" xmlns="http://www.w3.org/2000/svg">
<circle cx="20" cy="20" r="20" fill="#EBEDF1"/>
<path d="M26.307 17.085C24.8018 10.4448 21.6646 8.67709 20.8643 7.4275C20.5343 6.87702 20.242 6.30483 19.9893 5.71484C19.947 6.30474 19.8694 6.67637 19.3679 7.1237C18.3612 8.02132 14.0855 11.5056 13.7256 19.0503C13.3904 26.0848 18.897 30.4225 19.6246 30.8708C20.184 31.1461 20.8653 30.8767 21.1976 30.624C23.8521 28.8022 27.479 23.9455 26.31 17.085" fill="#10AA50"/>
<path d="M20.2188 27.125C20.0802 28.8662 19.9809 29.8778 19.6289 30.8728C19.6289 30.8728 19.8599 32.5304 20.0222 34.2863H20.5963C20.7333 33.0498 20.9424 31.8224 21.2226 30.6103C20.4793 30.2445 20.2473 28.6528 20.2188 27.125Z" fill="#B8C4C2"/>
<path d="M21.2178 30.6102C20.4666 30.2632 20.2494 28.638 20.2159 27.124C20.4017 24.6264 20.4558 22.1208 20.3781 19.6176C20.3388 18.3041 20.3968 7.45206 20.0547 5.86328C20.2887 6.40138 20.5584 6.92328 20.8619 7.42551C21.6621 8.67608 24.8004 10.4438 26.3046 17.084C27.4765 23.9327 23.8693 28.7767 21.2178 30.6102Z" fill="#12924F"/>
</svg>
