<svg width="40" height="40" viewBox="0 0 40 40" fill="none" xmlns="http://www.w3.org/2000/svg">
<g clip-path="url(#clip0_501_19567)">
<circle cx="20" cy="20" r="20" fill="#007D7D"/>
<path d="M30.9488 27.3357C29.5341 27.3012 28.4377 27.4398 27.5182 27.8208C27.2529 27.9247 26.8285 27.9248 26.7931 28.2539C26.9346 28.3925 26.9523 28.6177 27.0761 28.8082C27.2884 29.1545 27.6596 29.6223 27.9956 29.8649C28.3669 30.142 28.7384 30.4191 29.1273 30.6616C29.817 31.0774 30.5951 31.3198 31.2671 31.7356C31.6562 31.9779 32.0451 32.2899 32.4341 32.5497C32.6287 32.6881 32.7524 32.9134 33 33V32.9481C32.8762 32.7921 32.8408 32.567 32.7171 32.3937C32.5404 32.2205 32.3634 32.0646 32.1866 31.8914C31.6738 31.2159 31.0372 30.6269 30.3475 30.142C29.7817 29.7609 28.5438 29.2412 28.3139 28.6003C28.3139 28.6003 28.2962 28.583 28.2785 28.5657C28.6676 28.5311 29.1273 28.3925 29.4987 28.2885C30.1 28.1326 30.6481 28.1673 31.2671 28.0114C31.5499 27.9421 31.8329 27.8555 32.1158 27.7689V27.6131C31.7977 27.3012 31.5677 26.8855 31.2317 26.591C30.3299 25.8287 29.3395 25.0841 28.3139 24.4605C27.7657 24.1141 27.0583 23.8888 26.4748 23.5944C26.2627 23.4903 25.9089 23.4385 25.7852 23.2653C25.4668 22.8842 25.29 22.3819 25.0601 21.9315C24.5475 20.9787 24.0522 19.9223 23.6101 18.9176C23.2919 18.2421 23.0973 17.5665 22.7083 16.9429C20.8869 13.9983 18.9064 12.2142 15.8648 10.4647C15.2105 10.1009 14.4325 9.94501 13.6014 9.75452C13.1594 9.73713 12.7172 9.70258 12.2751 9.68519C11.9922 9.56392 11.7092 9.23488 11.4616 9.07894C10.4539 8.4553 7.85428 7.10435 7.11156 8.88845C6.63408 10.0143 7.81889 11.1229 8.22558 11.6945C8.52633 12.0929 8.91528 12.5432 9.1275 12.9937C9.25131 13.2879 9.28658 13.5999 9.41039 13.9117C9.69339 14.6737 9.95853 15.5226 10.3299 16.2328C10.5245 16.5965 10.7366 16.9776 10.9842 17.3067C11.1257 17.4971 11.3732 17.5839 11.4263 17.8956C11.1788 18.2421 11.1611 18.7617 11.0195 19.1947C10.383 21.152 10.6306 23.5771 11.5324 25.0147C11.8153 25.4477 12.4873 26.4006 13.3891 26.0367C14.1849 25.725 14.0081 24.7376 14.2379 23.8715C14.2911 23.6636 14.2557 23.5251 14.3617 23.3866C14.3618 23.4038 14.3617 23.4212 14.3617 23.4212C14.6093 23.9062 14.8568 24.3739 15.0867 24.8589C15.6349 25.7076 16.5898 26.591 17.3855 27.18C17.8101 27.4917 18.146 28.0287 18.6765 28.2193V28.1673H18.6411C18.5349 28.0113 18.3759 27.9421 18.2344 27.8208C17.9161 27.5091 17.5624 27.128 17.3149 26.7815C16.5722 25.8115 15.9178 24.7376 15.3343 23.629C15.0514 23.0921 14.8038 22.5031 14.5739 21.9662C14.4678 21.7582 14.4678 21.4465 14.2909 21.3427C14.0257 21.7236 13.6368 22.0528 13.4422 22.5205C13.1064 23.2653 13.0709 24.1833 12.9471 25.136C12.8764 25.1534 12.9117 25.136 12.8763 25.1707C12.3105 25.032 12.1159 24.4605 11.9037 23.9754C11.3732 22.7456 11.2848 20.7709 11.7446 19.3507C11.8684 18.9869 12.3989 17.8437 12.1867 17.4973C12.0806 17.1681 11.7269 16.9776 11.5324 16.7178C11.3025 16.3886 11.0549 15.973 10.8958 15.6092C10.4714 14.6392 10.2592 13.5653 9.79944 12.5952C9.58722 12.1448 9.21592 11.6772 8.91528 11.2615C8.57936 10.7938 8.20794 10.4647 7.94269 9.91035C7.85438 9.71985 7.73047 9.40809 7.87191 9.20021C7.9073 9.06166 7.97797 9.00972 8.11952 8.97505C8.34938 8.78445 9.00369 9.02699 9.23355 9.13088C9.88785 9.39059 10.436 9.63325 10.9842 9.99695C11.2317 10.1702 11.497 10.4993 11.8153 10.5859H12.1867C12.7526 10.7071 13.3891 10.6206 13.9196 10.7764C14.8569 11.0708 15.7056 11.5039 16.4661 11.9716C18.7827 13.4093 20.6923 15.4533 21.9833 17.8956C22.1955 18.2939 22.2838 18.6578 22.4784 19.0735C22.8498 19.9223 23.3096 20.7883 23.6809 21.6198C24.0522 22.4338 24.4058 23.2653 24.9363 23.9409C25.2017 24.3045 26.2626 24.4951 26.74 24.6857C27.0937 24.8415 27.642 24.9802 27.9602 25.1707C28.5614 25.5343 29.1627 25.9501 29.7286 26.3485C30.0116 26.5563 30.8956 26.9894 30.9488 27.3357Z" fill="white"/>
<path d="M12.9116 12.2833C12.6109 12.2833 12.3988 12.3181 12.1866 12.37C12.1866 12.3699 12.1866 12.3874 12.1866 12.4047H12.222C12.3636 12.6818 12.6109 12.8724 12.7878 13.1148C12.9293 13.3919 13.053 13.6691 13.1946 13.9463C13.2122 13.929 13.2299 13.9117 13.2299 13.9117C13.4776 13.7384 13.6013 13.4613 13.6013 13.0456C13.4951 12.9243 13.4775 12.8031 13.3891 12.6818C13.283 12.5085 13.053 12.422 12.9116 12.2833Z" fill="white"/>
</g>
<defs>
<clipPath id="clip0_501_19567">
<rect width="40" height="40" fill="white"/>
</clipPath>
</defs>
</svg>
