<svg width="40" height="40" viewBox="0 0 40 40" fill="none" xmlns="http://www.w3.org/2000/svg">
<g clip-path="url(#clip0_501_19550)">
<path d="M29.0184 29.1721C29.2606 27.1547 29.188 26.8588 30.6907 27.1856L31.0722 27.2191C32.2277 27.2717 33.7392 27.0333 34.6272 26.6207C36.5387 25.7338 37.6722 24.2529 35.7873 24.642C31.4878 25.529 31.1922 24.0731 31.1922 24.0731C35.7323 17.3368 37.6302 8.78574 35.992 6.69261C31.5238 0.983308 23.7895 3.68311 23.6601 3.7532L23.6189 3.76081C22.7694 3.58454 21.8186 3.47923 20.7506 3.46196C18.8049 3.42999 17.3286 3.97204 16.2087 4.82148C16.2087 4.82148 2.41108 -0.862946 3.05297 11.9702C3.18949 14.7002 6.96611 32.6275 11.4704 27.2126C13.1168 25.2326 14.7078 23.5584 14.7078 23.5584C15.4978 24.0833 16.4437 24.351 17.4357 24.2548L17.5124 24.1894C17.4883 24.4353 17.4989 24.6758 17.543 24.9604C16.3829 26.2569 16.7238 26.4846 14.4039 26.9621C12.0568 27.4458 13.4357 28.3071 14.3357 28.5321C15.4272 28.8051 17.9521 29.1917 19.6586 26.8033L19.5906 27.0759C20.0458 27.44 20.015 29.6933 20.0796 31.3031C20.1442 32.9131 20.252 34.4155 20.5802 35.3013C20.9083 36.1869 21.2956 38.4684 24.3445 37.815C26.8926 37.2689 28.8409 36.483 29.0184 29.1721" fill="black"/>
<path d="M29.0184 29.1721C29.2606 27.1547 29.188 26.8588 30.6907 27.1856L31.0722 27.2191C32.2277 27.2717 33.7392 27.0333 34.6272 26.6207C36.5387 25.7338 37.6722 24.2529 35.7873 24.642C31.4878 25.529 31.1922 24.0731 31.1922 24.0731C35.7323 17.3368 37.6302 8.78574 35.992 6.69261C31.5238 0.983308 23.7895 3.68311 23.6601 3.7532L23.6189 3.76081C22.7694 3.58454 21.8186 3.47923 20.7506 3.46196C18.8049 3.42999 17.3286 3.97204 16.2087 4.82148C16.2087 4.82148 2.41108 -0.862946 3.05297 11.9702C3.18949 14.7002 6.96611 32.6275 11.4704 27.2126C13.1168 25.2326 14.7078 23.5584 14.7078 23.5584C15.4978 24.0833 16.4437 24.351 17.4357 24.2548L17.5124 24.1894C17.4883 24.4353 17.4989 24.6758 17.543 24.9604C16.3829 26.2569 16.7238 26.4846 14.4039 26.9621C12.0568 27.4458 13.4357 28.3071 14.3357 28.5321C15.4272 28.8051 17.9521 29.1917 19.6586 26.8033L19.5906 27.0759C20.0458 27.44 20.015 29.6933 20.0796 31.3031C20.1442 32.9131 20.252 34.4155 20.5802 35.3013C20.9083 36.1869 21.2956 38.4684 24.3445 37.815C26.8926 37.2689 28.8409 36.483 29.0184 29.1721" stroke="black" stroke-width="4.5"/>
<path d="M35.7882 24.6419C31.4882 25.5289 31.1926 24.0731 31.1926 24.0731C35.7327 17.3363 37.6306 8.78509 35.9928 6.69222C31.5246 0.98326 23.7899 3.68323 23.6609 3.75332L23.6193 3.76076C22.7698 3.58441 21.819 3.47935 20.7505 3.46191C18.8048 3.43003 17.329 3.97199 16.2091 4.82126C16.2091 4.82126 2.41124 -0.862908 3.05296 11.9702C3.18948 14.7003 6.96601 32.6276 11.4705 27.2127C13.1169 25.2327 14.7077 23.5585 14.7077 23.5585C15.4978 24.0834 16.4436 24.3511 17.4352 24.255L17.5123 24.1896C17.4883 24.4354 17.4993 24.6759 17.5431 24.9605C16.3827 26.2571 16.7237 26.4847 14.4039 26.9622C12.0567 27.4459 13.4356 28.3072 14.3359 28.5323C15.4273 28.8052 17.9524 29.1918 19.6586 26.8035L19.5905 27.076C20.0452 27.4401 20.3645 29.4448 20.311 31.262C20.2575 33.0793 20.2217 34.3269 20.58 35.3014C20.9382 36.2759 21.2953 38.4685 24.3448 37.8151C26.893 37.269 28.2134 35.8539 28.3971 33.4935C28.5275 31.8154 28.8225 32.0635 28.8411 30.5632L29.0777 29.8529C29.3506 27.5781 29.1211 26.8442 30.691 27.1856L31.0725 27.2191C32.2279 27.2716 33.7402 27.0332 34.6278 26.6207C36.539 25.7337 37.6725 24.2528 35.788 24.6419H35.7882Z" fill="#336791"/>
<path d="M19.8441 25.9453C19.7257 30.1781 19.8739 34.4403 20.288 35.4762C20.7025 36.5121 21.5894 38.5269 24.6391 37.8736C27.187 37.3273 28.1141 36.2702 28.5163 33.937C28.8126 32.2203 29.3838 27.4528 29.4571 26.476" stroke="white" stroke-width="1.5" stroke-linecap="round" stroke-linejoin="round"/>
<path d="M16.1871 4.72396C16.1871 4.72396 2.37982 -0.919266 3.02171 11.9138C3.15822 14.644 6.93502 32.5719 11.4394 27.1567C13.0855 25.1764 14.5742 23.6233 14.5742 23.6233" stroke="white" stroke-width="1.5" stroke-linecap="round" stroke-linejoin="round"/>
<path d="M23.6451 3.69503C23.1672 3.84488 31.3255 0.712628 35.962 6.63709C37.5998 8.73004 35.7019 17.2813 31.1619 24.0182" stroke="white" stroke-width="1.5" stroke-linecap="round" stroke-linejoin="round"/>
<path d="M31.1631 24.0192C31.1631 24.0192 31.4589 25.4754 35.759 24.5879C37.643 24.1988 36.5092 25.6798 34.5984 26.5672C33.0302 27.295 29.5144 27.4815 29.4569 26.4758C29.3091 23.881 31.3074 24.6693 31.1632 24.0192C31.0328 23.4336 30.1392 22.8589 29.5481 21.4258C29.032 20.1749 22.4704 10.5824 31.3677 12.0071C31.6937 11.9396 29.0472 3.5441 20.7206 3.40759C12.3959 3.27107 12.669 13.6452 12.669 13.6452" stroke="white" stroke-width="1.5" stroke-linecap="round" stroke-linejoin="bevel"/>
<path d="M17.5112 24.9059C16.3506 26.2023 16.6919 26.4299 14.372 26.9076C12.0247 27.3915 13.4038 28.2525 14.3039 28.4775C15.3953 28.7506 17.9204 29.1373 19.6265 26.7483C20.1461 26.0209 19.6235 24.8603 18.9098 24.5645C18.5649 24.4216 18.1038 24.2426 17.5112 24.9059V24.9059Z" stroke="white" stroke-width="1.5" stroke-linecap="round" stroke-linejoin="round"/>
<path d="M17.4348 24.8837C17.3179 24.1214 17.6853 23.2144 18.079 22.1532C18.6707 20.561 20.036 18.9685 18.9439 13.9179C18.1298 10.1542 12.6698 13.1346 12.6664 13.6449C12.663 14.1551 12.9133 16.2316 12.5751 18.6498C12.1339 21.8052 14.583 24.4739 17.4031 24.2008" stroke="white" stroke-width="1.5" stroke-linecap="round" stroke-linejoin="round"/>
<path d="M16.138 13.5697C16.1133 13.744 16.4571 14.2091 16.9053 14.2713C17.3527 14.3337 17.7356 13.9702 17.7599 13.7961C17.7842 13.6218 17.4409 13.4298 16.9925 13.3674C16.5449 13.3049 16.1617 13.3958 16.138 13.5697H16.138Z" fill="white" stroke="white" stroke-width="1.5"/>
<path d="M29.7643 13.2142C29.7886 13.3885 29.4453 13.8536 28.997 13.9158C28.5493 13.9782 28.1663 13.6147 28.1418 13.4406C28.1181 13.2663 28.4615 13.0743 28.9093 13.0119C29.3572 12.9495 29.74 13.0403 29.7643 13.2143V13.2142Z" fill="white" stroke="white" stroke-width="1.5"/>
<path d="M31.3658 12.0039C31.4395 13.3711 31.0713 14.3024 31.0249 15.7578C30.9561 17.8733 32.0335 20.2947 30.4102 22.7191" stroke="white" stroke-width="1.5" stroke-linecap="round" stroke-linejoin="round"/>
</g>
<defs>
<clipPath id="clip0_501_19550">
<rect width="40" height="40" fill="white"/>
</clipPath>
</defs>
</svg>
