<svg width="40" height="40" viewBox="0 0 40 40" fill="none" xmlns="http://www.w3.org/2000/svg">
<path d="M19.5469 0.001742C17.9153 0.00932333 16.3574 0.148457 14.9874 0.391131C10.9476 1.10477 10.2144 2.5979 10.2144 5.35281V8.99042H19.7569V10.2027H10.2144H6.6337C3.86028 10.2027 1.42999 11.8699 0.671854 15.0398C-0.204448 18.6739 -0.243245 20.9447 0.671854 24.7389C1.35026 27.5643 2.97046 29.576 5.74387 29.576H9.0252V25.2159C9.0252 22.0659 11.7506 19.2861 14.987 19.2861H24.5189C27.1723 19.2861 29.2919 17.1014 29.2919 14.4383V5.35138C29.2919 2.76519 27.11 0.823943 24.5189 0.389707C22.8795 0.116815 21.1785 -0.00715617 19.5465 0.000318376L19.5469 0.001742ZM14.3859 2.92714C15.3718 2.92714 16.1766 3.74542 16.1766 4.75128C16.1766 5.75359 15.3714 6.5644 14.3859 6.5644C13.3967 6.5644 12.5952 5.75394 12.5952 4.75128C12.5952 3.74542 13.3967 2.92714 14.3859 2.92714Z" fill="url(#paint0_linear_501_19546)"/>
<path d="M30.4816 10.1992V14.4384C30.4816 17.724 27.696 20.4892 24.5197 20.4892H14.9879C12.3768 20.4892 10.2148 22.7237 10.2148 25.337V34.4239C10.2148 37.0101 12.464 38.5313 14.9879 39.2717C18.0087 40.1601 20.907 40.3206 24.5197 39.2717C26.9222 38.5762 29.2927 37.1759 29.2927 34.4239V30.7863H19.7609V29.574H29.2927H34.0658C36.8392 29.574 37.8742 27.6395 38.8388 24.7369C39.8351 21.7474 39.7927 18.8711 38.8388 15.0377C38.1533 12.2768 36.8442 10.2006 34.0658 10.2006H30.4851L30.4816 10.1992ZM25.1212 33.2137C26.1104 33.2137 26.9119 34.0242 26.9119 35.0268C26.9119 36.0327 26.1104 36.851 25.1212 36.851C24.1353 36.851 23.3305 36.0327 23.3305 35.0268C23.3305 34.0245 24.1357 33.2137 25.1212 33.2137Z" fill="url(#paint1_linear_501_19546)"/>
<defs>
<linearGradient id="paint0_linear_501_19546" x1="-0.000633119" y1="0.000959062" x2="22.0128" y2="18.7526" gradientUnits="userSpaceOnUse">
<stop stop-color="#5A9FD4"/>
<stop offset="1" stop-color="#306998"/>
</linearGradient>
<linearGradient id="paint1_linear_501_19546" x1="24.8961" y1="34.7329" x2="16.9863" y2="23.666" gradientUnits="userSpaceOnUse">
<stop stop-color="#FFD43B"/>
<stop offset="1" stop-color="#FFE873"/>
</linearGradient>
</defs>
</svg>
