<svg width="18" height="18" viewBox="0 0 18 18" fill="none" xmlns="http://www.w3.org/2000/svg">
<path opacity="0.6" d="M11.5482 12.2326L11.6189 12.3034L11.6897 12.2327L12.2327 11.6897L12.3035 11.6189L12.2326 11.5482L9.481 8.80144V3.66671V3.56671H9.381H8.619H8.519V3.66671V9.15709V9.19846L8.54823 9.22774L11.5482 12.2326ZM0.9 9C0.9 13.4647 4.53531 17.1 9 17.1C13.4647 17.1 17.1 13.4647 17.1 9C17.1 4.53531 13.4647 0.9 9 0.9C4.53531 0.9 0.9 4.53531 0.9 9ZM1.86186 9C1.86186 5.06471 5.06471 1.86186 9 1.86186C12.9353 1.86186 16.1381 5.06471 16.1381 9C16.1381 12.9353 12.9353 16.1381 9 16.1381C5.06471 16.1381 1.86186 12.9353 1.86186 9Z" fill="#131313" stroke="#131313" stroke-width="0.2"/>
</svg>
