<svg width="40" height="40" viewBox="0 0 40 40" fill="none" xmlns="http://www.w3.org/2000/svg">
<path d="M27.8168 17.2918V17.3918H27.9168H30.6875C34.3432 17.3918 37.3168 20.365 37.3168 24.0207C37.3168 27.6764 34.3432 30.65 30.6875 30.65H10.5C6.19111 30.65 2.68324 27.1421 2.68324 22.8332C2.68324 18.5246 6.19111 15.0168 10.5 15.0168H11.9548H12.031L12.0512 14.9433L12.2093 14.3701C12.2093 14.37 12.2094 14.3698 12.2094 14.3697C13.1467 11.0804 16.4203 8.68324 20 8.68324C24.3089 8.68324 27.8168 12.1911 27.8168 16.5V17.2918ZM10.5 32.4332H30.6875C35.3246 32.4332 39.1 28.6578 39.1 24.0207C39.1 19.384 35.3246 15.6082 30.6875 15.6082H29.562C29.1084 10.7319 24.989 6.9 20 6.9C15.877 6.9 12.0788 9.52604 10.7072 13.2332H10.5C5.20974 13.2332 0.9 17.5433 0.9 22.8332C0.9 28.1235 5.20974 32.4332 10.5 32.4332Z" fill="url(#paint0_linear_501_19585)" stroke="url(#paint1_linear_501_19585)" stroke-width="0.2"/>
<defs>
<linearGradient id="paint0_linear_501_19585" x1="38.879" y1="9.43587" x2="0.773523" y2="10.7837" gradientUnits="userSpaceOnUse">
<stop stop-color="#21C8ED"/>
<stop offset="1" stop-color="#2ACA3A"/>
</linearGradient>
<linearGradient id="paint1_linear_501_19585" x1="38.879" y1="9.43587" x2="0.773523" y2="10.7837" gradientUnits="userSpaceOnUse">
<stop stop-color="#21C8ED"/>
<stop offset="1" stop-color="#2ACA3A"/>
</linearGradient>
</defs>
</svg>
