<svg width="40" height="40" viewBox="0 0 40 40" fill="none" xmlns="http://www.w3.org/2000/svg">
<path d="M18.4 18.4H4V4H18.4V18.4ZM5.5999 16.8001H16.8001V5.5999H5.5999V16.8001Z" fill="url(#paint0_linear_501_19581)"/>
<path d="M36 18.4H21.6V4H36V18.4ZM23.1999 16.8001H34.3998V5.5999H23.1999V16.8001Z" fill="url(#paint1_linear_501_19581)"/>
<path d="M18.4 36H4V21.6H18.4V36ZM5.5999 34.3998H16.8001V23.1999H5.5999V34.3998Z" fill="url(#paint2_linear_501_19581)"/>
<path d="M36 36H21.6V21.6H36V36ZM23.1999 34.3998H34.3998V23.1999H23.1999V34.3998Z" fill="url(#paint3_linear_501_19581)"/>
<defs>
<linearGradient id="paint0_linear_501_19581" x1="35.8981" y1="7.07691" x2="3.78699" y2="7.83413" gradientUnits="userSpaceOnUse">
<stop stop-color="#F2BB38"/>
<stop offset="1" stop-color="#F37A36"/>
</linearGradient>
<linearGradient id="paint1_linear_501_19581" x1="35.8981" y1="7.07691" x2="3.78699" y2="7.83413" gradientUnits="userSpaceOnUse">
<stop stop-color="#F2BB38"/>
<stop offset="1" stop-color="#F37A36"/>
</linearGradient>
<linearGradient id="paint2_linear_501_19581" x1="35.8981" y1="7.07691" x2="3.78699" y2="7.83413" gradientUnits="userSpaceOnUse">
<stop stop-color="#F2BB38"/>
<stop offset="1" stop-color="#F37A36"/>
</linearGradient>
<linearGradient id="paint3_linear_501_19581" x1="35.8981" y1="7.07691" x2="3.78699" y2="7.83413" gradientUnits="userSpaceOnUse">
<stop stop-color="#F2BB38"/>
<stop offset="1" stop-color="#F37A36"/>
</linearGradient>
</defs>
</svg>
