<svg width="40" height="40" viewBox="0 0 40 40" fill="none" xmlns="http://www.w3.org/2000/svg">
<path d="M34.2728 36.7379H6.45455C5.10443 36.7379 4 35.6331 4 34.2825V6.45535C4 5.10479 5.10443 4 6.45455 4H34.2728C35.6227 4 36.7274 5.10479 36.7274 6.45535V18.814H35.0908V6.45535C35.0908 6.00517 34.7229 5.6368 34.2728 5.6368H6.45455C6.00451 5.6368 5.63626 6.00517 5.63626 6.45535V34.2825C5.63626 34.7327 6.00451 35.1011 6.45455 35.1011H34.2728C34.7229 35.1011 35.0908 34.7327 35.0908 34.2825V26.8346H36.7274V34.2825C36.7274 35.6331 35.6227 36.7379 34.2728 36.7379Z" fill="url(#paint0_linear_501_19595)"/>
<path d="M4.81791 10.5475H35.9087V12.1843H4.81791V10.5475Z" fill="url(#paint1_linear_501_19595)"/>
<path d="M32.6362 7.27376H30.9999V8.91086H32.6362V7.27376Z" fill="url(#paint2_linear_501_19595)"/>
<path d="M28.5456 7.27376H26.9093V8.91086H28.5456V7.27376Z" fill="url(#paint3_linear_501_19595)"/>
<path d="M24.4548 7.27376H22.8182V8.91086H24.4548V7.27376Z" fill="url(#paint4_linear_501_19595)"/>
<path d="M33.4548 18.7322H35.0911V26.9165H33.4548V18.7322Z" fill="url(#paint5_linear_501_19595)"/>
<path fill-rule="evenodd" clip-rule="evenodd" d="M20.1182 27.7352H35.0909C37.8013 27.7352 40 25.5355 40 22.8245C40 20.1134 37.8013 17.9137 35.0909 17.9137H20.1182L12.5398 22.8245L20.1182 27.7352ZM19.5459 20.2396L15.557 22.8245L19.5459 25.4093V20.2396ZM21.1822 19.5505H35.0909C36.8911 19.5505 38.3637 21.024 38.3637 22.8245C38.3637 24.6249 36.8911 26.0984 35.0909 26.0984H21.1822V19.5505ZM21.1822 19.5505V18.7322H19.5459V20.2396L20.6093 19.5505H21.1822Z" fill="url(#paint6_linear_501_19595)"/>
<path d="M21.1822 18.7322H19.5459V20.2396L20.6093 19.5505H21.1822V18.7322Z" fill="url(#paint7_linear_501_19595)"/>
<defs>
<linearGradient id="paint0_linear_501_19595" x1="39.8853" y1="7.14785" x2="3.76456" y2="8.0845" gradientUnits="userSpaceOnUse">
<stop stop-color="#F21111"/>
<stop offset="1" stop-color="#FF57E5"/>
</linearGradient>
<linearGradient id="paint1_linear_501_19595" x1="39.8853" y1="7.14785" x2="3.76456" y2="8.0845" gradientUnits="userSpaceOnUse">
<stop stop-color="#F21111"/>
<stop offset="1" stop-color="#FF57E5"/>
</linearGradient>
<linearGradient id="paint2_linear_501_19595" x1="39.8853" y1="7.14785" x2="3.76456" y2="8.0845" gradientUnits="userSpaceOnUse">
<stop stop-color="#F21111"/>
<stop offset="1" stop-color="#FF57E5"/>
</linearGradient>
<linearGradient id="paint3_linear_501_19595" x1="39.8853" y1="7.14785" x2="3.76456" y2="8.0845" gradientUnits="userSpaceOnUse">
<stop stop-color="#F21111"/>
<stop offset="1" stop-color="#FF57E5"/>
</linearGradient>
<linearGradient id="paint4_linear_501_19595" x1="39.8853" y1="7.14785" x2="3.76456" y2="8.0845" gradientUnits="userSpaceOnUse">
<stop stop-color="#F21111"/>
<stop offset="1" stop-color="#FF57E5"/>
</linearGradient>
<linearGradient id="paint5_linear_501_19595" x1="39.8853" y1="7.14785" x2="3.76456" y2="8.0845" gradientUnits="userSpaceOnUse">
<stop stop-color="#F21111"/>
<stop offset="1" stop-color="#FF57E5"/>
</linearGradient>
<linearGradient id="paint6_linear_501_19595" x1="39.8853" y1="7.14785" x2="3.76456" y2="8.0845" gradientUnits="userSpaceOnUse">
<stop stop-color="#F21111"/>
<stop offset="1" stop-color="#FF57E5"/>
</linearGradient>
<linearGradient id="paint7_linear_501_19595" x1="39.8853" y1="7.14785" x2="3.76456" y2="8.0845" gradientUnits="userSpaceOnUse">
<stop stop-color="#F21111"/>
<stop offset="1" stop-color="#FF57E5"/>
</linearGradient>
</defs>
</svg>
