<svg width="683" height="687" viewBox="0 0 683 687" fill="none" xmlns="http://www.w3.org/2000/svg">
<rect x="201.035" width="2.47403" height="274.617" fill="#C1E4F7"/>
<path d="M419.986 25.9785H470.122V71.1419H419.986V25.9785Z" fill="white" fill-opacity="0.7"/>
<path d="M387.242 62.48L337.105 62.48V17.3166L387.242 17.3166V62.48Z" fill="white" fill-opacity="0.7"/>
<path d="M381.769 20.4752L341.999 20.4752C341.245 20.4752 340.639 21.0813 340.639 21.8359V22.4791C340.639 23.2337 341.245 23.8398 341.999 23.8398L381.769 23.8398C382.524 23.8398 383.13 23.2337 383.13 22.4791V21.8359C383.118 21.0937 382.512 20.4752 381.769 20.4752Z" fill="#C1E4F7"/>
<path d="M366.35 31.0127L343.02 31.0127C342.105 31.0127 341.301 30.3076 341.276 29.3922C341.251 28.4397 342.006 27.6604 342.946 27.6604L366.35 27.6604C367.278 27.6604 368.033 28.415 368.033 29.3427C368.033 30.2581 367.278 31.0127 366.35 31.0127Z" fill="#C1E4F7"/>
<path d="M276.555 25.9785H326.691V71.1419H276.555V25.9785Z" fill="#F0C86A"/>
<path d="M220.825 13.6064H270.961V58.7698H220.825V13.6064Z" fill="white" fill-opacity="0.7"/>
<path d="M225.562 22.1796H264.689C265.617 22.1796 266.371 21.425 266.371 20.4973C266.371 19.5695 265.617 18.8149 264.689 18.8149H225.562C224.634 18.8149 223.88 19.5695 223.88 20.4973C223.892 21.4374 224.634 22.1796 225.562 22.1796Z" fill="#C1E4F7"/>
<path d="M226.453 26.2607H249.783C250.698 26.2607 251.502 26.9658 251.527 27.8812C251.551 28.8337 250.797 29.613 249.857 29.613H226.453C225.525 29.613 224.77 28.8585 224.77 27.9307C224.77 27.0153 225.525 26.2607 226.453 26.2607Z" fill="#C1E4F7"/>
<path opacity="0.5" d="M295.06 60.4754C294.949 60.4754 294.85 60.4631 294.738 60.4507C294.194 60.3517 293.724 60.0054 293.476 59.5229L289.877 52.6328C289.419 51.7545 289.753 50.6783 290.631 50.2206C291.51 49.7629 292.586 50.0969 293.044 50.9752L295.579 55.8366L312.551 40.7698C313.293 40.1142 314.419 40.1761 315.075 40.9183C315.73 41.6605 315.668 42.7862 314.926 43.4418L296.235 60.0301C295.913 60.3146 295.493 60.4754 295.06 60.4754Z" fill="#D03F23"/>
<path d="M133.059 25.9785H183.195V71.1419H133.059V25.9785Z" fill="#EEC0B1"/>
<path d="M119.417 64.7212L69.2812 64.7212L69.2812 19.5578L119.417 19.5578V64.7212Z" fill="white" fill-opacity="0.7"/>
<path d="M475.726 110.723H525.862V155.887H475.726V110.723Z" fill="white" fill-opacity="0.7"/>
<path d="M419.986 110.725H470.122V155.888H419.986V110.725Z" fill="white" fill-opacity="0.7"/>
<path d="M425.467 118.467H464.606C465.534 118.467 466.288 117.713 466.288 116.785C466.288 115.857 465.534 115.103 464.606 115.103H425.479C424.551 115.103 423.797 115.857 423.797 116.785C423.797 117.713 424.539 118.467 425.467 118.467Z" fill="#C1E4F7"/>
<path d="M475.726 160.501H525.862V205.664H475.726V160.501Z" fill="white" fill-opacity="0.7"/>
<path d="M419.986 160.501H470.122V205.664H419.986V160.501Z" fill="#EEC0B1"/>
<path d="M437.501 193.173C437.39 193.173 437.291 193.16 437.18 193.148C436.635 193.049 436.165 192.703 435.918 192.22L432.318 185.33C431.86 184.452 432.194 183.376 433.073 182.918C433.951 182.46 435.027 182.794 435.485 183.672L438.021 188.534L454.993 173.467C455.735 172.811 456.86 172.873 457.516 173.616C458.172 174.358 458.11 175.483 457.368 176.139L438.676 192.727C438.367 193.012 437.934 193.173 437.501 193.173Z" fill="white" fill-opacity="0.7"/>
<path d="M531.686 264.539H481.55V219.376H531.686V264.539Z" fill="#64A1E0"/>
<path d="M419.986 210.28H470.122V255.444H419.986V210.28Z" fill="white" fill-opacity="0.7"/>
<path d="M332.295 110.723H382.432V155.887H332.295V110.723Z" fill="white" fill-opacity="0.7"/>
<path d="M276.495 102.668H326.631V147.831H276.495V102.668Z" fill="#F0C86A"/>
<path d="M281.996 110.41H321.122C322.05 110.41 322.805 109.655 322.805 108.727C322.805 107.8 322.05 107.045 321.122 107.045H281.996C281.068 107.045 280.313 107.8 280.313 108.727C280.313 109.655 281.068 110.41 281.996 110.41Z" fill="#D1821F"/>
<path d="M220.825 110.725H270.961V155.888H220.825V110.725Z" fill="#F36D53"/>
<path opacity="0.5" d="M225.562 118.467H264.689C265.617 118.467 266.371 117.713 266.371 116.785C266.371 115.857 265.617 115.103 264.689 115.103H225.562C224.634 115.103 223.88 115.857 223.88 116.785C223.892 117.713 224.634 118.467 225.562 118.467Z" fill="white" fill-opacity="0.7"/>
<path opacity="0.5" d="M226.453 122.549H249.783C250.698 122.549 251.502 123.254 251.527 124.169C251.551 125.122 250.797 125.901 249.857 125.901H226.453C225.525 125.901 224.77 125.147 224.77 124.219C224.77 123.291 225.525 122.549 226.453 122.549Z" fill="white" fill-opacity="0.7"/>
<path d="M332.295 160.501H382.432V205.664H332.295V160.501Z" fill="white" fill-opacity="0.7"/>
<path d="M276.555 160.501H326.691V205.664H276.555V160.501Z" fill="white" fill-opacity="0.7"/>
<path d="M213.405 159.574H263.541V204.738H213.405V159.574Z" fill="white" fill-opacity="0.7"/>
<path d="M332.295 210.28H382.432V255.444H332.295V210.28Z" fill="#D5EAF7"/>
<path d="M348.611 242.108C348.499 242.108 348.4 242.095 348.289 242.083C347.745 241.984 347.275 241.638 347.027 241.155L343.428 234.265C342.97 233.387 343.304 232.311 344.182 231.853C345.06 231.395 346.137 231.729 346.594 232.608L349.13 237.469L366.102 222.402C366.844 221.747 367.97 221.808 368.625 222.551C369.281 223.293 369.219 224.418 368.477 225.074L349.786 241.662C349.464 241.947 349.044 242.108 348.611 242.108Z" fill="#F9FCFE"/>
<path d="M220.825 210.28H270.961V255.444H220.825V210.28Z" fill="white" fill-opacity="0.7"/>
<path d="M225.562 217.86H264.689C265.617 217.86 266.371 217.106 266.371 216.178C266.371 215.25 265.617 214.496 264.689 214.496H225.562C224.634 214.496 223.88 215.25 223.88 216.178C223.892 217.106 224.634 217.86 225.562 217.86Z" fill="#C1E4F7"/>
<path d="M226.32 224.468H265.447C266.374 224.468 267.129 223.714 267.129 222.786C267.129 221.858 266.374 221.104 265.447 221.104H226.32C225.392 221.104 224.638 221.858 224.638 222.786C224.65 223.726 225.392 224.468 226.32 224.468Z" fill="#C1E4F7"/>
<path d="M133.059 110.723H183.195V155.887H133.059V110.723Z" fill="#F0C86A"/>
<path d="M77.3326 110.725H127.469V155.888H77.3326V110.725Z" fill="white" fill-opacity="0.7"/>
<path d="M83.4409 118.9H122.568C123.495 118.9 124.25 118.145 124.25 117.217C124.25 116.29 123.495 115.535 122.568 115.535H83.4409C82.5132 115.535 81.7586 116.29 81.7586 117.217C81.7586 118.145 82.5132 118.9 83.4409 118.9Z" fill="#C1E4F7"/>
<path d="M84.3275 122.983H107.658C108.573 122.983 109.377 123.688 109.402 124.604C109.426 125.556 108.672 126.336 107.732 126.336H84.3275C83.3997 126.336 82.6452 125.581 82.6452 124.653C82.6576 123.726 83.4121 122.983 84.3275 122.983Z" fill="#C1E4F7"/>
<path d="M133.059 160.501H183.195V205.664H133.059V160.501Z" fill="white" fill-opacity="0.7"/>
<path d="M138.566 168.134H177.693C178.62 168.134 179.375 167.38 179.375 166.452C179.375 165.524 178.62 164.77 177.693 164.77H138.566C137.638 164.77 136.884 165.524 136.884 166.452C136.884 167.392 137.638 168.134 138.566 168.134Z" fill="#C1E4F7"/>
<path d="M118.554 202.278H68.418L68.418 157.115H118.554V202.278Z" fill="#F0C86A"/>
<path d="M85.9466 189.786C85.8352 189.786 85.7362 189.774 85.6249 189.762C85.0806 189.663 84.6106 189.316 84.3632 188.834L80.7635 181.944C80.3058 181.066 80.6398 179.989 81.5181 179.532C82.3963 179.074 83.4725 179.408 83.9302 180.286L86.4661 185.148L103.438 170.081C104.18 169.425 105.306 169.487 105.961 170.229C106.617 170.972 106.555 172.097 105.813 172.753L87.1217 189.341C86.8125 189.626 86.3795 189.786 85.9466 189.786Z" fill="white" fill-opacity="0.7"/>
<path d="M133.059 210.28H183.195V255.444H133.059V210.28Z" fill="white" fill-opacity="0.7"/>
<path d="M77.3326 210.28H127.469V255.444H77.3326V210.28Z" fill="white" fill-opacity="0.7"/>
<path d="M83.4331 217.86H122.56C123.488 217.86 124.242 217.106 124.242 216.178C124.242 215.25 123.488 214.496 122.56 214.496H83.4331C82.5054 214.496 81.7508 215.25 81.7508 216.178C81.7508 217.106 82.5054 217.86 83.4331 217.86Z" fill="#C1E4F7"/>
<path d="M84.3275 221.933H107.658C108.573 221.933 109.377 222.638 109.402 223.553C109.426 224.506 108.672 225.285 107.732 225.285H84.3275C83.3997 225.285 82.6452 224.53 82.6452 223.603C82.6576 222.687 83.4121 221.933 84.3275 221.933Z" fill="#C1E4F7"/>
<rect x="61.252" y="92.7764" width="2.47403" height="481.198" transform="rotate(-90 61.252 92.7764)" fill="#C1E4F7"/>
<rect x="400.195" width="2.47403" height="274.617" fill="#C1E4F7"/>
<path d="M327.3 261.309H277.164V216.146H327.3V261.309Z" fill="#60BD85"/>
<path opacity="0.5" d="M319.708 220.484H280.581C279.653 220.484 278.898 221.239 278.898 222.166C278.898 223.094 279.653 223.849 280.581 223.849H319.708C320.635 223.849 321.39 223.094 321.39 222.166C321.39 221.239 320.635 220.484 319.708 220.484Z" fill="white" fill-opacity="0.7"/>
<path opacity="0.5" d="M305.551 231.863H282.221C281.306 231.863 280.502 231.158 280.477 230.243C280.452 229.29 281.207 228.511 282.147 228.511H305.551C306.479 228.511 307.234 229.266 307.234 230.193C307.221 231.109 306.467 231.863 305.551 231.863Z" fill="white" fill-opacity="0.7"/>
<path d="M527.982 95.8662L477.846 95.8662V50.7028L527.982 50.7028V95.8662Z" fill="white" fill-opacity="0.7"/>
<path opacity="0.5" d="M493.756 83.242C493.645 83.242 493.546 83.2297 493.435 83.2173C492.89 83.1183 492.42 82.772 492.173 82.2895L488.573 75.3994C488.115 74.5211 488.449 73.4449 489.328 72.9872C490.206 72.5295 491.282 72.8635 491.74 73.7418L494.276 78.6032L511.247 63.5364C511.99 62.8808 513.115 62.9427 513.771 63.6849C514.427 64.4271 514.365 65.5528 513.623 66.2084L494.944 82.7967C494.61 83.0936 494.189 83.242 493.756 83.242Z" fill="#C1E4F7"/>
<path d="M295.801 322.761C295.801 322.761 257.51 340.982 255.607 338.426C253.704 335.87 269.406 327.246 269.406 327.246C269.406 327.246 242.048 334.922 240.245 332.241C238.418 329.552 252.169 324.102 252.169 324.102C252.169 324.102 233.506 328.597 232.401 325.046C231.28 321.463 253.795 316.645 253.795 316.645C253.795 316.645 236.479 317.931 235.79 313.835C235.1 309.739 280.788 305.451 280.788 305.451L295.801 322.761Z" fill="#EA8577"/>
<path d="M246.704 303.552C247.403 302.897 255.87 306.079 268.611 304.527L290.668 304.527L343.884 291.302C343.884 298.637 316.618 326.405 314.144 325.91C311.67 325.416 297.462 324.043 290.668 323.418C280.434 323.855 270.976 321.247 265.798 312.942C265.798 312.942 242.184 307.792 246.704 303.552Z" fill="#F8A68B"/>
<path d="M593.699 329.434L625.652 685.027L621.01 685.445L589.056 329.851L593.699 329.434Z" fill="#7B7169"/>
<path d="M557.273 202.24L565.932 131.112L516.076 140.389C516.076 140.389 527.005 168.179 522.636 199.148C500.706 224.891 505.031 234.925 498.515 253.526C511.496 265.398 549.364 217.357 557.273 202.24Z" fill="#F8A68B"/>
<path d="M142.424 329.468L147.066 329.886L115.042 685.479L110.399 685.061L142.424 329.468Z" fill="#7B7169"/>
<mask id="mask0_501_26130" style="mask-type:alpha" maskUnits="userSpaceOnUse" x="84" y="335" width="567" height="64">
<path d="M84.0101 398.303H650.961L647.182 335.087H88.9485L84.0101 398.303Z" fill="#FFCAA4"/>
</mask>
<g mask="url(#mask0_501_26130)">
<path d="M84.0101 398.303H650.961L647.182 335.087H88.9485L84.0101 398.303Z" fill="#FFCAA4"/>
</g>
<path d="M88.9365 323.133L93.5762 323.581L58.6708 685.505L54.0311 685.058L88.9365 323.133Z" fill="#7B7169"/>
<path d="M647.163 323.15L682.104 685.075L677.465 685.523L642.523 323.598L647.163 323.15Z" fill="#7B7169"/>
<path d="M73.6344 322.414H655.501V335.113H73.6344V322.414Z" fill="#E29570"/>
<path opacity="0.5" d="M73.6344 324.634H655.501V325.415H73.6344V324.634Z" fill="white"/>
<path d="M124.781 381.27H221.305C228.99 381.27 235.238 375.021 235.238 367.337V361.441C235.238 353.756 228.99 347.508 221.305 347.508H124.781C117.096 347.508 110.848 353.756 110.848 361.441V367.337C110.848 375.021 117.071 381.27 124.781 381.27Z" fill="#E29570"/>
<path opacity="0.5" d="M116.265 355.598H229.796C230.023 355.598 230.174 355.422 230.174 355.22C230.174 354.993 229.997 354.842 229.796 354.842H116.265C116.038 354.842 115.887 355.019 115.887 355.22C115.887 355.422 116.063 355.598 116.265 355.598Z" fill="white"/>
<path d="M162.121 358.015H183.965C185.527 358.015 186.787 356.755 186.787 355.193C186.787 353.631 185.527 352.371 183.965 352.371H162.121C160.558 352.371 159.299 353.631 159.299 355.193C159.299 356.755 160.558 358.015 162.121 358.015Z" fill="white"/>
<path d="M150.133 458.592L97.8933 508.082C94.8851 523.982 98.3184 534.659 114.056 535.285L171.837 496.243L150.133 458.592Z" fill="#F8A68B"/>
<path d="M137.776 469.928L153.012 508.99L170.072 497.478L137.776 469.928Z" fill="#EA8577"/>
<path d="M214.277 585.228L201.503 629.597C206.441 652.072 217.729 658.32 236.449 645.622L260.133 584.522L214.277 585.228Z" fill="#F8A68B"/>
<path d="M206.518 612.214L244.109 625.895L236.475 645.623C217.73 658.347 206.467 652.073 201.529 629.599L206.518 612.214Z" fill="#FFEDDD"/>
<path d="M214.278 585.229L249.778 611.306L254.717 598.759L214.278 585.229Z" fill="#EA8577"/>
<path d="M109.653 496.965C113.698 504.12 121.42 517.826 126.329 527.026L114.053 535.311C98.3165 534.66 94.8817 524.008 97.89 508.108L109.653 496.965Z" fill="#FFEDDD"/>
<path d="M457.771 478.396L542.201 684.996L540.032 685.883L455.602 479.283L457.771 478.396Z" fill="#7B7169"/>
<path d="M346.511 483.748L348.779 484.336L296.493 685.723L294.225 685.134L346.511 483.748Z" fill="#7B7169"/>
<path d="M333.274 546.276H483.44C484.095 546.276 484.599 545.746 484.599 545.117C484.599 544.461 484.07 543.958 483.44 543.958H333.274C332.619 543.958 332.115 544.487 332.115 545.117C332.09 545.772 332.619 546.276 333.274 546.276Z" fill="#7B7169"/>
<path d="M446.78 268.322C441.111 255.372 439.952 243.353 444.185 241.514C448.418 239.65 456.455 248.67 462.124 261.62C467.793 274.571 468.952 286.589 464.719 288.428C460.486 290.268 452.449 281.273 446.78 268.322Z" fill="#7D5D3F"/>
<path d="M360.746 285.648C346.979 287.872 319.404 295.178 319.404 295.178L319.404 322.422L383.023 322.422C437.043 319.522 483.314 270.857 483.314 270.857C483.212 258.956 467.038 250.398 452.506 240.353C452.506 240.353 428.867 252.114 415.395 260.764C401.924 269.415 383.513 284.656 383.513 284.656C383.513 284.656 374.537 283.431 360.746 285.648Z" fill="#F8A68B"/>
<path d="M450.888 297.489C453.307 279.475 452.902 258.191 445.368 245.089L448.946 243.174C451.919 243.829 453.834 247.004 453.834 247.004L462.64 287.593C460.045 290.188 466.351 286.975 450.888 297.489Z" fill="#EA8577"/>
<path d="M516.194 210.294C516.194 210.294 499.54 243.427 507.351 245.946C515.161 248.466 488.454 245.946 488.454 245.946C488.454 245.946 512.012 210.521 516.194 210.294Z" fill="#EA8577"/>
<path d="M605.158 373.411C605.158 372.076 656.557 266.758 642.271 263.105C628.01 259.451 596.214 263.105 596.214 263.105L546.528 370.74L605.158 373.411Z" fill="#FFBA44"/>
<path d="M553.233 412.891C553.233 412.891 609.721 341.134 604.077 309.085C598.433 277.037 551.015 294.472 551.015 294.472L508.435 410.876L553.233 412.891Z" fill="#F8A12C"/>
<path d="M596.318 378.65C596.419 378.65 596.519 378.6 596.595 378.549C596.671 378.474 596.696 378.398 596.721 378.323C596.822 377.92 598.283 374.745 600.299 370.361C611.486 345.946 641.216 281.093 635.673 269.427C635.195 268.445 634.489 267.84 633.582 267.588C619.397 263.96 587.701 267.538 587.373 267.588C587.248 267.613 587.122 267.689 587.071 267.815L537.385 375.45C537.335 375.576 537.335 375.702 537.411 375.828C537.486 375.929 537.587 376.005 537.738 376.005L596.318 378.65C596.293 378.65 596.293 378.65 596.318 378.65ZM615.189 266.731C621.992 266.731 628.644 267.135 633.33 268.319C634.036 268.495 634.54 268.949 634.918 269.73C640.335 281.043 609.646 347.987 599.543 370.008C597.099 375.299 596.268 377.138 596.016 377.844L538.267 375.224L587.625 268.319C589.465 268.117 602.566 266.731 615.189 266.731Z" fill="#DF8222"/>
<path d="M505.612 207.75C505.612 207.75 496.985 209.839 484.907 216.466C472.829 223.093 443.757 241.688 443.757 241.688C452.047 247.08 456.864 271.036 458.93 291.923L499.893 259.703L505.612 207.75Z" fill="#BD9570"/>
<path d="M550.469 376.205C550.469 376.205 530.059 447.166 608.609 281.407C646.957 219.556 616.031 199.231 597.476 199.231C573.973 199.231 558.272 193.008 558.272 193.008C558.272 193.008 514.709 245.238 504.404 245.238C494.099 245.238 522.721 199.231 522.721 199.231C522.721 199.231 494.048 207.747 472.733 241.283C463.879 275.839 467.895 282.9 458.931 303.053C449.653 326.557 427.557 376.205 427.557 376.205H550.469Z" fill="#BD9570"/>
<g opacity="0.5">
<path d="M541.038 378.12C537.183 372.602 532.345 367.765 526.802 363.935C524.031 362.02 521.058 360.156 517.908 358.946C516.17 358.266 514.179 357.812 512.365 358.417C510.854 358.921 509.72 360.08 508.989 361.466C506.999 365.295 508.536 369.654 509.871 373.408C510.073 373.988 509.14 374.265 508.939 373.66C507.654 370.083 506.318 366.127 507.578 362.373C508.611 359.274 511.181 357.031 514.557 357.182C518.261 357.359 521.864 359.652 524.938 361.541C528.062 363.481 531.01 365.749 533.731 368.243C536.78 371.065 539.526 374.24 541.92 377.641C542.247 378.145 541.391 378.624 541.038 378.12Z" fill="#F2FAFF"/>
<path d="M615.678 208.188C611.672 208.087 607.691 208.364 603.736 209.07C601.821 209.422 599.906 209.851 598.016 210.405C596.404 210.859 594.388 211.262 593.078 212.395C589.802 215.142 596.882 218.568 598.873 219.299C602.123 220.508 605.676 220.76 609.077 220.03C609.682 219.904 609.959 220.836 609.329 220.962C603.685 222.171 596.782 220.811 592.599 216.603C591.742 215.746 591.062 214.587 591.364 213.328C591.642 212.169 592.624 211.388 593.632 210.884C595.043 210.178 596.63 209.775 598.142 209.347C599.906 208.843 601.695 208.44 603.509 208.112C607.54 207.382 611.622 207.104 615.703 207.205C616.308 207.23 616.308 208.213 615.678 208.188Z" fill="#F2FAFF"/>
<path d="M588.154 234.052C588.91 235.79 589.741 237.503 590.22 239.343C590.749 241.459 591.051 243.651 591.026 245.843C591.001 248.136 590.598 250.404 589.691 252.52C589.01 254.107 587.751 255.972 585.836 256.098C584.022 256.224 582.838 254.662 582.157 253.175C581.2 251.033 580.671 248.665 580.394 246.347C580.116 244.004 580.116 241.61 580.444 239.267C580.746 237.151 581.124 234.53 582.434 232.767C583.417 231.457 585.282 230.65 586.592 231.96C587.549 232.918 588.708 234.556 588.759 235.941C588.784 236.571 587.826 236.571 587.776 235.941C587.726 234.908 586.793 233.674 586.138 232.918C585.685 232.389 585.357 232.112 584.626 232.288C583.568 232.565 582.938 233.573 582.56 234.556C581.175 238.058 580.897 242.114 581.301 245.818C581.502 247.808 581.956 249.749 582.611 251.638C583.09 253.049 584.047 255.468 585.962 255.115C587.801 254.788 588.759 252.444 589.262 250.882C589.867 249.043 590.094 247.103 590.044 245.163C589.993 243.223 589.716 241.258 589.212 239.368C588.759 237.68 588.028 236.118 587.322 234.53C587.07 233.976 587.902 233.497 588.154 234.052Z" fill="#F2FAFF"/>
<path d="M585.185 325.798C585.412 323.001 584.807 320.23 583.422 317.786C582.212 315.669 579.667 312.419 576.896 312.595C575.183 312.696 574.805 314.51 574.779 315.896C574.754 317.383 574.88 318.869 575.057 320.331C575.409 323.43 576.14 326.503 577.173 329.451C578.332 332.777 577.906 332.689 579.846 335.637C580.199 336.166 579.343 336.645 579.015 336.116C575.034 330.094 574.603 326.352 573.973 319.146C573.772 316.828 573.192 312.545 576.241 311.714C579.088 310.958 581.91 313.88 583.396 315.921C585.462 318.743 586.47 322.296 586.168 325.798C586.117 326.403 585.135 326.428 585.185 325.798Z" fill="#F2FAFF"/>
<path d="M519.823 331.71C522.242 338.16 527.987 342.72 534.437 344.71C537.914 345.794 541.567 346.197 545.195 346.046C548.521 345.92 552.124 345.214 554.669 342.896C559.456 338.538 558.851 330.802 556.433 325.385C553.863 319.691 548.748 315.08 542.399 314.375C538.922 313.972 535.294 314.677 532.32 316.617C530.809 317.6 529.347 318.961 528.617 320.623C527.81 322.412 528.088 324.73 529.876 325.814C530.406 326.141 529.927 326.973 529.398 326.645C526.399 324.831 526.903 320.901 528.818 318.507C530.935 315.836 534.21 314.148 537.536 313.569C544.49 312.334 551.192 315.61 555.198 321.279C558.977 326.62 560.817 334.456 557.718 340.528C554.14 347.507 544.868 347.709 538.09 346.575C529.75 345.164 521.965 340.1 518.916 331.987C518.664 331.382 519.597 331.13 519.823 331.71Z" fill="#F2FAFF"/>
<path d="M460.564 299.425C462.642 298.106 463.99 297.859 466.787 299.258C470.743 301.248 472.028 305.708 470.365 309.714C468.601 313.947 464.217 316.517 460.11 318.054C457.825 318.9 455.44 319.434 453.027 319.658C453.154 319.326 453.28 318.976 453.404 318.609C454.728 318.464 456.043 318.22 457.339 317.878C461.395 316.819 465.83 314.779 468.349 311.302C470.869 307.825 470.869 302.785 466.913 300.417C464.144 298.768 462.642 299.343 460.419 300.417C460.468 300.083 460.516 299.752 460.564 299.425Z" fill="#F2FAFF"/>
<path d="M501.701 211.477C500.618 214.349 499.761 217.297 499.182 220.295C498.879 221.857 498.627 223.445 498.451 225.057C498.325 226.241 498.325 227.501 497.821 228.61C496.914 230.651 494.571 231.205 493.11 229.441C492.228 228.408 491.573 227.148 490.867 225.989C490.086 224.679 489.355 223.344 488.675 222.009C488.398 221.454 489.229 220.95 489.507 221.53C490.615 223.722 491.825 225.838 493.185 227.879C493.941 229.013 495.075 230.348 496.41 229.038C497.292 228.156 497.317 226.745 497.443 225.586C497.922 220.673 499.056 215.861 500.794 211.225C500.971 210.645 501.928 210.897 501.701 211.477Z" fill="#F2FAFF"/>
<path d="M478.301 234.152C482.005 239.595 484.424 245.868 485.306 252.419C485.583 254.384 486.213 258.315 483.265 258.617C481.804 258.768 480.468 257.735 479.309 257.03C477.672 256.022 476.009 254.989 474.371 253.981C470.642 251.688 466.913 249.37 463.184 247.078C462.655 246.75 463.134 245.919 463.663 246.246C469.357 249.774 475.026 253.351 480.771 256.828C482.03 257.584 483.97 258.34 484.474 256.35C484.802 255.039 484.449 253.452 484.273 252.142C483.844 249.244 483.114 246.423 482.106 243.676C480.922 240.502 479.36 237.478 477.445 234.681C477.117 234.127 477.949 233.648 478.301 234.152Z" fill="#F2FAFF"/>
<path d="M504.076 268.015C504.379 272.802 503.069 277.741 500.977 282.024C499.163 285.728 495.787 291.195 490.975 290.565C488.833 290.288 487.321 288.726 487.12 286.584C486.868 284.065 488.304 281.646 489.413 279.479C491.705 274.944 494.527 270.384 498.81 267.486C499.844 266.781 501.078 266.176 502.363 266.478C503.245 266.68 504.001 267.31 504.177 268.217C504.429 269.603 504.076 271.215 503.85 272.576C503.749 273.18 502.817 272.928 502.917 272.324C503.094 271.291 503.22 270.232 503.245 269.199C503.27 268.343 503.094 267.662 502.111 267.436C500.902 267.159 499.718 268.04 498.81 268.721C495.308 271.316 492.89 275.07 490.874 278.875C489.816 280.89 488.405 283.107 488.128 285.4C487.85 287.769 489.337 289.734 491.831 289.658C494.099 289.608 495.888 287.945 497.223 286.282C498.458 284.77 499.466 283.057 500.322 281.268C502.262 277.186 503.446 272.55 503.169 268.015C503.069 267.385 504.051 267.385 504.076 268.015Z" fill="#F2FAFF"/>
<path d="M540.131 266.05C540.383 263.203 539.98 260.305 538.922 257.66C537.863 255.04 536.1 252.218 533.706 250.63C532.522 249.849 530.859 249.219 529.574 250.177C528.415 251.033 528.163 252.646 528.037 254.007C527.684 257.408 527.634 260.835 527.81 264.236C528.012 268.192 528.541 272.097 529.398 275.977C529.121 275.902 528.843 275.826 528.591 275.75C528.995 275.372 529.398 275.02 529.801 274.642C530.254 274.213 530.96 274.894 530.481 275.322C530.078 275.7 529.675 276.053 529.272 276.431C529.02 276.657 528.541 276.582 528.466 276.204C527.609 272.324 527.08 268.368 526.853 264.387C526.651 260.608 526.601 256.627 527.206 252.873C527.433 251.563 527.886 250.177 528.995 249.371C530.053 248.564 531.439 248.539 532.673 248.967C535.52 250 537.637 252.848 539.022 255.443C540.736 258.693 541.492 262.372 541.164 266.025C541.038 266.68 540.055 266.68 540.131 266.05Z" fill="#F2FAFF"/>
<path d="M551.746 220.446C551.016 224.251 549.882 227.954 548.345 231.507C547.715 232.994 547.085 234.833 545.901 235.967C544.994 236.849 543.533 237.252 542.449 236.471C541.315 235.639 541.189 234.027 541.139 232.742C541.063 231.028 541.24 229.29 541.643 227.627C542.046 225.888 542.701 224.2 543.507 222.613C544.263 221.076 545.17 219.438 546.38 218.229C547.413 217.171 549.05 216.44 550.487 217.12C551.721 217.7 552.275 219.363 551.419 220.471C551.041 220.975 550.209 220.471 550.587 219.993C551.167 219.237 550.764 218.204 549.857 217.927C548.924 217.624 547.942 218.103 547.262 218.708C546.027 219.816 545.145 221.504 544.389 222.966C542.802 226.065 541.87 229.567 542.122 233.069C542.172 233.8 542.222 234.707 542.676 235.337C543.331 236.244 544.49 235.967 545.221 235.286C546.455 234.102 547.085 232.036 547.74 230.524C549.126 227.199 550.134 223.722 550.839 220.194C550.94 219.564 551.872 219.842 551.746 220.446Z" fill="#F2FAFF"/>
<path d="M478.528 336.673C478.679 333.247 478.578 329.795 478.125 326.393C477.898 324.605 477.57 322.841 477.193 321.102C476.915 319.893 476.437 317.122 474.597 318.381C473.413 319.188 472.557 320.724 471.75 321.909C470.894 323.168 470.113 324.479 469.382 325.839C467.921 328.611 466.787 331.508 465.955 334.532C465.779 335.136 464.847 334.884 465.023 334.28C466.51 328.863 469.029 323.773 472.456 319.314C473.539 317.903 475.63 315.912 477.167 318.003C477.873 318.961 478.049 320.271 478.276 321.405C478.604 322.917 478.881 324.453 479.082 325.99C479.561 329.543 479.712 333.121 479.536 336.698C479.485 337.303 478.503 337.303 478.528 336.673Z" fill="#F2FAFF"/>
<path d="M458.472 242.442C461.168 241.056 463.713 238.763 464.368 235.69C464.721 234.001 464.343 232.288 463.461 230.902L464.292 230.449C465.729 232.792 465.829 235.866 464.292 238.486C461.395 243.45 455.524 244.659 450.46 246.221C449.704 246.448 448.948 246.7 448.192 247.002C448.041 246.725 447.865 246.448 447.688 246.171C451.241 244.836 455.121 244.155 458.472 242.442Z" fill="#F2FAFF"/>
<path d="M561.539 217.12C571.416 215.432 580.234 209.108 585.046 200.34C585.349 199.786 584.517 199.307 584.24 199.861C579.702 208.113 571.587 214.097 562.372 215.989C564.238 212.729 566.463 209.689 569.047 206.966C570.433 205.48 571.894 204.119 573.456 202.834C574.263 202.154 575.119 201.524 576.001 200.894C576.404 200.617 576.782 200.34 577.185 200.088C577.412 199.937 577.639 199.786 577.866 199.66C578.067 199.534 578.269 199.433 578.47 199.357L576.404 199.433C574.288 200.869 572.297 202.431 570.458 204.17C566.654 207.697 563.454 211.854 560.985 216.415C560.783 216.793 561.136 217.196 561.539 217.12Z" fill="#F2FAFF"/>
</g>
<path opacity="0.3" d="M555.281 373.83C523.419 364.891 487.681 363.126 449.536 365.936L435.626 406.069L538.186 434.751L555.281 373.83Z" fill="#0E2144"/>
<path d="M438.794 452.952H307.399C307.399 452.952 309.541 490.14 368.75 490.14C427.96 490.14 438.794 452.952 438.794 452.952Z" fill="#F8A12C"/>
<path d="M303.87 477.846C303.87 484.648 331.208 490.141 364.944 490.141C398.681 490.141 426.019 484.623 426.019 477.846C426.019 471.068 398.681 478.753 364.944 478.753C331.208 478.753 303.87 471.068 303.87 477.846Z" fill="#FFBA44"/>
<g opacity="0.5">
<path d="M560.572 195.435C560.95 195.334 561.379 195.233 561.782 195.132C558.708 199.113 551.191 208.781 539.475 221.807C522.09 241.183 509.921 250.959 503.244 250.959C502.74 250.959 502.261 250.908 501.808 250.782C500.019 250.329 498.759 249.22 498.054 247.507C494.35 238.235 508.51 212.838 514.607 202.583C515.061 202.356 515.489 202.155 515.892 201.953C510.299 211.326 495.106 238.058 498.759 247.204C499.364 248.691 500.397 249.623 501.959 250.001C514.96 253.327 552.283 206.143 560.572 195.435Z" fill="#7D5D3F"/>
<path d="M454.44 315.132C454.592 315.132 454.743 315.031 454.818 314.88C458.194 305.457 467.307 294.748 466.954 281.546C467.408 260.306 486.325 231.331 486.526 231.054C486.652 230.878 486.627 230.626 486.451 230.5C486.274 230.374 486.023 230.399 485.897 230.575C485.67 230.878 466.627 260.029 466.173 281.546C466.526 294.673 457.439 305.305 454.088 314.603C454.012 314.804 454.113 315.031 454.314 315.107C454.365 315.132 454.39 315.132 454.44 315.132Z" fill="#7D5D3F"/>
</g>
<path d="M561.023 285.275C553.717 273.156 550.996 261.415 554.951 259.021C558.907 256.628 568.053 264.514 575.36 276.633C582.666 288.752 585.388 300.493 581.432 302.887C577.476 305.255 568.33 297.369 561.023 285.275Z" fill="#7D5D3F"/>
<path d="M582.287 291.903C582.287 291.903 550.442 357.657 493.568 371.445C434.163 380.541 385.132 375.955 379.74 371.445C374.348 366.935 388.659 343.906 388.659 343.906C388.659 343.906 386.518 337.355 387.878 335.944C389.239 334.534 399.191 331.812 402.139 333.45C405.087 335.088 411.31 342.218 411.31 342.218C411.31 342.218 414.711 342.017 418.214 344.083C421.716 346.149 424.26 357.537 424.26 357.537C424.26 357.537 450.036 343.276 463.263 337.582C476.516 331.888 485.813 330.855 485.813 330.855C485.813 330.855 498.503 314.325 510.268 300.582C524.359 284.122 553.337 256.175 553.337 256.175C570.42 262.575 579.188 280.01 582.287 291.903Z" fill="#F8A68B"/>
<path d="M582.287 291.9C582.287 291.9 580.669 297.458 577.066 301.816C574.975 288.992 566.389 271.794 553.942 256.399C570.647 263.026 579.238 280.159 582.287 291.9Z" fill="#EA8577"/>
<path d="M388.658 343.905L394.479 338.034C394.479 338.034 390.12 336.623 388.86 338.034C387.575 339.445 388.658 343.905 388.658 343.905Z" fill="#EA8577"/>
<path d="M411.284 342.193L418.817 351.087C418.817 351.087 418.893 345.846 416.474 343.906C414.08 341.966 411.284 342.193 411.284 342.193Z" fill="#EA8577"/>
<path d="M581.884 302.182C582.01 302.182 582.136 302.131 582.212 302.005L602.293 271.468C602.419 271.292 602.368 271.04 602.192 270.939C602.015 270.813 601.763 270.864 601.663 271.04L581.582 301.577C581.456 301.753 581.506 302.005 581.683 302.106C581.733 302.182 581.809 302.182 581.884 302.182Z" fill="#7D5D3F"/>
<path d="M553.287 256.15L579.868 222.186C579.994 222.01 580.246 221.984 580.423 222.11C580.599 222.236 580.624 222.488 580.498 222.665L554.068 256.452L553.287 256.15Z" fill="#7D5D3F"/>
<path d="M524.66 380.943C524.66 380.943 298.127 336.7 281.019 338.388C263.911 340.076 365.953 447.384 433.83 457.462C501.707 467.515 524.66 380.943 524.66 380.943Z" fill="#FFEDDD"/>
<path d="M287.198 333.017L137.8 469.93C137.8 469.93 183.261 534.425 183.336 533.142C183.412 531.86 331.039 392.873 331.039 392.873L287.198 333.017Z" fill="#FFEDDD"/>
<path d="M301.827 407.669L174.286 518.481C174.286 518.481 183.26 534.422 183.336 533.139C183.412 531.856 331.039 392.87 331.039 392.87L301.827 407.669Z" fill="#FFD9B8"/>
<g clip-path="url(#clip0_501_26130)">
<path d="M465.663 424.257C465.663 424.257 336.112 381.016 288.876 384.971C231.416 434.754 346.542 460.107 395.868 469.892C445.196 479.661 465.663 424.257 465.663 424.257Z" fill="#FFD9B8"/>
</g>
<path d="M279.104 387.947C266.682 408.733 214.275 585.228 214.275 585.228L282.354 619.771L335.668 465.499C335.668 465.499 399.387 486.285 444.991 466.179C490.62 446.048 291.525 367.135 279.104 387.947Z" fill="#FFEDDD"/>
<path d="M80.2118 578.439C80.2118 578.439 106.102 556.292 114.055 535.308C100.954 531.91 98.1306 520.739 100.298 505.824C69.7612 481.836 39.7572 462.927 11.0865 456.919L80.2118 578.439Z" fill="#834D4D"/>
<path d="M251.312 680.57C251.312 680.57 244.736 649.504 238.034 641.542C221.884 648.622 209.437 645.145 201.501 629.6C156.073 645.347 90.464 657.793 87.5665 680.545H251.312V680.57Z" fill="#834D4D"/>
<path d="M522.235 477.949L606.62 684.571L602.305 686.333L517.92 479.711L522.235 477.949Z" fill="#7B7169"/>
<path d="M408.778 483.457L413.289 484.628L361.002 686.014L356.491 684.843L408.778 483.457Z" fill="#7B7169"/>
<path d="M396.64 547.463H546.805C548.09 547.463 549.148 546.43 549.148 545.12C549.148 543.835 548.115 542.776 546.805 542.776H396.64C395.355 542.776 394.296 543.809 394.296 545.12C394.296 546.405 395.355 547.463 396.64 547.463Z" fill="#7B7169"/>
<path d="M80.2106 578.44L74.2223 581.544L6.83667 461.339L11.0853 456.92L80.2106 578.44Z" fill="#FFD9B8"/>
<path d="M87.5413 680.569H251.312V685.734H87.5413V680.569Z" fill="#FFD9B8"/>
<path d="M158.418 499.087C168.626 486.918 263.183 375.162 291.944 370.222C322.261 365.02 483.796 423.975 485.427 424.576C485.625 424.638 485.857 424.551 485.919 424.352C485.982 424.154 485.894 423.922 485.696 423.86C484.066 423.259 322.332 364.242 291.811 369.482C278.961 371.676 252.363 394.26 212.71 436.619C186.526 464.603 163.028 492.393 157.924 498.477L158.418 499.087Z" fill="#E29570"/>
<path d="M250.608 603.672C258.671 581.626 312.892 434.005 322.189 425.866C332.167 417.124 393.568 445.242 434.032 468.901C434.209 469.001 434.284 469.253 434.183 469.43C434.083 469.606 433.831 469.682 433.654 469.581C394.4 446.628 332.292 418.081 322.718 426.471C313.673 434.383 258.973 583.137 251.339 604.024L250.608 603.672Z" fill="#E29570"/>
<path d="M274.266 396.514C274.341 396.312 274.568 396.211 274.77 396.287C274.971 396.362 275.072 396.589 274.996 396.791C265.976 420.575 256.352 448.845 245.618 483.111C245.215 483.539 244.812 483.967 244.409 484.396C255.344 449.424 265.095 420.676 274.266 396.514Z" fill="#E29570"/>
<path d="M202.49 322.413V280.084H165.755V322.413H202.49Z" fill="#BAE1F5"/>
<path opacity="0.5" d="M174.812 322.398V280.07H171.008V322.398H174.812Z" fill="white"/>
<path d="M206.603 317.284H202.93C201.326 317.284 200.039 316.046 200.039 314.504C200.039 312.962 201.326 311.724 202.93 311.724H206.603C211.562 311.724 215.615 307.828 215.615 303.059C215.615 298.29 211.562 294.393 206.603 294.393H202.044C200.44 294.393 199.152 293.156 199.152 291.613C199.152 290.071 200.44 288.833 202.044 288.833H206.603C214.77 288.833 221.419 295.225 221.419 303.079C221.419 310.932 214.77 317.284 206.603 317.284Z" fill="#BAE1F5"/>
<path d="M611.007 360.382L586.139 415.913C565.882 459.803 522.218 488.123 473.893 488.778L368.751 490.164C368.751 490.164 396.29 485.805 425.265 439.924C454.24 394.018 521.638 348.313 611.007 360.382Z" fill="#FFBA44"/>
<path d="M422.517 461.065C431.814 448.618 443.404 433.148 461.016 414.176C487.295 385.881 526.676 374.921 555.096 370.713C579.158 367.136 599.617 367.665 607.528 368.093L607.176 368.849C599.113 368.446 578.906 367.967 555.172 371.495C503.899 379.104 475.982 399.21 461.57 414.705C443.984 433.627 432.419 449.097 423.122 461.518C413.648 474.166 406.694 483.464 398.481 489.737L397.12 489.763C405.712 483.539 412.767 474.116 422.517 461.065Z" fill="#DF8222"/>
<path d="M282.355 620.174C282.506 620.174 282.632 620.098 282.708 619.972C282.808 619.771 282.733 619.544 282.531 619.443L213.294 584.194C213.092 584.094 212.865 584.169 212.765 584.371C212.664 584.572 212.739 584.799 212.941 584.9L282.178 620.148C282.229 620.148 282.304 620.174 282.355 620.174Z" fill="#E29570"/>
<path d="M242.875 650.79C236.626 654.644 228.917 655.854 221.585 654.871C216.495 654.191 211.557 652.578 206.896 650.386C202.486 648.32 198.279 645.65 194.802 642.198C192.358 639.754 190.267 636.932 188.805 633.808C189.108 633.707 189.435 633.606 189.738 633.505C192.988 640.233 199.06 645.322 205.737 648.749C214.278 653.108 224.356 655.677 233.905 653.435C236.954 652.73 239.877 651.545 242.497 649.882C242.623 650.16 242.749 650.462 242.875 650.79Z" fill="#FFD9B8"/>
<path d="M183.641 653.484C181.701 648.017 179.483 642.65 177.065 637.41C177.367 637.309 177.695 637.233 177.997 637.132C180.416 642.398 182.633 647.765 184.573 653.232C184.8 653.812 183.842 654.064 183.641 653.484Z" fill="#FFD9B8"/>
<path d="M161.693 660.465C160.559 654.67 159.173 648.901 157.586 643.206C157.888 643.106 158.216 643.03 158.518 642.929C160.105 648.623 161.491 654.393 162.625 660.188C162.751 660.818 161.819 661.07 161.693 660.465Z" fill="#FFD9B8"/>
<path d="M172.377 657.491C171.218 651.621 169.53 645.876 167.338 640.308C167.64 640.207 167.968 640.132 168.27 640.031C170.462 645.599 172.15 651.344 173.334 657.239C173.435 657.844 172.503 658.096 172.377 657.491Z" fill="#FFD9B8"/>
<path d="M148.392 660.01C147.41 655.651 146.226 651.343 144.89 647.085C145.193 646.984 145.52 646.883 145.822 646.807C147.183 651.065 148.367 655.399 149.35 659.758C149.451 660.363 148.518 660.615 148.392 660.01Z" fill="#FFD9B8"/>
<path d="M51.4984 483.735C51.1403 484.244 50.3385 483.717 50.6967 483.209C52.5437 480.566 54.0253 477.701 55.1119 474.686C55.4048 474.855 55.6725 475.022 55.9655 475.191C54.8537 478.204 53.3454 481.093 51.4984 483.735Z" fill="#FFD9B8"/>
<path d="M90.8643 515.968C91.9867 526.029 96.3271 535.876 104.542 542.091C106.015 543.212 107.598 544.189 109.24 545.018C109.073 545.286 108.904 545.579 108.737 545.847C103.37 543.132 98.8062 538.774 95.6765 533.642C89.8994 524.19 88.7138 512.636 90.2355 501.822C90.4029 500.696 90.594 499.597 90.7866 498.473C91.0765 498.692 91.3665 498.911 91.6564 499.13C90.6211 504.697 90.2382 510.328 90.8643 515.968Z" fill="#FFD9B8"/>
<path d="M59.1694 491.054C58.9089 491.619 57.9932 491.313 58.2537 490.748C59.9145 486.984 61.4288 483.136 62.8189 479.256C63.1118 479.424 63.3796 479.592 63.671 479.786C62.2854 483.591 60.8021 487.339 59.1694 491.054Z" fill="#FFD9B8"/>
<path d="M68.2398 499.412C67.9793 499.978 67.0635 499.671 67.324 499.106C69.3046 494.629 70.9138 490.03 72.2271 485.312C72.5185 485.506 72.7848 485.698 73.0762 485.892C71.7703 490.484 70.1656 495.008 68.2398 499.412Z" fill="#FFD9B8"/>
<path d="M74.5705 504.229C76.4046 499.668 78.0908 495.048 79.6527 490.395C79.9189 490.587 80.2104 490.781 80.4766 490.974C78.9444 495.552 77.2893 500.073 75.4863 504.535C75.2746 505.129 74.3337 504.821 74.5705 504.229Z" fill="#FFD9B8"/>
<path d="M523.52 189.328C540.607 185.379 550.074 170.513 554.104 162.22C545.668 168.94 535.526 173.295 526.391 172.348C525.402 172.241 524.461 172.086 523.568 171.883L523.52 189.328Z" fill="#DB7A6D"/>
<path d="M414.294 361.21L275.235 339.545C274.947 339.51 268.152 337.599 268.173 337.424L269.667 330.267C269.688 330.092 269.939 329.993 270.226 330.027L415.888 352.197C416.176 352.232 416.367 352.401 416.346 352.576L414.853 360.97C414.833 361.129 414.581 361.244 414.294 361.21Z" fill="#A7C6DB"/>
<path d="M252.978 335.048L252.976 335.048C247.909 334.266 243.995 330.166 243.442 325.057L252.978 335.048ZM252.978 335.048L330.062 347.056L315.599 226.24L315.599 226.237C315.13 222.224 312.035 219.035 308.052 218.411C308.052 218.411 308.052 218.411 308.052 218.411L242.383 208.211L242.381 208.211C236.528 207.291 231.407 212.158 232.031 218.056L243.442 325.056L252.978 335.048Z" fill="#E6EFF5" stroke="#A7C6DB" stroke-width="2"/>
<path d="M242.827 231.638C243.943 238.638 249.872 245.079 256.015 246.005C262.185 246.935 266.28 241.995 265.141 234.966C264.024 227.967 258.096 221.526 251.926 220.596C245.806 219.699 241.71 224.639 242.827 231.638Z" fill="#FFBA44"/>
<path d="M255.446 231.154C255.674 232.56 256.299 233.748 256.818 233.837C257.364 233.93 257.601 232.845 257.373 231.439C257.145 230.034 256.52 228.845 256.001 228.756C255.478 228.693 255.218 229.748 255.446 231.154Z" fill="#2B2B39"/>
<path d="M249.614 230.281C249.842 231.687 250.467 232.875 250.986 232.964C251.532 233.057 251.769 231.972 251.541 230.566C251.313 229.161 250.688 227.972 250.169 227.883C249.646 227.82 249.412 228.878 249.614 230.281Z" fill="#2B2B39"/>
<path d="M254.893 239.489C259.684 240.2 259.926 234.902 259.932 234.849C259.941 234.559 259.741 234.243 259.463 234.13C259.185 234.017 258.954 234.175 258.945 234.465C258.949 234.651 258.719 238.97 254.735 238.384C250.724 237.793 249.105 233.198 249.023 233.003C248.927 232.699 248.635 232.479 248.368 232.499C248.126 232.523 247.987 232.798 248.109 233.104C248.103 233.157 250.075 238.775 254.893 239.489Z" fill="#2B2B39"/>
<path d="M316.619 226.11L331.101 347.212L338.593 348.381L324.112 227.279C323.564 222.813 320.148 219.273 315.726 218.58L308.233 217.411C312.656 218.104 316.069 221.67 316.619 226.11Z" fill="#A7C6DB"/>
<path d="M285.603 279.358C285.899 286.02 281.697 290.708 276.238 289.81C270.778 288.913 266.105 282.809 265.831 276.15C265.535 269.487 269.737 264.799 275.197 265.697C280.659 266.568 285.33 272.698 285.603 279.358Z" fill="#A7C6DB"/>
<path d="M533.106 74.2381C559.362 78.5833 559.742 96.4039 559.742 96.4039C559.742 96.4039 562.003 106.699 562.484 123.101C564.696 119.646 568.636 118.038 572.918 119.556C581.958 122.784 577.118 150.938 563.6 149.365C563.477 157.153 560.868 166.718 560.008 168.862C556.725 176.993 540.917 190.033 526.353 192.797C511.79 195.562 492.619 188.592 490.198 171.425C486.849 147.641 486.896 95.9375 486.896 95.9375C486.896 95.9375 489.664 67.0562 533.106 74.2381Z" fill="#F8A68B"/>
<path d="M568.591 137.106C568.87 136.931 569.012 136.596 568.936 136.258C567.687 130.702 572.826 125.806 572.886 125.767C573.205 125.474 573.23 124.959 572.917 124.639C572.623 124.32 572.109 124.294 571.789 124.608C571.549 124.823 565.911 130.169 567.369 136.638C567.463 137.074 567.896 137.336 568.332 137.242C568.432 137.203 568.511 137.164 568.591 137.106Z" fill="#DB7A6D"/>
<path d="M573.756 131.457C573.836 131.399 573.916 131.34 573.976 131.242C574.237 130.888 574.144 130.372 573.77 130.131C573.672 130.07 571.313 128.442 568.367 129.877C567.969 130.071 567.806 130.544 568 130.942C568.194 131.34 568.667 131.504 569.065 131.31C571.155 130.302 572.826 131.428 572.846 131.448C573.121 131.629 573.477 131.633 573.756 131.457Z" fill="#DB7A6D"/>
<path d="M519.501 145.946C519.756 145.776 519.943 145.477 520.03 145.149C520.17 144.428 519.725 143.726 519.005 143.585L510.386 141.737L515.362 137.383C515.647 137.114 515.831 136.75 515.819 136.36L515.59 119.538C515.568 118.822 514.996 118.222 514.248 118.245C513.532 118.267 512.931 118.839 512.955 119.587L513.164 135.791L506.701 141.493C506.32 141.83 506.173 142.323 506.286 142.808C506.398 143.293 506.801 143.671 507.291 143.753L518.467 146.174C518.826 146.228 519.182 146.152 519.501 145.946Z" fill="#DB7A6D"/>
<path d="M543.508 88.1185C550.509 87.6864 561.29 84.605 568.287 84.0045C568.237 83.2979 568.675 89.1185 568.676 89.1859C567.703 92.2755 569.517 119.601 569.517 119.601C562.525 120.37 563.059 125.986 563.059 125.986L562.881 138.629L555.863 138.32L553.83 111.708C548.959 109.495 547.143 105.324 547.143 105.324C547.143 105.324 544.898 92.8048 543.508 88.1185Z" fill="#862A18"/>
<path d="M516.771 151.631C516.771 151.631 537.265 145.897 540.95 152.182C544.635 158.467 546.214 165.541 551.807 162.547C557.401 159.586 553.26 107.508 553.26 107.508L562.144 124.322C562.144 124.322 580.101 192.291 538.314 196.901C494.476 201.727 487.184 189.594 489.505 166.15C489.505 166.15 494.506 168.157 496.48 161.741C498.487 155.291 493.412 150.083 516.771 151.631Z" fill="#862A18"/>
<mask id="mask1_501_26130" style="mask-type:alpha" maskUnits="userSpaceOnUse" x="476" y="52" width="93" height="45">
<path d="M568.675 89.1869C568.675 89.1869 571.081 66.5493 551.973 69.5206C551.973 69.5206 536.911 50.8273 509.155 52.9544L520.98 58.5445C520.98 58.5445 504.658 49.4188 478.603 60.9773C478.603 60.9773 481.754 70.4087 492.012 70.9121C492.012 70.9121 479.548 69.7521 476.566 67.5968C476.566 67.5968 478.422 85.1136 488.04 88.5642C497.625 92.0155 531.61 73.6332 545.172 90.1705C558.733 106.674 566.326 86.7473 566.326 86.7473" fill="#D03F23"/>
</mask>
<g mask="url(#mask1_501_26130)">
<path d="M568.675 89.1869C568.675 89.1869 571.081 66.5493 551.973 69.5206C551.973 69.5206 536.911 50.8273 509.155 52.9544L520.98 58.5445C520.98 58.5445 504.658 49.4188 478.603 60.9773C478.603 60.9773 481.754 70.4087 492.012 70.9121C492.012 70.9121 479.548 69.7521 476.566 67.5968C476.566 67.5968 478.422 85.1136 488.04 88.5642C497.625 92.0155 531.61 73.6332 545.172 90.1705C558.733 106.674 566.326 86.7473 566.326 86.7473" fill="#862A18"/>
<path d="M530.064 55.7348C523.746 59.5653 517.066 62.9448 509.59 63.6377C502.33 64.3147 494.775 61.945 490.23 56.2913C491.001 56.3596 491.752 56.4171 492.534 56.465C497.232 61.2873 504.454 62.8562 511.227 61.8182C517.648 60.855 523.432 57.8889 528.946 54.5459C529.34 54.9358 529.733 55.3257 530.064 55.7348Z" fill="#571204"/>
<path d="M560.155 70.7508C558.951 72.0667 557.645 73.3264 556.263 74.4421C554.049 76.217 551.624 77.6613 548.919 78.6087C541.621 81.1493 534.854 78.2346 528.173 75.2744C524.126 73.467 520.002 71.8289 515.52 71.8163C511.285 71.7838 507.142 72.9372 503.108 74.1247C503.079 74.1399 503.029 74.1483 503 74.1635C496.077 76.1931 488.27 78.8175 481.13 76.1732C479.183 75.4501 477.352 74.3527 475.85 72.9714C475.909 72.3143 476.018 71.6487 476.187 71.0257C477.306 72.2404 478.662 73.2386 480.164 73.9933C484.32 76.0752 489.183 75.8682 493.624 74.9999C497.811 74.1735 501.927 72.7219 506.078 71.6193C510.361 70.4848 514.71 69.7569 519.201 70.5198C527.994 72.0353 535.66 79.1354 544.918 77.9008C548.791 77.3872 552.243 75.5856 555.236 73.1598C556.425 72.2013 557.525 71.1428 558.565 70.0418C559.146 70.2698 559.654 70.4993 560.155 70.7508Z" fill="#571204"/>
<path d="M510.212 85.6119C509.665 85.9007 509.103 86.2334 508.579 86.6018C507.181 85.9761 505.713 85.4977 504.162 85.2105C501.798 84.7441 499.6 84.8353 497.473 85.2383C495.884 85.5423 494.341 86.0055 492.787 86.5856C491.479 87.073 490.179 87.6111 488.821 88.1797C487.463 88.7483 486.082 89.2372 484.675 89.5737C484.512 89.0889 484.211 88.6582 483.807 88.1714C483.88 88.1698 483.937 88.1394 483.988 88.131C487.528 87.3696 490.7 85.4574 494.122 84.2977C494.983 84.0095 495.853 83.7721 496.752 83.5923C497.34 83.4849 497.944 83.4063 498.54 83.3497C502.613 82.9703 506.646 83.8087 510.212 85.6119Z" fill="#571204"/>
<path d="M494.188 98.7379C490.43 99.1907 486.61 98.4424 483.241 96.6276C483.44 96.0622 483.596 95.556 483.768 95.0786C486.97 96.8897 490.621 97.5614 494.218 97.083C494.187 97.6521 494.184 98.206 494.188 98.7379Z" fill="#AB2B12"/>
<path d="M569.994 81.5889C567.94 85.0291 564.756 87.7578 560.795 88.9437C560.578 89.0212 560.346 89.07 560.107 89.1407C559.796 89.213 559.484 89.2854 559.15 89.3509C550.097 90.9382 537.043 84.4135 528.681 88.6749C528.151 88.4386 527.591 88.1446 527.009 87.8439C533.773 83.8355 543.677 86.9011 551.13 87.8333C553.804 88.1545 556.45 88.1776 558.953 87.6499C559.519 87.5356 560.098 87.3774 560.634 87.2055C563.015 86.4472 565.194 85.0957 567 83.0016C567.867 81.9918 568.587 80.9123 569.189 79.7479C569.486 80.3464 569.754 80.96 569.994 81.5889Z" fill="#571204"/>
</g>
<path d="M498.434 128.432C498.947 130.734 500.312 132.391 501.514 132.115C502.71 131.869 503.276 129.798 502.763 127.496C502.25 125.195 500.885 123.538 499.682 123.813C498.516 124.067 497.95 126.138 498.434 128.432Z" fill="#2B2B39"/>
<path d="M506.754 124.963C506.865 124.896 506.946 124.821 507.012 124.679C507.181 124.373 507.052 123.994 506.739 123.855C506.485 123.73 500.405 120.707 495.955 124.863C495.711 125.088 495.677 125.49 495.931 125.741C496.156 125.985 496.558 126.02 496.809 125.765C500.638 122.215 506.129 124.938 506.181 124.982C506.383 125.062 506.576 125.046 506.754 124.963Z" fill="#2B2B39"/>
<path d="M524.882 125.328C525.395 127.63 526.76 129.287 527.963 129.011C529.158 128.765 529.725 126.694 529.211 124.392C528.698 122.091 527.333 120.434 526.131 120.709C524.935 120.955 524.369 123.026 524.882 125.328Z" fill="#2B2B39"/>
<path d="M534.275 122.499C534.379 122.461 534.498 122.363 534.586 122.259C534.785 121.96 534.716 121.596 534.417 121.397C534.17 121.243 528.553 117.48 523.587 121.037C523.32 121.225 523.256 121.62 523.437 121.916C523.624 122.182 524.019 122.247 524.315 122.066C528.556 119.026 533.665 122.414 533.717 122.458C533.889 122.531 534.105 122.552 534.275 122.499Z" fill="#2B2B39"/>
<path d="M500.955 113.71C503.333 113.029 503.183 110.081 500.761 110C499.497 109.963 497.982 110.281 496.359 111.291C489.245 115.7 490.853 120.403 490.853 120.403C490.853 120.403 494.701 116.45 498.627 114.578C499.484 114.193 500.264 113.918 500.955 113.71Z" fill="#862A18"/>
<path d="M523.975 110.444C521.645 111.13 520.052 108.02 521.964 106.518C522.957 105.728 524.357 105.162 526.273 105.256C534.594 105.643 538.649 112.491 538.649 112.491C538.649 112.491 530.61 109.602 526.385 109.988C525.43 110.083 524.627 110.252 523.975 110.444Z" fill="#862A18"/>
<path d="M544.783 111.141L516.376 115.777C516.376 115.777 517.101 139.758 535.833 136.492C554.496 133.227 544.783 111.141 544.783 111.141Z" stroke="white" stroke-width="2" stroke-miterlimit="10"/>
<path d="M515.242 114.927L548.106 109.21L549.236 112.891L516.121 117.907L515.242 114.927Z" fill="white"/>
<path d="M482.118 119.474L509.451 116.548C509.451 116.548 514.636 142.447 495.667 142.719C476.698 142.991 482.118 119.474 482.118 119.474Z" stroke="white" stroke-width="2" stroke-miterlimit="10"/>
<path d="M510.369 115.377L478.483 118.207L478.066 122.025L510.074 118.62L510.369 115.377Z" fill="white"/>
<path d="M549.171 112.892L572.454 119.901L572.039 116.54L548.108 109.209L549.171 112.892Z" fill="white"/>
<path d="M517.303 120.846C514.979 119.484 511.981 119.554 510.005 121.521" stroke="white" stroke-miterlimit="10" stroke-linecap="round"/>
<path d="M514.463 164.17C518.982 165.436 523.806 164.088 526.939 160.571C527.675 159.737 526.516 158.423 525.748 159.274C523.022 162.332 518.942 163.592 514.988 162.474C513.89 162.161 513.365 163.856 514.463 164.17Z" fill="#390A01"/>
<path d="M521.265 168.345C522.668 167.93 523.367 166.872 523.39 166.799C523.592 166.49 523.479 166.083 523.169 165.881C522.86 165.679 522.453 165.793 522.259 166.078C522.212 166.143 521.326 167.462 519.425 167.085C519.078 167.005 518.714 167.237 518.65 167.616C518.569 167.962 518.802 168.326 519.18 168.39C520.002 168.565 520.683 168.51 521.265 168.345Z" fill="#390A01"/>
<defs>
<clipPath id="clip0_501_26130">
<rect width="268.432" height="119.99" fill="white" transform="matrix(-1 0 0 1 466.353 380.371)"/>
</clipPath>
</defs>
</svg>
