<svg width="516" height="705" viewBox="0 0 516 705" fill="none" xmlns="http://www.w3.org/2000/svg">
<g clip-path="url(#clip0_501_19450)">
<g opacity="0.6">
<path d="M184.727 591.13V578.772C184.727 572.854 179.873 568 173.955 568H216.128C222.047 568 226.9 572.854 226.9 578.772V591.13C226.9 597.048 222.047 601.902 216.128 601.902H173.955C179.873 601.902 184.727 597.048 184.727 591.13Z" fill="#A0D3EE"/>
<path d="M173.956 568C179.875 568 184.729 572.854 184.729 578.772V591.13C184.729 597.048 179.875 601.902 173.956 601.902H93.8935V568H173.956Z" fill="#C5E9FD"/>
<path d="M173.137 571.197C177.941 571.197 181.879 575.134 181.879 579.938V589.968C181.879 594.772 177.941 598.71 173.137 598.71H93.8918V571.172H173.137V571.197Z" fill="white"/>
<path d="M97.8781 574.438H163.553V576.295H97.8781V574.438Z" fill="#A0D3EE"/>
<path d="M93.8685 585.633H152.213V587.49H93.8685V585.633Z" fill="#A0D3EE"/>
<path d="M160.309 585.633H169.67V587.49H160.309V585.633Z" fill="#A0D3EE"/>
<path d="M116.403 592.465H165.213V594.322H116.403V592.465Z" fill="#A0D3EE"/>
<path d="M144.857 768.27H153.078L183.588 611.34H167.664L144.857 768.27ZM151.543 766.413H147.011L169.274 613.197H181.334L151.543 766.413Z" fill="white"/>
<path d="M350.895 768.27H359.117L336.309 611.34H320.386L350.895 768.27ZM356.963 766.413H352.431L322.664 613.197H334.724L356.963 766.413Z" fill="white"/>
<path d="M247.876 768.27H255.925L259.812 611.34H244.162L244.186 612.281L247.876 768.27ZM254.117 766.413H249.684L246.044 613.197H257.906L254.117 766.413Z" fill="white"/>
<path d="M80.0001 601.906H423.975V617.235H80.0001V601.906Z" fill="white"/>
</g>
<path d="M280.857 351.988L280.857 90L93.0004 90L93.0004 351.988L280.857 351.988Z" fill="#D5EAF7"/>
<path d="M271.986 343.674L271.986 98.3125L101.872 98.3125L101.872 343.674H271.986Z" fill="#F5F9FD"/>
<path d="M205.059 287.644C209.857 280.484 212.665 271.855 212.665 262.612C212.665 253.499 209.95 245.037 205.282 237.932L166.394 261.272L178.464 218.851C174.967 217.977 171.322 217.512 167.547 217.512C157.504 217.512 148.205 220.822 140.691 226.401V287.644H205.059Z" fill="#D5EAF7" fill-opacity="0.5"/>
<path d="M173.48 176.432H166.729V183.183H173.48V176.432Z" fill="#D5EAF7" fill-opacity="0.5"/>
<path d="M165.335 163.971H154.27V175.036H165.335V163.971Z" fill="#D5EAF7" fill-opacity="0.5"/>
<path d="M178.873 217.495L181.439 208.475H168.142V201.985H183.28L193.137 167.318L233.123 203.77V154.355H140.729V224.674C148.316 219.281 157.578 216.1 167.584 216.1C171.471 216.1 175.246 216.603 178.873 217.495ZM152.873 176.431V162.576H166.728V175.036H174.874V184.577H165.334V176.431H152.873Z" fill="#D5EAF7" fill-opacity="0.5"/>
<path d="M233.124 221.215L206.492 237.209C211.272 244.518 214.061 253.24 214.061 262.614C214.061 271.838 211.346 280.412 206.715 287.646H233.124V221.215ZM226.838 275.632H218.451V267.245H226.838V275.632Z" fill="#D5EAF7" fill-opacity="0.5"/>
<path d="M193.88 169.883L184.73 202.001H217.351V208.492H182.889L180.211 217.884C190.663 220.841 199.627 227.369 205.709 236.073L233.122 219.614V205.684L193.88 169.883Z" fill="#D5EAF7" fill-opacity="0.5"/>
<path d="M225.442 268.641H219.844V274.239H225.442V268.641Z" fill="#D5EAF7" fill-opacity="0.5"/>
<path d="M215.958 203.398H184.341L183.281 207.081H215.958V203.398Z" fill="#D5EAF7" fill-opacity="0.5"/>
<path d="M182.89 203.398H169.537V207.081H181.83L182.89 203.398Z" fill="#D5EAF7" fill-opacity="0.5"/>
<path d="M179.84 219.207L168.719 258.244L204.52 236.763C198.624 228.376 189.939 222.071 179.84 219.207Z" fill="#D5EAF7" fill-opacity="0.5"/>
<path d="M242.329 214.074L233.123 219.597V221.215L244.654 214.297L233.123 203.789V205.667L242.329 214.074Z" fill="white"/>
<path d="M206.491 237.21L233.123 221.216V219.579L205.709 236.039C199.628 227.335 190.664 220.807 180.212 217.85L182.89 208.458H217.352V201.967H184.731L193.881 169.849L233.123 205.631V203.753L193.137 167.301L183.28 201.967H168.142V208.458H181.439L178.873 217.478C175.265 216.567 171.471 216.083 167.584 216.083C157.578 216.083 148.316 219.263 140.729 224.657V226.368C148.242 220.788 157.522 217.478 167.584 217.478C171.341 217.478 175.004 217.943 178.501 218.817L166.431 261.239L205.319 237.898C209.968 245.003 212.702 253.465 212.702 262.578C212.702 271.839 209.894 280.45 205.096 287.61H206.751C211.4 280.376 214.097 271.784 214.097 262.578C214.079 253.242 211.27 244.519 206.491 237.21ZM184.341 203.399H215.957V207.1H183.28L184.341 203.399ZM169.537 207.082V203.381H182.89L181.83 207.082H169.537ZM168.718 258.263L179.84 219.226C189.957 222.09 198.624 228.395 204.519 236.782L168.718 258.263Z" fill="white"/>
<path d="M218.449 275.634H226.837V267.246H218.449V275.634ZM219.844 268.641H225.442V274.239H219.844V268.641Z" fill="white"/>
<path d="M174.874 184.558V175.017H166.728V162.557H152.873V176.412H165.334V184.558H174.874ZM166.728 176.431H173.48V183.182H166.728V176.431ZM154.268 175.036V163.97H165.334V175.036H154.268Z" fill="white"/>
</g>
<defs>
<clipPath id="clip0_501_19450">
<rect width="516" height="705" fill="white"/>
</clipPath>
</defs>
</svg>
