<svg width="516" height="705" viewBox="0 0 516 705" fill="none" xmlns="http://www.w3.org/2000/svg">
<g clip-path="url(#clip0_501_19395)">
<g opacity="0.5">
<path d="M322.661 602.263H163.22L137.934 600.186L92.9574 612.704L78.1128 639.125L67.007 693.851L81.3808 721.685L291.698 728.636L422.918 705.455L418.293 653.97L388.327 610.849L352.434 593.234L322.661 602.263Z" fill="#CBEDFF"/>
<path d="M78.1108 639.153V639.125L92.9554 612.704L137.932 600.186L163.218 602.263H322.659L352.432 593.234L388.325 610.849L407.988 639.153H78.1108Z" fill="#DDF3FF"/>
<path d="M481.049 563.626L414.83 538.479C408.072 536.235 404.25 531.915 402.228 524.659L378.3 428.584C375.475 417.395 368.606 411.413 357.445 411.025H321.109L339.72 514.301L404.056 571.325H429.397H459.308L481.049 563.626Z" fill="#DDF3FF"/>
<path d="M4.13806 563.626L70.3573 538.479C77.1149 536.235 80.9368 531.915 82.9585 524.659L106.887 428.584C109.712 417.395 116.581 411.413 127.742 411.025H164.105L145.494 514.301L81.1584 571.325H55.8173H25.9065L4.13806 563.626Z" fill="#E4F3FD"/>
<path d="M385.085 696.704V642.283C385.002 634.556 381.872 627.577 374.783 624.06L322.66 616.194C313.271 575.15 342.767 538.094 377.247 541.057L442.137 563.878L459.336 613.84L447.732 652.558L418.984 690.805L390.098 701.329L385.085 696.704Z" fill="#C0E9FF"/>
<path d="M100.794 696.704V642.283C100.877 634.556 104.007 627.577 111.097 624.06L163.219 616.194C172.608 575.15 143.113 538.094 108.632 541.057L43.7422 563.878L35.0736 589.745L43.7145 633.919C43.7145 633.919 55.1803 681.555 55.1803 682.967C55.1803 684.352 63.1842 716.008 63.1842 716.008H93.2058L100.794 696.704Z" fill="#D6EEFD"/>
<path d="M137.352 429.86C140.98 417.73 149.538 411 162.943 411H322.329C335.761 411 344.291 417.702 347.919 429.86L376.473 550.528L322.633 616.194H163.192L108.771 550.528L137.352 429.86Z" fill="white"/>
<path d="M7.71036 562.965H36.3472C41.9693 562.965 45.6528 563.214 48.4777 570.581L86.4755 685.738C90.9898 693.658 97.0828 698.007 108.742 698.256H104.948H376.555C388.215 698.007 394.28 693.658 398.822 685.738L436.82 570.581C439.645 563.214 443.328 562.965 448.95 562.965H477.587C483.569 562.965 486.117 567.535 484.428 572.464L437.429 734.758C434.05 743.094 424.828 750.766 412.033 750.766H104.948H73.2649C60.4974 750.766 51.2749 743.122 47.8684 734.758L0.869629 572.464C-0.819763 567.562 1.72818 562.965 7.71036 562.965Z" fill="#A0D3EE"/>
<path d="M114.283 638.129H373.066V640.206H114.283V638.129Z" fill="#A0D3EE"/>
</g>
<g opacity="0.6">
<path d="M109.748 255.346H239.166V279.392H109.748V255.346Z" fill="#A0D3EE"/>
<path d="M100.71 279.367H243.574V291.304H100.71V279.367Z" fill="#DDF3FF"/>
<path d="M222.82 255.346H224.678V279.392H222.82V255.346Z" fill="white"/>
<path d="M215.217 255.346H217.074V279.392H215.217V255.346Z" fill="white"/>
<path d="M131.838 255.346H133.695V279.392H131.838V255.346Z" fill="white"/>
<path d="M124.209 255.346H126.066V279.392H124.209V255.346Z" fill="white"/>
<path d="M385.15 276.615C378.563 283.574 369.92 288.576 360.188 290.582H340.798C331.041 288.576 322.423 283.574 315.835 276.615H385.15Z" fill="#A0D3EE"/>
<path d="M360.189 291.498C382.848 286.843 399.168 266.809 399.168 243.827C399.168 227.136 390.748 211.783 376.633 202.793L376.41 202.645H324.603L324.38 202.793C310.265 211.783 301.845 227.136 301.845 243.827C301.845 266.809 318.164 286.843 340.625 291.474L360.189 291.498ZM375.84 204.502C389.287 213.169 397.286 227.854 397.286 243.827C397.286 265.917 381.61 285.208 359.991 289.666L340.799 289.641C319.378 285.208 303.677 265.917 303.677 243.827C303.677 227.854 311.701 213.169 325.123 204.502H375.84Z" fill="white"/>
<path d="M391.268 244.247H393.125C393.125 234.639 390.005 225.575 384.111 218.047L382.65 219.186C388.271 226.392 391.268 235.06 391.268 244.247Z" fill="white"/>
<path d="M378.366 214.506L379.629 213.144C377.697 211.336 375.592 209.702 373.364 208.266L372.373 209.826C374.503 211.213 376.533 212.773 378.366 214.506Z" fill="white"/>
<path opacity="0.5" d="M362.069 276.614C374.996 272.007 382.723 263.538 390.672 251.503C379.181 253.434 368.855 257.421 360.98 265.841C368.409 255.812 372.445 241.671 375.046 225.872C364.05 236.719 355.333 248.407 351.644 261.978C352.263 245.658 347.731 229.19 340.846 212.697C337.825 230.948 337.231 248.011 341.342 262.845C337.181 252.444 328.96 243.974 318.063 236.793C322.224 248.68 326.978 258.561 332.823 264.553C327.944 258.783 320.738 255.118 312.64 252.295C319.846 263.934 329.504 272.503 339.608 276.614H362.069Z" fill="#A0D3EE"/>
<path d="M408.38 342.117H422.941V295.535H408.38V342.117ZM421.084 340.259H410.237V297.368H421.084V340.259Z" fill="white"/>
<path d="M35.0109 342.117H49.5723V295.535H35.0109V342.117ZM47.715 340.259H36.8682V297.368H47.715V340.259Z" fill="white"/>
<path d="M15.0007 291.301H442.926V301.603H15.0007V291.301Z" fill="white"/>
<path d="M408.38 193.288H422.941V146.682H408.38V193.288ZM421.084 191.431H410.237V148.539H421.084V191.431Z" fill="white"/>
<path d="M35.0109 193.288H49.5723V146.682H35.0109V193.288ZM47.715 191.431H36.8682V148.539H47.715V191.431Z" fill="white"/>
<path d="M15.0007 142.473H442.926V152.775H15.0007V142.473Z" fill="white"/>
<path d="M264.77 107.729H394.188V131.601H264.77V107.729Z" fill="#A0D3EE"/>
<path d="M378.858 107.727H380.715V131.599H378.858V107.727Z" fill="white"/>
<path d="M373.682 107.727H375.539V131.599H373.682V107.727Z" fill="white"/>
<path d="M283.416 107.727H285.273V131.599H283.416V107.727Z" fill="white"/>
<path d="M278.217 107.727H280.074V131.599H278.217V107.727Z" fill="white"/>
<path d="M249.468 131.6H404.615V142.471H249.468V131.6Z" fill="#DDF3FF"/>
<path d="M246.125 87H401.941V107.728H246.125V87Z" fill="white"/>
</g>
</g>
<defs>
<clipPath id="clip0_501_19395">
<rect width="516" height="705" fill="white"/>
</clipPath>
</defs>
</svg>
