<svg width="565" height="554" viewBox="0 0 565 554" fill="none" xmlns="http://www.w3.org/2000/svg">
<g clip-path="url(#clip0_329_20444)">
<path d="M45.3349 692.664C50.2063 697.535 55.4893 702.178 61.2297 706.569C89.909 728.593 129.566 744.374 182.236 749.657C451.579 776.621 540.59 650.263 562.339 455.866C572.036 369.233 549.349 312.058 521.219 275.305C518.268 271.463 515.272 267.849 512.254 264.442C510.538 262.521 508.8 260.645 506.993 258.816C470.675 221.72 418.234 204.247 366.707 212.732C326.204 219.387 289.406 241.023 259.56 284.27C211.807 353.407 256.976 412.847 120.532 416.826C16.061 419.845 -50.1254 597.432 45.3349 692.664Z" fill="#FFBA44"/>
<path d="M457.685 272.88C457.685 272.88 489.543 341.033 452.768 466.133C415.992 591.233 367.279 581.376 335.809 581.376C280.829 581.376 169.497 529.598 147.747 488.798C125.998 447.997 167.05 445.573 243.917 439.535C320.806 433.497 378.165 245.893 457.685 272.88Z" fill="#F8A12C"/>
<path d="M462.601 413.965C463.745 413.965 464.728 413.119 464.866 411.953C468.182 385.446 479.594 365.183 488.559 352.856C498.325 339.454 507.427 332.25 507.519 332.181C508.502 331.404 508.685 329.963 507.907 328.957C507.13 327.95 505.689 327.79 504.683 328.568C504.294 328.865 495.077 336.161 484.946 350.02C475.615 362.804 463.768 383.822 460.292 411.381C460.131 412.639 461.023 413.782 462.281 413.942C462.396 413.965 462.51 413.965 462.601 413.965Z" fill="#F8A12C"/>
<path d="M45.3351 692.664C50.2065 697.535 55.4895 702.178 61.2299 706.569C94.3689 726.466 134.826 739.571 179.378 744.694C193.191 746.295 207.142 747.072 221.093 747.072C259.561 747.072 298.12 741.08 334.461 729.302C429.006 698.679 497.228 633.156 526.548 544.831C542.625 496.392 550.516 449.302 550.013 404.842C549.624 369.233 543.838 335.225 532.883 303.756C529.223 293.258 525.244 283.79 521.219 275.305C518.269 271.463 515.273 267.849 512.254 264.442C510.539 262.521 508.8 260.645 506.994 258.816C514.175 271.12 521.859 286.74 528.423 305.608C545.324 354.253 557.926 434.985 521.974 543.298C493.157 630.137 426.033 694.562 332.997 724.705C234.152 756.723 119.823 743.733 48.514 692.412C47.4849 691.68 46.1584 691.841 45.3351 692.664Z" fill="#F8A12C"/>
<path d="M440.326 194.162C440.326 194.162 477.513 156.152 423.356 129.371C369.177 102.59 305.369 143.505 294.917 173.35C284.42 203.196 440.326 194.162 440.326 194.162Z" fill="#218C79"/>
<path d="M375.627 168.09C375.947 168.09 376.29 167.975 376.564 167.747C391.339 155.099 416.107 156.266 416.359 156.266C416.382 156.266 416.404 156.266 416.427 156.266C417.182 156.266 417.822 155.671 417.845 154.916C417.891 154.116 417.274 153.453 416.496 153.407C415.444 153.338 390.332 152.172 374.689 165.574C374.095 166.077 374.026 166.992 374.529 167.587C374.803 167.93 375.215 168.09 375.627 168.09Z" fill="#145B4F"/>
<path d="M411.921 169.897C412.424 169.897 412.927 169.622 413.179 169.142C413.545 168.433 413.293 167.587 412.584 167.198C411.852 166.809 394.722 157.799 382.578 160.634C381.801 160.817 381.32 161.572 381.503 162.35C381.686 163.127 382.441 163.608 383.219 163.425C394.334 160.84 411.075 169.645 411.235 169.737C411.463 169.851 411.692 169.897 411.921 169.897Z" fill="#145B4F"/>
<path d="M92.9042 410.856C118.061 391.508 208.422 399.467 279.205 409.484C281.218 441.548 271.338 414.927 277.307 446.465C188.936 450.993 164.099 457.969 164.099 457.969C164.099 457.969 177.318 529.895 176.678 559.97C176.037 590.044 186.695 677.065 186.695 677.065L122.979 689.072C122.979 689.095 56.8835 438.575 92.9042 410.856Z" fill="#1A060A"/>
<path opacity="0.1" d="M171.418 662.84C171.692 662.932 172.012 662.955 172.309 662.886C173.247 662.68 173.819 661.765 173.636 660.85C173.567 660.53 166.843 628.741 166.455 577.351C166.066 525.596 150.194 448.5 150.034 447.746C149.851 446.808 148.936 446.213 147.998 446.419C147.061 446.602 146.466 447.517 146.672 448.455C146.832 449.232 162.635 525.985 163.001 577.397C163.39 629.152 170.183 661.262 170.251 661.582C170.411 662.2 170.869 662.657 171.418 662.84Z" fill="#E6EFF5"/>
<path d="M109.865 174.297C109.865 174.297 109.108 174.322 110.742 169.922C113.376 162.655 107.433 150.872 111.148 146.702C116.125 141.128 120.581 151.982 127.608 173.625C129.444 179.337 129.349 200.145 127.925 206.698C126.842 211.669 127.846 218.28 125.254 221.13C117.047 230.148 93.9408 234.29 89.4796 229.658C82.9282 222.88 78.0733 205.293 74.0469 199.324C69.9845 193.357 48.5985 152 53.8387 151.939C59.0789 151.878 70.6886 170.692 70.6886 170.692C70.6886 170.692 56.3108 137.741 61.6084 135.252C66.5911 132.896 79.9655 163.722 79.9655 163.722C79.9655 163.722 65.6624 121.83 73.5957 122.42C77.5624 122.715 91.4973 160.043 91.4973 160.043C91.4973 160.043 83.9968 135.218 94.6603 133.78C105.893 132.222 112.219 143.83 112.219 143.83C112.219 143.83 112.492 151.694 102.531 145.697C93.7474 140.401 109.865 174.297 109.865 174.297Z" fill="#F69D84"/>
<path d="M72.5362 181.475C72.0585 180.935 72.0249 180.07 72.5234 179.523C84.1079 166.181 101.574 166.111 102.334 166.122C103.167 166.127 103.8 166.8 103.792 167.596C103.786 168.428 103.114 169.061 102.318 169.053C102.138 169.068 85.4325 169.149 74.776 181.439C74.2474 182.061 73.3129 182.136 72.6886 181.571C72.6138 181.541 72.575 181.508 72.5362 181.475Z" fill="#DB7A6D"/>
<path d="M96.8104 209.319C96.4133 208.88 96.3252 208.236 96.5692 207.674C104.37 191.816 95.445 181.178 95.3644 181.076C94.845 180.466 94.9134 179.52 95.5226 179.001C96.1319 178.482 97.0419 178.553 97.5944 179.123C97.5944 179.123 97.5944 179.123 97.5973 179.159C98.0361 179.666 107.844 191.391 99.2067 208.981C98.8305 209.698 97.9523 210.022 97.2347 209.646C97.0851 209.586 96.9298 209.454 96.8104 209.319Z" fill="#DB7A6D"/>
<path d="M266.671 189.403L266.694 189.289C266.694 189.289 266.694 189.289 266.671 189.312L266.625 189.426L266.488 189.746L266.168 190.501L265.459 192.148C264.956 193.291 264.407 194.48 263.858 195.67C262.738 198.071 261.571 200.495 260.336 202.919C257.843 207.745 255.213 212.594 252.354 217.282C250.914 219.638 249.473 221.97 247.986 224.28C246.5 226.59 244.967 228.854 243.389 231.096C241.811 233.337 240.187 235.532 238.541 237.705C236.894 239.878 235.225 242.028 233.486 244.132C219.764 260.987 203.755 275.372 185.848 286.396C184.727 287.082 183.607 287.768 182.463 288.431C181.342 289.117 180.176 289.735 179.032 290.375L178.163 290.856C178.529 290.65 178.918 290.49 179.353 290.284C180.199 289.918 181.159 289.575 182.12 289.323C183.103 289.072 184.11 288.889 185.07 288.797C186.031 288.683 186.946 288.683 187.746 288.729C189.347 288.797 190.559 289.117 191.245 289.323C191.954 289.552 192.251 289.735 192.274 289.758C192.297 289.826 191.382 289.346 190.216 288.454C189.027 287.562 187.563 286.304 186.031 284.818C184.476 283.331 182.852 281.616 181.205 279.763C177.889 276.081 174.527 271.827 171.211 267.368C164.556 258.426 158.083 248.568 151.794 238.46C148.638 233.405 145.528 228.26 142.486 223.091C140.954 220.507 139.421 217.899 137.935 215.315L133.589 207.791L80.5532 231.896L81.5366 234.458L82.4743 236.836L84.3725 241.524C85.6761 244.612 87.0027 247.699 88.352 250.764C91.0736 256.87 93.9323 262.931 96.9283 268.969C102.989 281.021 109.576 292.937 117.397 304.829C121.308 310.798 125.562 316.722 130.41 322.714C132.857 325.71 135.488 328.706 138.369 331.747C141.274 334.789 144.453 337.831 148.226 340.918C152 343.983 156.322 347.116 162.017 350.044C164.853 351.507 168.1 352.88 171.851 354.023C175.579 355.167 179.924 356.036 184.681 356.287C187.083 356.402 189.576 356.333 192.114 356.104C194.653 355.83 197.214 355.372 199.73 354.709C202.223 354.023 204.693 353.177 206.98 352.148C208.146 351.645 209.221 351.073 210.319 350.524L211.531 349.861C213.155 348.969 214.802 348.077 216.402 347.139C218.026 346.224 219.604 345.287 221.205 344.303C224.384 342.382 227.494 340.37 230.582 338.311C233.624 336.207 236.665 334.08 239.616 331.839C242.589 329.621 245.471 327.334 248.329 324.978C251.142 322.599 253.955 320.198 256.654 317.705C267.54 307.802 277.352 296.893 286.134 285.344C290.525 279.558 294.642 273.611 298.461 267.505C302.28 261.399 305.917 255.178 309.21 248.774C310.857 245.572 312.435 242.348 313.967 239.077C315.499 235.807 316.94 232.514 318.312 229.152C319.684 225.79 321.011 222.382 322.223 218.883C322.841 217.122 323.435 215.361 324.007 213.508C324.304 212.594 324.601 211.656 324.876 210.695L325.859 207.242L266.671 189.403Z" fill="#218C79"/>
<path d="M177.433 315.556C178.233 315.83 179.125 315.464 179.514 314.687C185.369 302.931 188.067 288.272 188.182 287.654C188.342 286.716 187.724 285.825 186.81 285.664C185.872 285.504 184.98 286.122 184.82 287.037C184.797 287.174 182.075 301.834 176.449 313.154C176.038 314.001 176.381 315.03 177.227 315.464C177.273 315.51 177.364 315.533 177.433 315.556Z" fill="#145B4F"/>
<path d="M190.675 305.904C190.972 305.996 191.292 306.019 191.635 305.927C192.55 305.699 193.122 304.761 192.87 303.846C192.733 303.343 189.737 291.473 187.93 287.723C187.519 286.876 186.489 286.51 185.643 286.922C184.797 287.334 184.431 288.363 184.843 289.209C186.512 292.64 189.508 304.555 189.554 304.669C189.691 305.287 190.126 305.744 190.675 305.904Z" fill="#145B4F"/>
<path d="M92.9739 260.072C93.4541 260.232 94.003 260.186 94.4604 259.866C111.453 248.637 146.353 233.497 146.719 233.359C147.588 232.994 148 231.964 147.611 231.095C147.245 230.226 146.216 229.815 145.347 230.203C145.004 230.363 109.806 245.595 92.5622 257.007C91.7617 257.533 91.5559 258.585 92.082 259.386C92.3107 259.729 92.6308 259.958 92.9739 260.072Z" fill="#145B4F"/>
<path d="M266.17 190.455C261.665 204.132 269.143 237.385 261.893 295.864C261.367 300.164 260.75 304.601 260.041 309.198C259.378 313.497 258.646 317.957 257.822 322.554C257.045 326.831 256.199 331.244 255.284 335.75C254.46 339.706 253.591 343.777 252.631 347.917C251.647 352.194 250.618 356.539 249.498 360.999C249.177 362.257 248.834 363.629 248.468 365.047C248.377 365.413 248.285 365.756 248.194 366.122C248.102 366.442 248.034 366.762 247.942 367.105C247.874 367.357 247.828 367.608 247.759 367.837C247.714 368.02 247.668 368.203 247.622 368.386C247.531 368.706 247.462 369.049 247.371 369.369C247.348 369.438 247.348 369.506 247.325 369.552C247.233 369.941 247.119 370.353 247.005 370.764C246.982 370.833 246.982 370.879 246.959 370.947C246.868 371.29 246.776 371.656 246.685 371.999C246.25 373.646 245.793 375.384 245.335 377.168C245.221 377.602 245.107 378.06 244.969 378.517C244.809 379.112 244.649 379.729 244.489 380.347C244.169 381.559 243.826 382.771 243.506 384.029C243.346 384.646 243.163 385.287 243.002 385.904C242.637 387.254 242.271 388.603 241.882 389.998C241.813 390.25 241.745 390.501 241.676 390.753C240.784 394.046 239.824 397.431 238.863 400.907C238.428 402.462 237.971 404.063 237.536 405.641C236.988 407.562 236.439 409.506 235.89 411.45C235.066 414.309 234.243 417.168 233.397 420.027C233.031 421.239 232.688 422.451 232.322 423.663C232.002 424.761 231.659 425.859 231.339 426.956C230.95 428.26 230.561 429.587 230.172 430.89C229.921 431.759 229.646 432.628 229.372 433.497C229.212 434.046 229.052 434.572 228.892 435.121C228.571 436.196 228.228 437.271 227.908 438.346C227.588 439.421 227.245 440.473 226.925 441.525C226.696 442.279 226.467 443.011 226.239 443.743C226.033 444.406 225.827 445.047 225.621 445.687C225.552 445.87 225.507 446.03 225.461 446.213C225.347 446.579 225.232 446.968 225.095 447.334C224.843 448.089 224.615 448.866 224.363 449.598C224.089 450.467 223.791 451.359 223.517 452.228C221.253 459.181 219.034 465.653 216.953 471.256C232.414 489.026 258.669 504.555 289.543 513.863L306.673 502.726L321.013 520.907C351.179 525.321 383.494 523.583 413.271 512.743C423.106 492.64 439.321 418.883 443.917 396.836C444.832 392.445 445.656 388.031 446.41 383.617C450.07 362.371 452.014 340.804 453.317 318.14C453.386 316.905 453.454 315.67 453.523 314.435C453.523 314.298 453.546 314.138 453.546 314C454.941 294.904 479.892 238.643 477.377 218.403C472.391 178.288 446.822 188.854 423.769 182.657C416.199 180.621 409.841 178.06 404.626 175.43C402.454 174.332 400.487 173.234 398.703 172.159C397.948 171.725 397.262 171.29 396.599 170.833C389.441 166.19 385.53 162.279 385.53 162.279L333.226 156.813C328.057 162.897 321.95 166.442 315.524 168.729C314.815 168.98 314.106 169.209 313.374 169.438C312.299 169.781 311.224 170.078 310.149 170.352C291.625 175.178 272.071 172.548 266.17 190.455Z" fill="#218C79"/>
<path d="M397.423 472.034C397.995 472.034 398.544 471.668 398.772 471.097C427.383 394.276 442.203 261.628 442.34 260.302C442.431 259.524 441.86 258.815 441.082 258.724C440.305 258.632 439.596 259.204 439.504 259.982C439.367 261.308 424.593 393.612 396.096 470.09C395.822 470.822 396.188 471.646 396.943 471.943C397.08 472.012 397.263 472.034 397.423 472.034Z" fill="#145B4F"/>
<path d="M346.834 189.107C346.285 190.776 348.275 192.926 351.294 193.909C354.312 194.893 357.194 194.367 357.743 192.697C358.292 191.028 356.302 188.878 353.283 187.895C350.264 186.888 347.383 187.437 346.834 189.107Z" fill="#145B4F"/>
<path d="M323.484 183.138C322.935 184.807 324.925 186.957 327.944 187.94C330.963 188.924 333.844 188.398 334.393 186.728C334.942 185.059 332.953 182.909 329.934 181.925C326.915 180.942 324.01 181.468 323.484 183.138Z" fill="#145B4F"/>
<path d="M316.852 195.625C317.492 195.625 318.064 195.19 318.247 194.55C318.453 193.795 317.973 192.995 317.218 192.812C297.046 187.643 295.789 175.499 295.743 174.996C295.674 174.218 294.988 173.624 294.211 173.692C293.433 173.761 292.838 174.447 292.907 175.224C292.953 175.819 294.256 189.884 316.532 195.602C316.623 195.625 316.738 195.625 316.852 195.625Z" fill="#145B4F"/>
<path d="M285.863 322.097C312.758 322.097 336.063 315.19 351.66 308.924C371.1 301.125 383.176 292.571 383.29 292.48C383.93 292.022 384.09 291.13 383.633 290.49C383.176 289.85 382.284 289.69 381.643 290.147C381.529 290.239 369.682 298.632 350.54 306.293C332.907 313.36 305.257 321.273 273.787 318.735C272.987 318.666 272.301 319.261 272.255 320.038C272.186 320.816 272.781 321.525 273.559 321.571C277.721 321.96 281.838 322.097 285.863 322.097Z" fill="#145B4F"/>
<path d="M367.279 372.71C367.279 372.71 303.014 356.335 262.968 355.854L250.733 408.845C250.733 408.845 314.198 419.525 354.358 426.524L367.279 372.71Z" fill="#145B4F"/>
<path d="M403.324 208.066C415.697 208.066 425.165 204.612 431.615 201.044C441.906 195.373 446.892 188.397 447.098 188.1C447.555 187.46 447.395 186.568 446.755 186.11C446.114 185.653 445.222 185.813 444.765 186.453C444.719 186.522 439.871 193.269 430.128 198.597C421.14 203.514 406.023 208.226 384.982 202.714C384.228 202.508 383.427 202.966 383.244 203.743C383.038 204.498 383.496 205.298 384.273 205.481C391.226 207.311 397.584 208.066 403.324 208.066Z" fill="#145B4F"/>
<path d="M238.794 400.93C239.755 397.454 240.715 394.069 241.607 390.776C240.693 394.069 239.755 397.454 238.794 400.93Z" fill="#26120C"/>
<path d="M243.438 384.03C243.782 382.772 244.102 381.56 244.422 380.347C244.102 381.56 243.782 382.795 243.438 384.03Z" fill="#26120C"/>
<path d="M257.596 315.51C257.687 315.533 257.802 315.579 257.916 315.579C258.854 315.693 259.723 315.03 259.837 314.092C262.97 290.17 266.424 261.742 266.744 253.715C266.79 252.777 266.058 251.976 265.097 251.931C264.16 251.885 263.359 252.617 263.314 253.577C262.993 261.491 259.54 289.781 256.43 313.658C256.315 314.481 256.818 315.258 257.596 315.51Z" fill="#145B4F"/>
<path d="M320.119 48.4309C320.119 48.4309 303.538 61.4669 314.425 81.3412C314.402 81.3412 320.371 58.1279 320.119 48.4309Z" fill="#26120C"/>
<path d="M386.512 138.106C386.512 138.106 397.261 148.558 399.48 140.85C401.698 133.143 397.947 129.301 397.947 129.301C397.947 129.301 409.566 140.462 409.748 132.045C409.931 123.652 403.871 116.15 403.871 116.15C403.871 116.15 414.643 108.26 411.121 95.6359C407.599 83.0115 407.164 73.7719 410.686 63.4346C414.208 53.0972 412.607 42.4168 407.507 37.7971C400.052 31.0275 389.211 32.0795 389.211 32.0795C389.211 32.0795 383.448 13.1887 361.858 13.6918C340.269 14.195 327.69 -2.66039 316.804 1.73069C305.918 6.12178 293.43 42.0967 322.727 52.7542C322.727 52.7313 380.772 91.6793 386.512 138.106Z" fill="#26120C"/>
<path d="M331.695 148.372L330.277 162.025C331.74 163.489 333.227 164.77 334.759 165.913C356.966 182.609 384.365 167.674 384.365 167.674L389.305 120.379L338.578 145.056L331.695 148.372Z" fill="#F69D84"/>
<path opacity="0.5" d="M331.831 147.183L330.276 162.026C331.739 163.49 333.226 164.771 334.758 165.914C355.753 160.036 372.654 140.414 372.654 140.414L338.578 145.056L331.831 147.183Z" fill="#DB7A6D"/>
<path d="M309.348 117.385C309.348 117.385 306.352 145.584 335.718 148.58C364.877 151.576 387.153 130.741 388.296 129.803C388.319 129.78 388.342 129.78 388.342 129.78L389.28 123.88L394.151 93.2794L396.758 76.9272C396.758 76.9272 403.574 47.699 375.992 39.3514C355.844 33.245 336.198 34.663 325.358 44.3599C325.014 44.6801 324.671 45.0003 324.351 45.3205C320.898 48.7739 318.474 53.165 317.376 58.5395L313.373 87.9964L312.39 95.2233L309.348 117.385Z" fill="#F69D84"/>
<path d="M321.301 79.6959C321.076 82.1826 321.916 84.2935 323.218 84.4039C324.503 84.542 325.743 82.6366 325.968 80.1499C326.194 77.6632 325.353 75.5523 324.051 75.4419C322.794 75.3207 321.554 77.2261 321.301 79.6959Z" fill="#26120C"/>
<path d="M330.809 78.8848C330.943 78.8524 331.049 78.8032 331.161 78.6816C331.431 78.4276 331.423 78.0045 331.152 77.763C330.936 77.5553 325.782 72.5436 319.954 75.2982C319.635 75.446 319.471 75.84 319.646 76.1754C319.794 76.4938 320.188 76.6584 320.523 76.4828C325.53 74.1393 330.187 78.6572 330.226 78.7188C330.403 78.8649 330.603 78.911 330.809 78.8848Z" fill="#26120C"/>
<path d="M349.836 82.0067C349.611 84.4933 350.451 86.6043 351.753 86.7147C353.038 86.8528 354.278 84.9474 354.503 82.4607C354.729 79.974 353.888 77.8631 352.586 77.7527C351.301 77.6146 350.062 79.52 349.836 82.0067Z" fill="#26120C"/>
<path d="M360.22 82.1872C360.337 82.1826 360.488 82.1225 360.611 82.0455C360.908 81.8085 360.956 81.4192 360.719 81.1223C360.52 80.8869 356.071 75.2795 349.915 77.2632C349.586 77.3664 349.394 77.7435 349.48 78.1005C349.583 78.4297 349.96 78.6219 350.317 78.5357C355.575 76.8399 359.632 81.9043 359.671 81.9658C359.82 82.095 360.031 82.1857 360.22 82.1872Z" fill="#26120C"/>
<path d="M331.351 66.441C333.969 66.5211 334.769 63.5007 332.352 62.6373C331.09 62.1916 329.46 62.0228 327.497 62.5179C318.901 64.6662 319.004 69.9276 319.004 69.9276C319.004 69.9276 324.16 67.184 328.723 66.5643C329.712 66.4531 330.587 66.427 331.351 66.441Z" fill="#26120C"/>
<path d="M352.924 68.7233C350.353 68.6628 349.75 65.0123 352.163 64.1153C353.419 63.6392 355.014 63.5205 356.916 64.2334C365.18 67.3105 367.058 75.5242 367.058 75.5242C367.058 75.5242 359.886 70.0161 355.501 69.0416C354.507 68.8286 353.643 68.7399 352.924 68.7233Z" fill="#26120C"/>
<path d="M394.128 93.281C394.128 93.281 387.518 95.3393 384.614 103.367C380.245 102.909 377.204 98.8385 378.004 94.516C378.462 92.0003 379.056 89.0043 379.742 85.6195C381.846 75.488 385.071 72.2861 379.193 65.9282C373.316 59.5703 378.85 55.7967 373.499 51.3141C367.621 46.397 353.121 55.1106 342.441 52.8922C329.771 50.2621 330.846 41.6629 319.799 51.52C319.799 51.52 322.727 36.6772 337.135 32.6749C351.543 28.6497 392.024 32.1946 398.221 51.4742C404.419 70.7767 394.128 93.281 394.128 93.281Z" fill="#26120C"/>
<path d="M351.223 95.636C351.017 97.6944 355.065 99.7984 360.279 100.347C365.494 100.896 369.908 99.6612 370.114 97.6257C370.319 95.5674 366.271 93.4634 361.057 92.9145C355.843 92.3656 351.451 93.5777 351.223 95.636Z" fill="#FF7C66"/>
<path d="M312.367 95.2246C313.099 95.3846 313.853 95.499 314.631 95.5676C319.845 96.1165 324.259 94.8815 324.465 92.8232C324.671 90.7649 320.623 88.6608 315.409 88.1119C314.7 88.0433 314.013 87.9976 313.35 87.9976L312.367 95.2246Z" fill="#FF7C66"/>
<path d="M331.58 110.34C341.894 111.415 351.248 103.456 351.385 103.342C351.866 102.93 351.934 102.175 351.5 101.695C351.088 101.215 350.333 101.146 349.853 101.581C349.236 102.107 334.736 114.411 322.935 103.982C322.455 103.548 321.723 103.593 321.288 104.074C320.854 104.554 320.899 105.286 321.38 105.72C324.673 108.648 328.172 109.997 331.58 110.34Z" fill="#C05A4B"/>
<path d="M380.292 117.408C380.384 117.728 383.197 126.739 388.274 129.803C388.297 129.781 388.297 129.781 388.297 129.781L389.234 123.88C389.257 123.88 384.706 122.599 380.292 117.408Z" fill="#26120C"/>
<path d="M387.497 98.3586C387.497 98.3586 400.35 84.3849 407.371 97.1465C413.158 107.667 397.606 131.886 385.05 121.709L387.497 98.3586Z" fill="#F69D84"/>
<path d="M387.086 117.317C387.68 117.386 388.229 116.997 388.343 116.402C390.79 105.059 400.808 102.086 401.242 101.948C401.86 101.765 402.226 101.125 402.043 100.508C401.86 99.8901 401.219 99.5242 400.602 99.7071C400.122 99.8444 388.824 103.161 386.056 115.899C385.919 116.54 386.331 117.157 386.948 117.294C386.994 117.317 387.04 117.317 387.086 117.317Z" fill="#DB7A6D"/>
<path d="M398.657 111.417C399 111.463 399.343 111.348 399.594 111.074C400.052 110.616 400.052 109.885 399.594 109.427C399.16 108.993 395.341 105.288 391.773 105.814C391.132 105.905 390.698 106.5 390.789 107.14C390.881 107.781 391.476 108.215 392.116 108.124C394.174 107.826 397.01 110.159 397.948 111.074C398.131 111.28 398.382 111.394 398.657 111.417Z" fill="#DB7A6D"/>
<path d="M337.684 97.1428C338.324 97.2114 338.896 96.754 338.964 96.1136C339.033 95.4732 338.576 94.9015 337.935 94.8329C333.659 94.3983 331.897 91.9284 331.349 90.8763C336.975 81.8197 342.578 72.6716 342.647 72.5801C342.99 72.0313 342.807 71.3223 342.258 70.9792C341.709 70.6362 341 70.8191 340.657 71.368C340.588 71.4595 334.779 80.9507 329.039 90.1674C328.856 90.4647 328.81 90.8306 328.924 91.1736C328.97 91.3795 330.8 96.4338 337.684 97.1428Z" fill="#DB7A6D"/>
<path opacity="0.3" d="M337.112 87.9044C336.884 91.8381 343.242 95.4058 351.361 95.909C359.457 96.4121 366.226 93.6219 366.455 89.6882C366.684 85.7546 360.326 82.1868 352.207 81.6837C344.111 81.2034 337.364 83.9936 337.112 87.9044Z" fill="white"/>
<path opacity="0.3" d="M299.581 86.3267C299.352 90.2604 305.71 93.8282 313.829 94.3313C321.925 94.8345 328.695 92.0443 328.924 88.1106C329.152 84.1769 322.794 80.6092 314.676 80.106C306.58 79.6258 299.833 82.4159 299.581 86.3267Z" fill="white"/>
<path d="M328.856 88.0867C329.062 88.0867 329.268 88.0181 329.428 87.8809C332.515 85.1822 336.586 87.8351 336.746 87.9495C337.135 88.2011 337.684 88.1096 337.935 87.7208C338.187 87.332 338.096 86.7831 337.707 86.5315C335.877 85.2966 331.555 83.7414 328.307 86.6002C327.941 86.9203 327.918 87.4463 328.216 87.8123C328.376 87.9724 328.627 88.0867 328.856 88.0867Z" fill="#26120C"/>
<path d="M397.491 92.0206C397.742 92.0206 397.994 91.9063 398.177 91.6776C398.474 91.3117 398.406 90.7628 398.017 90.4655C385.072 80.4254 366.845 87.6753 366.09 87.9726C365.655 88.1556 365.45 88.6587 365.61 89.0933C365.793 89.5278 366.296 89.7336 366.73 89.5735C366.913 89.5049 384.798 82.3923 396.965 91.8377C397.102 91.9749 397.285 92.0206 397.491 92.0206Z" fill="#26120C"/>
<path d="M421.596 488.936C421.596 488.936 417.548 606.969 275.089 559.971C199 534.859 165.243 515.58 165.243 515.58C165.243 515.58 141.252 582.178 128.354 609.348C115.455 636.517 79.6171 703.024 79.6171 703.024L18.1419 687.884C18.1419 687.884 89.7258 438.736 133.934 428.192C178.142 417.649 231.178 434.413 324.717 455.637C324.74 455.66 406.433 468.17 421.596 488.936Z" fill="#2B2B39"/>
<path opacity="0.1" d="M77.8793 680.656C78.6112 680.908 79.4574 680.611 79.869 679.925C99.7204 647.815 119.435 599.17 135.261 560.085C141.939 543.641 147.679 529.416 152.482 518.804C158.977 504.419 161.63 501.56 162.636 501.125C167.05 499.227 181.55 505.791 199.892 514.07C226.467 526.077 266.604 544.236 313.306 553.933C337.251 558.895 358.017 555.648 374.964 544.258C405.152 523.995 412.608 485.596 412.905 483.973C413.088 483.035 412.471 482.143 411.533 481.983C410.595 481.8 409.704 482.417 409.521 483.355C409.452 483.744 401.996 522.006 373.02 541.445C356.85 552.286 336.999 555.351 313.992 550.593C267.657 540.988 227.725 522.921 201.287 510.959C179.949 501.308 167.073 495.499 161.264 497.992C155.981 500.256 147.611 520.405 132.059 558.804C116.278 597.752 96.633 646.26 76.9188 678.118C76.4157 678.918 76.6672 679.993 77.4677 680.474C77.6507 680.565 77.765 680.634 77.8793 680.656Z" fill="#E6EFF5"/>
<path d="M279.548 460.24L91.2909 441.923C90.9252 441.897 90.6792 441.614 90.7078 441.336L93.3205 422.382C93.3724 422.086 93.697 421.889 94.0398 421.914L282.297 440.231C282.663 440.257 282.908 440.541 282.88 440.819L280.267 459.772C280.239 460.05 279.914 460.266 279.548 460.24Z" fill="#A7C6DB"/>
<path d="M74.7198 439.578L74.7209 439.578L175.029 449.032L146.986 294.76L146.986 294.76C146.025 289.465 141.67 285.472 136.309 284.959L51.349 276.955C43.4898 276.229 37.0847 283.126 38.3872 290.898L61.3488 427.158L61.3488 427.159C62.4738 433.844 67.97 438.95 74.7198 439.578Z" fill="white" stroke="#A7C6DB" stroke-width="1.70723"/>
<path d="M146.077 295.476L174.093 449.576L183.812 450.491L155.796 296.391C154.744 290.719 150.102 286.42 144.361 285.894L134.642 284.979C140.359 285.505 145.025 289.804 146.077 295.476Z" fill="#A7C6DB"/>
<path d="M115.158 366.374C116.301 374.905 110.469 381.171 102.122 380.394C93.774 379.616 86.0895 372.046 84.946 363.516C83.8025 354.985 89.6345 348.719 97.9821 349.496C106.33 350.297 114.014 357.844 115.158 366.374Z" fill="#A7C6DB"/>
<path d="M234.242 403.4C234.242 403.4 190.011 393.52 174.551 400.884L179.971 428.946C179.971 428.946 204.9 427.208 210.709 430.09C216.518 432.971 216.838 444.155 239.205 444.795L234.242 403.4Z" fill="#F69D84"/>
<path d="M239.092 397.864L244.283 397.018L254.712 395.326C261.665 394.159 268.595 392.924 275.524 391.621C289.361 389.082 303.106 386.292 316.553 383.227C323.277 381.672 329.933 380.025 336.451 378.31C342.969 376.572 349.349 374.719 355.433 372.684C361.471 370.671 367.302 368.522 372.105 366.257C374.484 365.137 376.588 363.993 378.029 363.056C378.051 363.033 378.051 363.033 378.074 363.01L378.28 362.69C379.081 361.432 379.813 360.128 380.544 358.825C382.008 356.217 383.426 353.587 384.752 350.889C387.451 345.514 389.83 339.957 391.979 334.285C396.302 322.918 399.504 310.98 401.814 298.722C402.957 292.592 403.849 286.395 404.512 280.128C405.198 273.862 405.633 267.55 405.839 261.237C406.068 254.925 406.09 248.59 405.839 242.347C405.724 239.213 405.541 236.126 405.29 233.084C405.176 231.575 405.038 230.065 404.901 228.624L404.672 226.543L404.489 225.148L476.028 214.033L476.211 215.314L476.348 216.252L476.554 218.035L476.92 221.329C477.148 223.479 477.331 225.583 477.468 227.664C477.766 231.849 477.949 235.966 478.04 240.06C478.269 248.247 478.154 256.389 477.743 264.508C476.851 280.746 474.724 296.938 471.202 313.016C470.31 317.018 469.349 321.043 468.297 325.022C467.223 329.002 466.056 332.981 464.821 336.938C462.305 344.851 459.424 352.673 456.153 360.38C453.089 367.447 449.727 374.422 445.976 381.237C445.656 381.832 445.336 382.427 444.993 383.021C442.957 386.703 440.762 390.34 438.498 393.93C437.354 395.714 436.21 397.498 435.021 399.259L434.129 400.586L433.695 401.249L432.803 402.53C431.202 404.794 429.578 406.692 428.023 408.316C426.468 409.94 424.958 411.358 423.518 412.57C422.054 413.828 420.682 414.88 419.309 415.863C416.611 417.784 414.095 419.362 411.671 420.711C408.263 422.61 405.084 424.165 401.997 425.514C400.716 426.086 399.435 426.612 398.2 427.138C393.946 428.876 389.853 430.317 385.85 431.621C381.848 432.947 377.914 434.091 374.003 435.143C366.228 437.247 358.612 439.008 351.065 440.563C343.517 442.141 336.039 443.49 328.56 444.725C313.649 447.195 298.852 449.116 284.101 450.74C276.713 451.518 269.326 452.227 261.939 452.867C258.234 453.187 254.552 453.485 250.847 453.759L245.267 454.148L239.526 454.491L234.038 398.642L239.092 397.864ZM379.447 362.004C379.538 361.912 379.584 361.843 379.469 361.912C379.401 361.958 379.195 362.095 378.875 362.415C378.806 362.484 378.738 362.575 378.646 362.667C379.035 362.37 379.309 362.141 379.447 362.004Z" fill="#218C79"/>
<path d="M402.019 425.516C405.106 424.167 408.308 422.612 411.693 420.714C414.094 419.341 416.633 417.786 419.331 415.865C420.704 414.882 422.076 413.83 423.539 412.572C424.98 411.36 426.49 409.942 428.045 408.318C429.577 406.717 431.224 404.796 432.825 402.532L433.717 401.251L434.151 400.588L435.043 399.261C436.255 397.5 437.376 395.716 438.519 393.933C440.784 390.342 442.956 386.706 445.015 383.023C445.358 382.429 445.678 381.834 445.998 381.24C445.815 381.148 445.632 381.057 445.426 380.965C445.403 380.988 399.274 381.605 402.019 425.516Z" fill="#145B4F"/>
<path d="M305.712 450.008C305.941 450.077 306.17 450.1 306.421 450.077C306.993 450.031 364.992 444.382 397.468 429.15C430.195 413.805 445.541 384.508 446.158 383.273C446.593 382.427 446.25 381.397 445.427 380.963C444.58 380.528 443.551 380.871 443.117 381.695C442.957 381.992 427.634 411.197 396.004 426.04C364.077 441.02 306.673 446.6 306.101 446.646C305.164 446.738 304.455 447.584 304.546 448.522C304.615 449.23 305.095 449.802 305.712 450.008Z" fill="#145B4F"/>
<path d="M399.046 383.206C399.618 383.389 400.281 383.274 400.762 382.817C401.448 382.177 401.493 381.079 400.83 380.393C392.803 371.839 381.276 363.263 380.773 362.897C380.018 362.325 378.943 362.485 378.372 363.263C377.8 364.018 377.96 365.093 378.737 365.664C378.852 365.756 390.516 374.424 398.337 382.748C398.543 382.954 398.795 383.114 399.046 383.206Z" fill="#145B4F"/>
<path d="M380.041 366.533C380.11 366.555 380.156 366.578 380.224 366.578C387.063 368.019 396.051 370.946 396.142 370.969C397.034 371.267 398.017 370.764 398.315 369.872C398.612 368.98 398.109 367.996 397.217 367.722C396.851 367.607 387.955 364.726 380.933 363.239C379.996 363.033 379.104 363.628 378.898 364.566C378.715 365.412 379.218 366.258 380.041 366.533Z" fill="#145B4F"/>
<path d="M395.455 324.612C395.478 324.612 395.478 324.612 395.501 324.634C396.416 324.909 397.377 324.383 397.628 323.468C398.291 321.25 413.637 269.06 413.66 242.782C413.66 241.844 412.883 241.067 411.945 241.067C411.007 241.067 410.23 241.844 410.23 242.782C410.23 268.557 394.495 321.959 394.335 322.508C394.106 323.399 394.586 324.337 395.455 324.612Z" fill="#145B4F"/>
<path d="M410.368 259.02C410.848 259.18 411.374 259.134 411.809 258.837C412.609 258.334 412.861 257.282 412.357 256.481L406.731 247.516C406.228 246.716 405.176 246.464 404.376 246.967C403.575 247.47 403.324 248.522 403.827 249.323L409.453 258.288C409.659 258.654 410.002 258.883 410.368 259.02Z" fill="#145B4F"/>
<path d="M266.328 452.159C266.557 452.228 266.809 452.273 267.06 452.228C267.998 452.136 268.684 451.267 268.57 450.329L262.669 396.173C262.555 395.235 261.708 394.549 260.771 394.663C259.833 394.755 259.147 395.624 259.261 396.562L265.162 450.718C265.231 451.404 265.711 451.953 266.328 452.159Z" fill="#145B4F"/>
<path d="M311.338 366.236C311.932 366.236 312.504 365.847 312.687 365.253C329.291 315.693 353.282 192.239 353.51 190.981C353.67 190.204 353.144 189.449 352.367 189.312C351.589 189.152 350.835 189.678 350.697 190.455C350.469 191.69 326.523 314.961 309.965 364.361C309.714 365.115 310.125 365.916 310.857 366.167C311.04 366.213 311.178 366.236 311.338 366.236Z" fill="white"/>
<path d="M275.844 361.526C276.553 361.526 277.171 361 277.262 360.291C287.371 286.512 329.566 187.21 330.001 186.203C330.321 185.471 329.978 184.625 329.246 184.328C328.514 184.008 327.668 184.351 327.371 185.083C326.936 186.089 284.581 285.734 274.426 359.903C274.312 360.68 274.861 361.412 275.661 361.526C275.707 361.526 275.776 361.526 275.844 361.526Z" fill="white"/>
</g>
<defs>
<clipPath id="clip0_329_20444">
<rect width="565" height="554" fill="white"/>
</clipPath>
</defs>
</svg>
