<svg width="1842" height="356" viewBox="0 0 1842 356" fill="none" xmlns="http://www.w3.org/2000/svg">
<g opacity="0.5">
<rect x="1" y="-1" width="172" height="74" rx="9" transform="matrix(1 0 0 -1 1044 253)" fill="#EBF4FB" stroke="#A7C6DB" stroke-width="2"/>
<path d="M1690 151H1689V152V218.349C1689 223.127 1685.13 227 1680.35 227H1623.65C1618.87 227 1615 223.127 1615 218.349V142.349V85.6508C1615 80.8731 1618.87 77 1623.65 77H1690H1691V76V9.65079C1691 4.87309 1694.87 1 1699.65 1H1756.35C1761.13 1 1765 4.87309 1765 9.65079V85.6508V142.349C1765 147.127 1761.13 151 1756.35 151H1690Z" fill="#EBF4FB" stroke="#A7C6DB" stroke-width="2"/>
<rect x="1" y="-1" width="172" height="74" rx="9" transform="matrix(1 0 0 -1 979 354)" fill="#EBF4FB" stroke="#A7C6DB" stroke-width="2"/>
<rect x="1" y="1" width="74" height="74" rx="9" transform="matrix(0 1 1 0 878 280)" fill="#EBF4FB" stroke="#A7C6DB" stroke-width="2"/>
<rect x="1" y="1" width="74" height="74" rx="9" transform="matrix(0 1 1 0 0 280)" fill="#EBF4FB" stroke="#A7C6DB" stroke-width="2"/>
<rect x="1" y="1" width="74" height="74" rx="9" transform="matrix(0 1 1 0 1766 280)" fill="#EBF4FB" stroke="#A7C6DB" stroke-width="2"/>
</g>
</svg>
